<?xml version="1.0" encoding="UTF-8" standalone="no"?>
<!DOCTYPE svg PUBLIC "-//W3C//DTD SVG 1.1//EN"
 "http://www.w3.org/Graphics/SVG/1.1/DTD/svg11.dtd">
<!-- Generated by graphviz version 2.43.0 (0)
 -->
<!-- Title: G Pages: 1 -->
<svg width="794pt" height="189pt"
 viewBox="0.00 0.00 794.20 189.20" xmlns="http://www.w3.org/2000/svg" xmlns:xlink="http://www.w3.org/1999/xlink">
<g id="graph0" class="graph" transform="scale(1 1) rotate(0) translate(21.6 167.6)">
<title>G</title>
<polygon fill="#111111" stroke="transparent" points="-21.6,21.6 -21.6,-167.6 772.6,-167.6 772.6,21.6 -21.6,21.6"/>
<!-- monsters&#45;rolodex/src/App.css -->
<g id="node1" class="node">
<title>monsters&#45;rolodex/src/App.css</title>
<path fill="none" stroke="#cfffac" d="M742.33,-125C742.33,-125 562.67,-125 562.67,-125 558.83,-125 555,-121.17 555,-117.33 555,-117.33 555,-109.67 555,-109.67 555,-105.83 558.83,-102 562.67,-102 562.67,-102 742.33,-102 742.33,-102 746.17,-102 750,-105.83 750,-109.67 750,-109.67 750,-117.33 750,-117.33 750,-121.17 746.17,-125 742.33,-125"/>
<text text-anchor="middle" x="652.5" y="-109.8" font-family="Arial" font-size="14.00" fill="#cfffac">monsters&#45;rolodex/src/App.css</text>
</g>
<!-- monsters&#45;rolodex/src/App.js -->
<g id="node2" class="node">
<title>monsters&#45;rolodex/src/App.js</title>
<path fill="none" stroke="#c6c5fe" d="M474.33,-105C474.33,-105 304.67,-105 304.67,-105 300.83,-105 297,-101.17 297,-97.33 297,-97.33 297,-89.67 297,-89.67 297,-85.83 300.83,-82 304.67,-82 304.67,-82 474.33,-82 474.33,-82 478.17,-82 482,-85.83 482,-89.67 482,-89.67 482,-97.33 482,-97.33 482,-101.17 478.17,-105 474.33,-105"/>
<text text-anchor="middle" x="389.5" y="-89.8" font-family="Arial" font-size="14.00" fill="#c6c5fe">monsters&#45;rolodex/src/App.js</text>
</g>
<!-- monsters&#45;rolodex/src/App.js&#45;&gt;monsters&#45;rolodex/src/App.css -->
<g id="edge1" class="edge">
<title>monsters&#45;rolodex/src/App.js&#45;&gt;monsters&#45;rolodex/src/App.css</title>
<path fill="none" stroke="#757575" d="M482.15,-100.52C502.35,-102.07 523.91,-103.72 544.65,-105.31"/>
<polygon fill="#757575" stroke="#757575" points="544.52,-108.81 554.75,-106.09 545.05,-101.83 544.52,-108.81"/>
</g>
<!-- monsters&#45;rolodex/src/logo.svg -->
<g id="node3" class="node">
<title>monsters&#45;rolodex/src/logo.svg</title>
<path fill="none" stroke="#cfffac" d="M743.33,-84C743.33,-84 561.67,-84 561.67,-84 557.83,-84 554,-80.17 554,-76.33 554,-76.33 554,-68.67 554,-68.67 554,-64.83 557.83,-61 561.67,-61 561.67,-61 743.33,-61 743.33,-61 747.17,-61 751,-64.83 751,-68.67 751,-68.67 751,-76.33 751,-76.33 751,-80.17 747.17,-84 743.33,-84"/>
<text text-anchor="middle" x="652.5" y="-68.8" font-family="Arial" font-size="14.00" fill="#cfffac">monsters&#45;rolodex/src/logo.svg</text>
</g>
<!-- monsters&#45;rolodex/src/App.js&#45;&gt;monsters&#45;rolodex/src/logo.svg -->
<g id="edge2" class="edge">
<title>monsters&#45;rolodex/src/App.js&#45;&gt;monsters&#45;rolodex/src/logo.svg</title>
<path fill="none" stroke="#757575" d="M482.15,-86.13C502.1,-84.52 523.37,-82.81 543.87,-81.16"/>
<polygon fill="#757575" stroke="#757575" points="544.18,-84.65 553.86,-80.36 543.61,-77.67 544.18,-84.65"/>
</g>
<!-- monsters&#45;rolodex/src/App.test.js -->
<g id="node4" class="node">
<title>monsters&#45;rolodex/src/App.test.js</title>
<path fill="none" stroke="#c6c5fe" d="M209.83,-105C209.83,-105 15.17,-105 15.17,-105 11.33,-105 7.5,-101.17 7.5,-97.33 7.5,-97.33 7.5,-89.67 7.5,-89.67 7.5,-85.83 11.33,-82 15.17,-82 15.17,-82 209.83,-82 209.83,-82 213.67,-82 217.5,-85.83 217.5,-89.67 217.5,-89.67 217.5,-97.33 217.5,-97.33 217.5,-101.17 213.67,-105 209.83,-105"/>
<text text-anchor="middle" x="112.5" y="-89.8" font-family="Arial" font-size="14.00" fill="#c6c5fe">monsters&#45;rolodex/src/App.test.js</text>
</g>
<!-- monsters&#45;rolodex/src/App.test.js&#45;&gt;monsters&#45;rolodex/src/App.js -->
<g id="edge3" class="edge">
<title>monsters&#45;rolodex/src/App.test.js&#45;&gt;monsters&#45;rolodex/src/App.js</title>
<path fill="none" stroke="#757575" d="M217.86,-93.5C240.39,-93.5 264.18,-93.5 286.62,-93.5"/>
<polygon fill="#757575" stroke="#757575" points="286.82,-97 296.82,-93.5 286.82,-90 286.82,-97"/>
</g>
<!-- monsters&#45;rolodex/src/index.css -->
<g id="node5" class="node">
<title>monsters&#45;rolodex/src/index.css</title>
<path fill="none" stroke="#cfffac" d="M483.33,-64C483.33,-64 295.67,-64 295.67,-64 291.83,-64 288,-60.17 288,-56.33 288,-56.33 288,-48.67 288,-48.67 288,-44.83 291.83,-41 295.67,-41 295.67,-41 483.33,-41 483.33,-41 487.17,-41 491,-44.83 491,-48.67 491,-48.67 491,-56.33 491,-56.33 491,-60.17 487.17,-64 483.33,-64"/>
<text text-anchor="middle" x="389.5" y="-48.8" font-family="Arial" font-size="14.00" fill="#cfffac">monsters&#45;rolodex/src/index.css</text>
</g>
<!-- monsters&#45;rolodex/src/index.js -->
<g id="node6" class="node">
<title>monsters&#45;rolodex/src/index.js</title>
<path fill="none" stroke="#c6c5fe" d="M201.33,-64C201.33,-64 23.67,-64 23.67,-64 19.83,-64 16,-60.17 16,-56.33 16,-56.33 16,-48.67 16,-48.67 16,-44.83 19.83,-41 23.67,-41 23.67,-41 201.33,-41 201.33,-41 205.17,-41 209,-44.83 209,-48.67 209,-48.67 209,-56.33 209,-56.33 209,-60.17 205.17,-64 201.33,-64"/>
<text text-anchor="middle" x="112.5" y="-48.8" font-family="Arial" font-size="14.00" fill="#c6c5fe">monsters&#45;rolodex/src/index.js</text>
</g>
<!-- monsters&#45;rolodex/src/index.js&#45;&gt;monsters&#45;rolodex/src/App.js -->
<g id="edge4" class="edge">
<title>monsters&#45;rolodex/src/index.js&#45;&gt;monsters&#45;rolodex/src/App.js</title>
<path fill="none" stroke="#757575" d="M190.83,-64.03C225.1,-69.14 265.58,-75.17 300.95,-80.45"/>
<polygon fill="#757575" stroke="#757575" points="300.86,-83.97 311.27,-81.99 301.9,-77.05 300.86,-83.97"/>
</g>
<!-- monsters&#45;rolodex/src/index.js&#45;&gt;monsters&#45;rolodex/src/index.css -->
<g id="edge5" class="edge">
<title>monsters&#45;rolodex/src/index.js&#45;&gt;monsters&#45;rolodex/src/index.css</title>
<path fill="none" stroke="#757575" d="M209.3,-52.5C231.44,-52.5 255.18,-52.5 277.9,-52.5"/>
<polygon fill="#757575" stroke="#757575" points="277.91,-56 287.91,-52.5 277.91,-49 277.91,-56"/>
</g>
<!-- monsters&#45;rolodex/src/reportWebVitals.js -->
<g id="node7" class="node">
<title>monsters&#45;rolodex/src/reportWebVitals.js</title>
<path fill="none" stroke="#cfffac" d="M510.33,-23C510.33,-23 268.67,-23 268.67,-23 264.83,-23 261,-19.17 261,-15.33 261,-15.33 261,-7.67 261,-7.67 261,-3.83 264.83,0 268.67,0 268.67,0 510.33,0 510.33,0 514.17,0 518,-3.83 518,-7.67 518,-7.67 518,-15.33 518,-15.33 518,-19.17 514.17,-23 510.33,-23"/>
<text text-anchor="middle" x="389.5" y="-7.8" font-family="Arial" font-size="14.00" fill="#cfffac">monsters&#45;rolodex/src/reportWebVitals.js</text>
</g>
<!-- monsters&#45;rolodex/src/index.js&#45;&gt;monsters&#45;rolodex/src/reportWebVitals.js -->
<g id="edge6" class="edge">
<title>monsters&#45;rolodex/src/index.js&#45;&gt;monsters&#45;rolodex/src/reportWebVitals.js</title>
<path fill="none" stroke="#757575" d="M190.83,-40.97C225.1,-35.86 265.58,-29.83 300.95,-24.55"/>
<polygon fill="#757575" stroke="#757575" points="301.9,-27.95 311.27,-23.01 300.86,-21.03 301.9,-27.95"/>
</g>
<!-- monsters&#45;rolodex/src/setupTests.js -->
<g id="node8" class="node">
<title>monsters&#45;rolodex/src/setupTests.js</title>
<path fill="none" stroke="#cfffac" d="M217.33,-146C217.33,-146 7.67,-146 7.67,-146 3.83,-146 0,-142.17 0,-138.33 0,-138.33 0,-130.67 0,-130.67 0,-126.83 3.83,-123 7.67,-123 7.67,-123 217.33,-123 217.33,-123 221.17,-123 225,-126.83 225,-130.67 225,-130.67 225,-138.33 225,-138.33 225,-142.17 221.17,-146 217.33,-146"/>
<text text-anchor="middle" x="112.5" y="-130.8" font-family="Arial" font-size="14.00" fill="#cfffac">monsters&#45;rolodex/src/setupTests.js</text>
</g>
</g>
</svg>
