<?xml version="1.0" encoding="UTF-8" standalone="no"?>
<!DOCTYPE svg PUBLIC "-//W3C//DTD SVG 1.1//EN"
 "http://www.w3.org/Graphics/SVG/1.1/DTD/svg11.dtd">
<!-- Generated by graphviz version 2.43.0 (0)
 -->
<!-- Title: G Pages: 1 -->
<svg width="2171pt" height="353pt"
 viewBox="0.00 0.00 2171.20 353.20" xmlns="http://www.w3.org/2000/svg" xmlns:xlink="http://www.w3.org/1999/xlink">
<g id="graph0" class="graph" transform="scale(1 1) rotate(0) translate(21.6 331.6)">
<title>G</title>
<polygon fill="#111111" stroke="transparent" points="-21.6,21.6 -21.6,-331.6 2149.6,-331.6 2149.6,21.6 -21.6,21.6"/>
<!-- src/App.css -->
<g id="node1" class="node">
<title>src/App.css</title>
<path fill="none" stroke="#cfffac" d="M659.83,-299C659.83,-299 589.17,-299 589.17,-299 585.33,-299 581.5,-295.17 581.5,-291.33 581.5,-291.33 581.5,-283.67 581.5,-283.67 581.5,-279.83 585.33,-276 589.17,-276 589.17,-276 659.83,-276 659.83,-276 663.67,-276 667.5,-279.83 667.5,-283.67 667.5,-283.67 667.5,-291.33 667.5,-291.33 667.5,-295.17 663.67,-299 659.83,-299"/>
<text text-anchor="middle" x="624.5" y="-283.8" font-family="Arial" font-size="14.00" fill="#cfffac">src/App.css</text>
</g>
<!-- src/App.js -->
<g id="node2" class="node">
<title>src/App.js</title>
<path fill="none" stroke="#c6c5fe" d="M311.33,-197C311.33,-197 250.67,-197 250.67,-197 246.83,-197 243,-193.17 243,-189.33 243,-189.33 243,-181.67 243,-181.67 243,-177.83 246.83,-174 250.67,-174 250.67,-174 311.33,-174 311.33,-174 315.17,-174 319,-177.83 319,-181.67 319,-181.67 319,-189.33 319,-189.33 319,-193.17 315.17,-197 311.33,-197"/>
<text text-anchor="middle" x="281" y="-181.8" font-family="Arial" font-size="14.00" fill="#c6c5fe">src/App.js</text>
</g>
<!-- src/App.js&#45;&gt;src/App.css -->
<g id="edge1" class="edge">
<title>src/App.js&#45;&gt;src/App.css</title>
<path fill="none" stroke="#757575" d="M296.9,-197.21C321.4,-215.74 372.44,-251.39 422,-267.5 470.85,-283.38 529.58,-287.65 571,-288.39"/>
<polygon fill="#757575" stroke="#757575" points="571.1,-291.89 581.14,-288.5 571.18,-284.89 571.1,-291.89"/>
</g>
<!-- src/components/header/header.component.jsx -->
<g id="node3" class="node">
<title>src/components/header/header.component.jsx</title>
<path fill="none" stroke="#c6c5fe" d="M764.83,-258C764.83,-258 484.17,-258 484.17,-258 480.33,-258 476.5,-254.17 476.5,-250.33 476.5,-250.33 476.5,-242.67 476.5,-242.67 476.5,-238.83 480.33,-235 484.17,-235 484.17,-235 764.83,-235 764.83,-235 768.67,-235 772.5,-238.83 772.5,-242.67 772.5,-242.67 772.5,-250.33 772.5,-250.33 772.5,-254.17 768.67,-258 764.83,-258"/>
<text text-anchor="middle" x="624.5" y="-242.8" font-family="Arial" font-size="14.00" fill="#c6c5fe">src/components/header/header.component.jsx</text>
</g>
<!-- src/App.js&#45;&gt;src/components/header/header.component.jsx -->
<g id="edge2" class="edge">
<title>src/App.js&#45;&gt;src/components/header/header.component.jsx</title>
<path fill="none" stroke="#757575" d="M319.2,-192.14C374.06,-201.94 477.84,-220.48 548.81,-233.16"/>
<polygon fill="#757575" stroke="#757575" points="548.57,-236.67 559.03,-234.98 549.8,-229.78 548.57,-236.67"/>
</g>
<!-- src/pages/homepage/homepage.component.jsx -->
<g id="node4" class="node">
<title>src/pages/homepage/homepage.component.jsx</title>
<path fill="none" stroke="#c6c5fe" d="M768.33,-197C768.33,-197 480.67,-197 480.67,-197 476.83,-197 473,-193.17 473,-189.33 473,-189.33 473,-181.67 473,-181.67 473,-177.83 476.83,-174 480.67,-174 480.67,-174 768.33,-174 768.33,-174 772.17,-174 776,-177.83 776,-181.67 776,-181.67 776,-189.33 776,-189.33 776,-193.17 772.17,-197 768.33,-197"/>
<text text-anchor="middle" x="624.5" y="-181.8" font-family="Arial" font-size="14.00" fill="#c6c5fe">src/pages/homepage/homepage.component.jsx</text>
</g>
<!-- src/App.js&#45;&gt;src/pages/homepage/homepage.component.jsx -->
<g id="edge3" class="edge">
<title>src/App.js&#45;&gt;src/pages/homepage/homepage.component.jsx</title>
<path fill="none" stroke="#757575" d="M319.2,-185.5C354.11,-185.5 408.84,-185.5 462.31,-185.5"/>
<polygon fill="#757575" stroke="#757575" points="462.63,-189 472.63,-185.5 462.63,-182 462.63,-189"/>
</g>
<!-- src/pages/shop/shop.component.jsx -->
<g id="node5" class="node">
<title>src/pages/shop/shop.component.jsx</title>
<path fill="none" stroke="#c6c5fe" d="M733.33,-146C733.33,-146 515.67,-146 515.67,-146 511.83,-146 508,-142.17 508,-138.33 508,-138.33 508,-130.67 508,-130.67 508,-126.83 511.83,-123 515.67,-123 515.67,-123 733.33,-123 733.33,-123 737.17,-123 741,-126.83 741,-130.67 741,-130.67 741,-138.33 741,-138.33 741,-142.17 737.17,-146 733.33,-146"/>
<text text-anchor="middle" x="624.5" y="-130.8" font-family="Arial" font-size="14.00" fill="#c6c5fe">src/pages/shop/shop.component.jsx</text>
</g>
<!-- src/App.js&#45;&gt;src/pages/shop/shop.component.jsx -->
<g id="edge4" class="edge">
<title>src/App.js&#45;&gt;src/pages/shop/shop.component.jsx</title>
<path fill="none" stroke="#757575" d="M319.2,-179.95C370.85,-172.23 465.86,-158.04 536.02,-147.56"/>
<polygon fill="#757575" stroke="#757575" points="536.81,-150.98 546.19,-146.05 535.78,-144.06 536.81,-150.98"/>
</g>
<!-- src/pages/sign&#45;in&#45;and&#45;sign&#45;up/sign&#45;in&#45;and&#45;sign&#45;up.component.jsx -->
<g id="node6" class="node">
<title>src/pages/sign&#45;in&#45;and&#45;sign&#45;up/sign&#45;in&#45;and&#45;sign&#45;up.component.jsx</title>
<path fill="none" stroke="#c6c5fe" d="M819.33,-64C819.33,-64 429.67,-64 429.67,-64 425.83,-64 422,-60.17 422,-56.33 422,-56.33 422,-48.67 422,-48.67 422,-44.83 425.83,-41 429.67,-41 429.67,-41 819.33,-41 819.33,-41 823.17,-41 827,-44.83 827,-48.67 827,-48.67 827,-56.33 827,-56.33 827,-60.17 823.17,-64 819.33,-64"/>
<text text-anchor="middle" x="624.5" y="-48.8" font-family="Arial" font-size="14.00" fill="#c6c5fe">src/pages/sign&#45;in&#45;and&#45;sign&#45;up/sign&#45;in&#45;and&#45;sign&#45;up.component.jsx</text>
</g>
<!-- src/App.js&#45;&gt;src/pages/sign&#45;in&#45;and&#45;sign&#45;up/sign&#45;in&#45;and&#45;sign&#45;up.component.jsx -->
<g id="edge5" class="edge">
<title>src/App.js&#45;&gt;src/pages/sign&#45;in&#45;and&#45;sign&#45;up/sign&#45;in&#45;and&#45;sign&#45;up.component.jsx</title>
<path fill="none" stroke="#757575" d="M319.17,-185.07C340.23,-183.26 366.23,-178.26 386,-165.5 409.31,-150.46 399.54,-130.79 422,-114.5 455.32,-90.34 498.25,-75.44 535.91,-66.33"/>
<polygon fill="#757575" stroke="#757575" points="536.92,-69.69 545.88,-64.03 535.34,-62.87 536.92,-69.69"/>
</g>
<!-- src/assets/crown.svg -->
<g id="node8" class="node">
<title>src/assets/crown.svg</title>
<path fill="none" stroke="#cfffac" d="M1139.33,-310C1139.33,-310 1012.67,-310 1012.67,-310 1008.83,-310 1005,-306.17 1005,-302.33 1005,-302.33 1005,-294.67 1005,-294.67 1005,-290.83 1008.83,-287 1012.67,-287 1012.67,-287 1139.33,-287 1139.33,-287 1143.17,-287 1147,-290.83 1147,-294.67 1147,-294.67 1147,-302.33 1147,-302.33 1147,-306.17 1143.17,-310 1139.33,-310"/>
<text text-anchor="middle" x="1076" y="-294.8" font-family="Arial" font-size="14.00" fill="#cfffac">src/assets/crown.svg</text>
</g>
<!-- src/components/header/header.component.jsx&#45;&gt;src/assets/crown.svg -->
<g id="edge14" class="edge">
<title>src/components/header/header.component.jsx&#45;&gt;src/assets/crown.svg</title>
<path fill="none" stroke="#757575" d="M768.85,-258C788.48,-260.58 808.3,-263.71 827,-267.5 843.4,-270.83 846.59,-275.25 863,-278.5 906.04,-287.01 954.73,-291.93 994.59,-294.76"/>
<polygon fill="#757575" stroke="#757575" points="994.57,-298.27 1004.78,-295.45 995.04,-291.28 994.57,-298.27"/>
</g>
<!-- src/components/header/header.styles.scss -->
<g id="node20" class="node">
<title>src/components/header/header.styles.scss</title>
<path fill="none" stroke="#cfffac" d="M1204.83,-269C1204.83,-269 947.17,-269 947.17,-269 943.33,-269 939.5,-265.17 939.5,-261.33 939.5,-261.33 939.5,-253.67 939.5,-253.67 939.5,-249.83 943.33,-246 947.17,-246 947.17,-246 1204.83,-246 1204.83,-246 1208.67,-246 1212.5,-249.83 1212.5,-253.67 1212.5,-253.67 1212.5,-261.33 1212.5,-261.33 1212.5,-265.17 1208.67,-269 1204.83,-269"/>
<text text-anchor="middle" x="1076" y="-253.8" font-family="Arial" font-size="14.00" fill="#cfffac">src/components/header/header.styles.scss</text>
</g>
<!-- src/components/header/header.component.jsx&#45;&gt;src/components/header/header.styles.scss -->
<g id="edge15" class="edge">
<title>src/components/header/header.component.jsx&#45;&gt;src/components/header/header.styles.scss</title>
<path fill="none" stroke="#757575" d="M772.68,-250.1C822.87,-251.33 878.93,-252.7 929.02,-253.93"/>
<polygon fill="#757575" stroke="#757575" points="929.2,-257.43 939.28,-254.18 929.37,-250.44 929.2,-257.43"/>
</g>
<!-- src/components/directory/directory.component.jsx -->
<g id="node15" class="node">
<title>src/components/directory/directory.component.jsx</title>
<path fill="none" stroke="#c6c5fe" d="M1225.33,-228C1225.33,-228 926.67,-228 926.67,-228 922.83,-228 919,-224.17 919,-220.33 919,-220.33 919,-212.67 919,-212.67 919,-208.83 922.83,-205 926.67,-205 926.67,-205 1225.33,-205 1225.33,-205 1229.17,-205 1233,-208.83 1233,-212.67 1233,-212.67 1233,-220.33 1233,-220.33 1233,-224.17 1229.17,-228 1225.33,-228"/>
<text text-anchor="middle" x="1076" y="-212.8" font-family="Arial" font-size="14.00" fill="#c6c5fe">src/components/directory/directory.component.jsx</text>
</g>
<!-- src/pages/homepage/homepage.component.jsx&#45;&gt;src/components/directory/directory.component.jsx -->
<g id="edge24" class="edge">
<title>src/pages/homepage/homepage.component.jsx&#45;&gt;src/components/directory/directory.component.jsx</title>
<path fill="none" stroke="#757575" d="M776.11,-195.89C818.72,-198.83 865.33,-202.04 908.8,-205.04"/>
<polygon fill="#757575" stroke="#757575" points="908.68,-208.54 918.89,-205.73 909.16,-201.55 908.68,-208.54"/>
</g>
<!-- src/pages/homepage/homepage.style.scss -->
<g id="node28" class="node">
<title>src/pages/homepage/homepage.style.scss</title>
<path fill="none" stroke="#cfffac" d="M1205.33,-187C1205.33,-187 946.67,-187 946.67,-187 942.83,-187 939,-183.17 939,-179.33 939,-179.33 939,-171.67 939,-171.67 939,-167.83 942.83,-164 946.67,-164 946.67,-164 1205.33,-164 1205.33,-164 1209.17,-164 1213,-167.83 1213,-171.67 1213,-171.67 1213,-179.33 1213,-179.33 1213,-183.17 1209.17,-187 1205.33,-187"/>
<text text-anchor="middle" x="1076" y="-171.8" font-family="Arial" font-size="14.00" fill="#cfffac">src/pages/homepage/homepage.style.scss</text>
</g>
<!-- src/pages/homepage/homepage.component.jsx&#45;&gt;src/pages/homepage/homepage.style.scss -->
<g id="edge25" class="edge">
<title>src/pages/homepage/homepage.component.jsx&#45;&gt;src/pages/homepage/homepage.style.scss</title>
<path fill="none" stroke="#757575" d="M776.11,-182.15C825.28,-181.06 879.79,-179.84 928.64,-178.76"/>
<polygon fill="#757575" stroke="#757575" points="928.73,-182.25 938.65,-178.53 928.58,-175.26 928.73,-182.25"/>
</g>
<!-- src/components/collection&#45;preview/collection&#45;preview.component.jsx -->
<g id="node11" class="node">
<title>src/components/collection&#45;preview/collection&#45;preview.component.jsx</title>
<path fill="none" stroke="#c6c5fe" d="M1281.33,-146C1281.33,-146 870.67,-146 870.67,-146 866.83,-146 863,-142.17 863,-138.33 863,-138.33 863,-130.67 863,-130.67 863,-126.83 866.83,-123 870.67,-123 870.67,-123 1281.33,-123 1281.33,-123 1285.17,-123 1289,-126.83 1289,-130.67 1289,-130.67 1289,-138.33 1289,-138.33 1289,-142.17 1285.17,-146 1281.33,-146"/>
<text text-anchor="middle" x="1076" y="-130.8" font-family="Arial" font-size="14.00" fill="#c6c5fe">src/components/collection&#45;preview/collection&#45;preview.component.jsx</text>
</g>
<!-- src/pages/shop/shop.component.jsx&#45;&gt;src/components/collection&#45;preview/collection&#45;preview.component.jsx -->
<g id="edge26" class="edge">
<title>src/pages/shop/shop.component.jsx&#45;&gt;src/components/collection&#45;preview/collection&#45;preview.component.jsx</title>
<path fill="none" stroke="#757575" d="M741.26,-134.5C775.4,-134.5 813.98,-134.5 852.47,-134.5"/>
<polygon fill="#757575" stroke="#757575" points="852.78,-138 862.78,-134.5 852.78,-131 852.78,-138"/>
</g>
<!-- src/pages/shop/shop.data.js -->
<g id="node29" class="node">
<title>src/pages/shop/shop.data.js</title>
<path fill="none" stroke="#cfffac" d="M1160.83,-105C1160.83,-105 991.17,-105 991.17,-105 987.33,-105 983.5,-101.17 983.5,-97.33 983.5,-97.33 983.5,-89.67 983.5,-89.67 983.5,-85.83 987.33,-82 991.17,-82 991.17,-82 1160.83,-82 1160.83,-82 1164.67,-82 1168.5,-85.83 1168.5,-89.67 1168.5,-89.67 1168.5,-97.33 1168.5,-97.33 1168.5,-101.17 1164.67,-105 1160.83,-105"/>
<text text-anchor="middle" x="1076" y="-89.8" font-family="Arial" font-size="14.00" fill="#cfffac">src/pages/shop/shop.data.js</text>
</g>
<!-- src/pages/shop/shop.component.jsx&#45;&gt;src/pages/shop/shop.data.js -->
<g id="edge27" class="edge">
<title>src/pages/shop/shop.component.jsx&#45;&gt;src/pages/shop/shop.data.js</title>
<path fill="none" stroke="#757575" d="M741.26,-123.94C813.03,-117.39 904.38,-109.06 973.35,-102.77"/>
<polygon fill="#757575" stroke="#757575" points="973.72,-106.25 983.36,-101.86 973.09,-99.28 973.72,-106.25"/>
</g>
<!-- src/components/sign&#45;in/sign&#45;in.component.jsx -->
<g id="node22" class="node">
<title>src/components/sign&#45;in/sign&#45;in.component.jsx</title>
<path fill="none" stroke="#c6c5fe" d="M1213.83,-64C1213.83,-64 938.17,-64 938.17,-64 934.33,-64 930.5,-60.17 930.5,-56.33 930.5,-56.33 930.5,-48.67 930.5,-48.67 930.5,-44.83 934.33,-41 938.17,-41 938.17,-41 1213.83,-41 1213.83,-41 1217.67,-41 1221.5,-44.83 1221.5,-48.67 1221.5,-48.67 1221.5,-56.33 1221.5,-56.33 1221.5,-60.17 1217.67,-64 1213.83,-64"/>
<text text-anchor="middle" x="1076" y="-48.8" font-family="Arial" font-size="14.00" fill="#c6c5fe">src/components/sign&#45;in/sign&#45;in.component.jsx</text>
</g>
<!-- src/pages/sign&#45;in&#45;and&#45;sign&#45;up/sign&#45;in&#45;and&#45;sign&#45;up.component.jsx&#45;&gt;src/components/sign&#45;in/sign&#45;in.component.jsx -->
<g id="edge28" class="edge">
<title>src/pages/sign&#45;in&#45;and&#45;sign&#45;up/sign&#45;in&#45;and&#45;sign&#45;up.component.jsx&#45;&gt;src/components/sign&#45;in/sign&#45;in.component.jsx</title>
<path fill="none" stroke="#757575" d="M827.24,-52.5C858.48,-52.5 890.33,-52.5 920.32,-52.5"/>
<polygon fill="#757575" stroke="#757575" points="920.42,-56 930.42,-52.5 920.42,-49 920.42,-56"/>
</g>
<!-- src/pages/sign&#45;in&#45;and&#45;sign&#45;up/sign&#45;in&#45;and&#45;sign&#45;up.styles.scss -->
<g id="node30" class="node">
<title>src/pages/sign&#45;in&#45;and&#45;sign&#45;up/sign&#45;in&#45;and&#45;sign&#45;up.styles.scss</title>
<path fill="none" stroke="#cfffac" d="M1259.83,-23C1259.83,-23 892.17,-23 892.17,-23 888.33,-23 884.5,-19.17 884.5,-15.33 884.5,-15.33 884.5,-7.67 884.5,-7.67 884.5,-3.83 888.33,0 892.17,0 892.17,0 1259.83,0 1259.83,0 1263.67,0 1267.5,-3.83 1267.5,-7.67 1267.5,-7.67 1267.5,-15.33 1267.5,-15.33 1267.5,-19.17 1263.67,-23 1259.83,-23"/>
<text text-anchor="middle" x="1076" y="-7.8" font-family="Arial" font-size="14.00" fill="#cfffac">src/pages/sign&#45;in&#45;and&#45;sign&#45;up/sign&#45;in&#45;and&#45;sign&#45;up.styles.scss</text>
</g>
<!-- src/pages/sign&#45;in&#45;and&#45;sign&#45;up/sign&#45;in&#45;and&#45;sign&#45;up.component.jsx&#45;&gt;src/pages/sign&#45;in&#45;and&#45;sign&#45;up/sign&#45;in&#45;and&#45;sign&#45;up.styles.scss -->
<g id="edge29" class="edge">
<title>src/pages/sign&#45;in&#45;and&#45;sign&#45;up/sign&#45;in&#45;and&#45;sign&#45;up.component.jsx&#45;&gt;src/pages/sign&#45;in&#45;and&#45;sign&#45;up/sign&#45;in&#45;and&#45;sign&#45;up.styles.scss</title>
<path fill="none" stroke="#757575" d="M751.61,-41C809.79,-35.69 878.97,-29.38 938.39,-23.96"/>
<polygon fill="#757575" stroke="#757575" points="938.96,-27.42 948.6,-23.03 938.33,-20.45 938.96,-27.42"/>
</g>
<!-- src/App.test.js -->
<g id="node7" class="node">
<title>src/App.test.js</title>
<path fill="none" stroke="#c6c5fe" d="M112.83,-197C112.83,-197 27.17,-197 27.17,-197 23.33,-197 19.5,-193.17 19.5,-189.33 19.5,-189.33 19.5,-181.67 19.5,-181.67 19.5,-177.83 23.33,-174 27.17,-174 27.17,-174 112.83,-174 112.83,-174 116.67,-174 120.5,-177.83 120.5,-181.67 120.5,-181.67 120.5,-189.33 120.5,-189.33 120.5,-193.17 116.67,-197 112.83,-197"/>
<text text-anchor="middle" x="70" y="-181.8" font-family="Arial" font-size="14.00" fill="#c6c5fe">src/App.test.js</text>
</g>
<!-- src/App.test.js&#45;&gt;src/App.js -->
<g id="edge6" class="edge">
<title>src/App.test.js&#45;&gt;src/App.js</title>
<path fill="none" stroke="#757575" d="M120.53,-185.5C154.55,-185.5 199.44,-185.5 232.92,-185.5"/>
<polygon fill="#757575" stroke="#757575" points="232.92,-189 242.92,-185.5 232.92,-182 232.92,-189"/>
</g>
<!-- src/components/collection&#45;item/collection&#45;item.component.jsx -->
<g id="node9" class="node">
<title>src/components/collection&#45;item/collection&#45;item.component.jsx</title>
<path fill="none" stroke="#c6c5fe" d="M1712.33,-187C1712.33,-187 1341.67,-187 1341.67,-187 1337.83,-187 1334,-183.17 1334,-179.33 1334,-179.33 1334,-171.67 1334,-171.67 1334,-167.83 1337.83,-164 1341.67,-164 1341.67,-164 1712.33,-164 1712.33,-164 1716.17,-164 1720,-167.83 1720,-171.67 1720,-171.67 1720,-179.33 1720,-179.33 1720,-183.17 1716.17,-187 1712.33,-187"/>
<text text-anchor="middle" x="1527" y="-171.8" font-family="Arial" font-size="14.00" fill="#c6c5fe">src/components/collection&#45;item/collection&#45;item.component.jsx</text>
</g>
<!-- src/components/collection&#45;item/collection&#45;item.styles.scss -->
<g id="node10" class="node">
<title>src/components/collection&#45;item/collection&#45;item.styles.scss</title>
<path fill="none" stroke="#cfffac" d="M2120.33,-187C2120.33,-187 1772.67,-187 1772.67,-187 1768.83,-187 1765,-183.17 1765,-179.33 1765,-179.33 1765,-171.67 1765,-171.67 1765,-167.83 1768.83,-164 1772.67,-164 1772.67,-164 2120.33,-164 2120.33,-164 2124.17,-164 2128,-167.83 2128,-171.67 2128,-171.67 2128,-179.33 2128,-179.33 2128,-183.17 2124.17,-187 2120.33,-187"/>
<text text-anchor="middle" x="1946.5" y="-171.8" font-family="Arial" font-size="14.00" fill="#cfffac">src/components/collection&#45;item/collection&#45;item.styles.scss</text>
</g>
<!-- src/components/collection&#45;item/collection&#45;item.component.jsx&#45;&gt;src/components/collection&#45;item/collection&#45;item.styles.scss -->
<g id="edge7" class="edge">
<title>src/components/collection&#45;item/collection&#45;item.component.jsx&#45;&gt;src/components/collection&#45;item/collection&#45;item.styles.scss</title>
<path fill="none" stroke="#757575" d="M1720.25,-175.5C1731.76,-175.5 1743.33,-175.5 1754.83,-175.5"/>
<polygon fill="#757575" stroke="#757575" points="1754.91,-179 1764.91,-175.5 1754.91,-172 1754.91,-179"/>
</g>
<!-- src/components/collection&#45;preview/collection&#45;preview.component.jsx&#45;&gt;src/components/collection&#45;item/collection&#45;item.component.jsx -->
<g id="edge8" class="edge">
<title>src/components/collection&#45;preview/collection&#45;preview.component.jsx&#45;&gt;src/components/collection&#45;item/collection&#45;item.component.jsx</title>
<path fill="none" stroke="#757575" d="M1202.97,-146C1261.08,-151.31 1330.19,-157.62 1389.54,-163.04"/>
<polygon fill="#757575" stroke="#757575" points="1389.47,-166.55 1399.74,-163.97 1390.1,-159.58 1389.47,-166.55"/>
</g>
<!-- src/components/collection&#45;preview/collection&#45;preview.styles.scss -->
<g id="node12" class="node">
<title>src/components/collection&#45;preview/collection&#45;preview.styles.scss</title>
<path fill="none" stroke="#cfffac" d="M1721.33,-146C1721.33,-146 1332.67,-146 1332.67,-146 1328.83,-146 1325,-142.17 1325,-138.33 1325,-138.33 1325,-130.67 1325,-130.67 1325,-126.83 1328.83,-123 1332.67,-123 1332.67,-123 1721.33,-123 1721.33,-123 1725.17,-123 1729,-126.83 1729,-130.67 1729,-130.67 1729,-138.33 1729,-138.33 1729,-142.17 1725.17,-146 1721.33,-146"/>
<text text-anchor="middle" x="1527" y="-130.8" font-family="Arial" font-size="14.00" fill="#cfffac">src/components/collection&#45;preview/collection&#45;preview.styles.scss</text>
</g>
<!-- src/components/collection&#45;preview/collection&#45;preview.component.jsx&#45;&gt;src/components/collection&#45;preview/collection&#45;preview.styles.scss -->
<g id="edge9" class="edge">
<title>src/components/collection&#45;preview/collection&#45;preview.component.jsx&#45;&gt;src/components/collection&#45;preview/collection&#45;preview.styles.scss</title>
<path fill="none" stroke="#757575" d="M1289.01,-134.5C1297.58,-134.5 1306.17,-134.5 1314.74,-134.5"/>
<polygon fill="#757575" stroke="#757575" points="1314.78,-138 1324.78,-134.5 1314.78,-131 1314.78,-138"/>
</g>
<!-- src/components/custom&#45;button/custom&#45;button.component.jsx -->
<g id="node13" class="node">
<title>src/components/custom&#45;button/custom&#45;button.component.jsx</title>
<path fill="none" stroke="#c6c5fe" d="M1711.33,-105C1711.33,-105 1342.67,-105 1342.67,-105 1338.83,-105 1335,-101.17 1335,-97.33 1335,-97.33 1335,-89.67 1335,-89.67 1335,-85.83 1338.83,-82 1342.67,-82 1342.67,-82 1711.33,-82 1711.33,-82 1715.17,-82 1719,-85.83 1719,-89.67 1719,-89.67 1719,-97.33 1719,-97.33 1719,-101.17 1715.17,-105 1711.33,-105"/>
<text text-anchor="middle" x="1527" y="-89.8" font-family="Arial" font-size="14.00" fill="#c6c5fe">src/components/custom&#45;button/custom&#45;button.component.jsx</text>
</g>
<!-- src/components/custom&#45;button/custom&#45;button.styles.scss -->
<g id="node14" class="node">
<title>src/components/custom&#45;button/custom&#45;button.styles.scss</title>
<path fill="none" stroke="#cfffac" d="M2119.83,-105C2119.83,-105 1773.17,-105 1773.17,-105 1769.33,-105 1765.5,-101.17 1765.5,-97.33 1765.5,-97.33 1765.5,-89.67 1765.5,-89.67 1765.5,-85.83 1769.33,-82 1773.17,-82 1773.17,-82 2119.83,-82 2119.83,-82 2123.67,-82 2127.5,-85.83 2127.5,-89.67 2127.5,-89.67 2127.5,-97.33 2127.5,-97.33 2127.5,-101.17 2123.67,-105 2119.83,-105"/>
<text text-anchor="middle" x="1946.5" y="-89.8" font-family="Arial" font-size="14.00" fill="#cfffac">src/components/custom&#45;button/custom&#45;button.styles.scss</text>
</g>
<!-- src/components/custom&#45;button/custom&#45;button.component.jsx&#45;&gt;src/components/custom&#45;button/custom&#45;button.styles.scss -->
<g id="edge10" class="edge">
<title>src/components/custom&#45;button/custom&#45;button.component.jsx&#45;&gt;src/components/custom&#45;button/custom&#45;button.styles.scss</title>
<path fill="none" stroke="#757575" d="M1719.03,-93.5C1731.11,-93.5 1743.27,-93.5 1755.34,-93.5"/>
<polygon fill="#757575" stroke="#757575" points="1755.46,-97 1765.46,-93.5 1755.46,-90 1755.46,-97"/>
</g>
<!-- src/components/directory/directory.styles.scss -->
<g id="node16" class="node">
<title>src/components/directory/directory.styles.scss</title>
<path fill="none" stroke="#cfffac" d="M1665.33,-269C1665.33,-269 1388.67,-269 1388.67,-269 1384.83,-269 1381,-265.17 1381,-261.33 1381,-261.33 1381,-253.67 1381,-253.67 1381,-249.83 1384.83,-246 1388.67,-246 1388.67,-246 1665.33,-246 1665.33,-246 1669.17,-246 1673,-249.83 1673,-253.67 1673,-253.67 1673,-261.33 1673,-261.33 1673,-265.17 1669.17,-269 1665.33,-269"/>
<text text-anchor="middle" x="1527" y="-253.8" font-family="Arial" font-size="14.00" fill="#cfffac">src/components/directory/directory.styles.scss</text>
</g>
<!-- src/components/directory/directory.component.jsx&#45;&gt;src/components/directory/directory.styles.scss -->
<g id="edge11" class="edge">
<title>src/components/directory/directory.component.jsx&#45;&gt;src/components/directory/directory.styles.scss</title>
<path fill="none" stroke="#757575" d="M1202.97,-228C1261.08,-233.31 1330.19,-239.62 1389.54,-245.04"/>
<polygon fill="#757575" stroke="#757575" points="1389.47,-248.55 1399.74,-245.97 1390.1,-241.58 1389.47,-248.55"/>
</g>
<!-- src/components/menu&#45;item/menu&#45;item.component.jsx -->
<g id="node17" class="node">
<title>src/components/menu&#45;item/menu&#45;item.component.jsx</title>
<path fill="none" stroke="#c6c5fe" d="M1690.33,-228C1690.33,-228 1363.67,-228 1363.67,-228 1359.83,-228 1356,-224.17 1356,-220.33 1356,-220.33 1356,-212.67 1356,-212.67 1356,-208.83 1359.83,-205 1363.67,-205 1363.67,-205 1690.33,-205 1690.33,-205 1694.17,-205 1698,-208.83 1698,-212.67 1698,-212.67 1698,-220.33 1698,-220.33 1698,-224.17 1694.17,-228 1690.33,-228"/>
<text text-anchor="middle" x="1527" y="-212.8" font-family="Arial" font-size="14.00" fill="#c6c5fe">src/components/menu&#45;item/menu&#45;item.component.jsx</text>
</g>
<!-- src/components/directory/directory.component.jsx&#45;&gt;src/components/menu&#45;item/menu&#45;item.component.jsx -->
<g id="edge12" class="edge">
<title>src/components/directory/directory.component.jsx&#45;&gt;src/components/menu&#45;item/menu&#45;item.component.jsx</title>
<path fill="none" stroke="#757575" d="M1233.09,-216.5C1269.31,-216.5 1308.16,-216.5 1345.33,-216.5"/>
<polygon fill="#757575" stroke="#757575" points="1345.77,-220 1355.77,-216.5 1345.77,-213 1345.77,-220"/>
</g>
<!-- src/components/menu&#45;item/menu&#45;item.styles.scss -->
<g id="node21" class="node">
<title>src/components/menu&#45;item/menu&#45;item.styles.scss</title>
<path fill="none" stroke="#cfffac" d="M2098.83,-228C2098.83,-228 1794.17,-228 1794.17,-228 1790.33,-228 1786.5,-224.17 1786.5,-220.33 1786.5,-220.33 1786.5,-212.67 1786.5,-212.67 1786.5,-208.83 1790.33,-205 1794.17,-205 1794.17,-205 2098.83,-205 2098.83,-205 2102.67,-205 2106.5,-208.83 2106.5,-212.67 2106.5,-212.67 2106.5,-220.33 2106.5,-220.33 2106.5,-224.17 2102.67,-228 2098.83,-228"/>
<text text-anchor="middle" x="1946.5" y="-212.8" font-family="Arial" font-size="14.00" fill="#cfffac">src/components/menu&#45;item/menu&#45;item.styles.scss</text>
</g>
<!-- src/components/menu&#45;item/menu&#45;item.component.jsx&#45;&gt;src/components/menu&#45;item/menu&#45;item.styles.scss -->
<g id="edge16" class="edge">
<title>src/components/menu&#45;item/menu&#45;item.component.jsx&#45;&gt;src/components/menu&#45;item/menu&#45;item.styles.scss</title>
<path fill="none" stroke="#757575" d="M1698.11,-216.5C1723.81,-216.5 1750.31,-216.5 1775.99,-216.5"/>
<polygon fill="#757575" stroke="#757575" points="1776.17,-220 1786.17,-216.5 1776.17,-213 1776.17,-220"/>
</g>
<!-- src/components/form&#45;input/form&#45;input.component.jsx -->
<g id="node18" class="node">
<title>src/components/form&#45;input/form&#45;input.component.jsx</title>
<path fill="none" stroke="#c6c5fe" d="M1686.83,-64C1686.83,-64 1367.17,-64 1367.17,-64 1363.33,-64 1359.5,-60.17 1359.5,-56.33 1359.5,-56.33 1359.5,-48.67 1359.5,-48.67 1359.5,-44.83 1363.33,-41 1367.17,-41 1367.17,-41 1686.83,-41 1686.83,-41 1690.67,-41 1694.5,-44.83 1694.5,-48.67 1694.5,-48.67 1694.5,-56.33 1694.5,-56.33 1694.5,-60.17 1690.67,-64 1686.83,-64"/>
<text text-anchor="middle" x="1527" y="-48.8" font-family="Arial" font-size="14.00" fill="#c6c5fe">src/components/form&#45;input/form&#45;input.component.jsx</text>
</g>
<!-- src/components/form&#45;input/form&#45;input.styles.scss -->
<g id="node19" class="node">
<title>src/components/form&#45;input/form&#45;input.styles.scss</title>
<path fill="none" stroke="#cfffac" d="M2094.83,-64C2094.83,-64 1798.17,-64 1798.17,-64 1794.33,-64 1790.5,-60.17 1790.5,-56.33 1790.5,-56.33 1790.5,-48.67 1790.5,-48.67 1790.5,-44.83 1794.33,-41 1798.17,-41 1798.17,-41 2094.83,-41 2094.83,-41 2098.67,-41 2102.5,-44.83 2102.5,-48.67 2102.5,-48.67 2102.5,-56.33 2102.5,-56.33 2102.5,-60.17 2098.67,-64 2094.83,-64"/>
<text text-anchor="middle" x="1946.5" y="-48.8" font-family="Arial" font-size="14.00" fill="#cfffac">src/components/form&#45;input/form&#45;input.styles.scss</text>
</g>
<!-- src/components/form&#45;input/form&#45;input.component.jsx&#45;&gt;src/components/form&#45;input/form&#45;input.styles.scss -->
<g id="edge13" class="edge">
<title>src/components/form&#45;input/form&#45;input.component.jsx&#45;&gt;src/components/form&#45;input/form&#45;input.styles.scss</title>
<path fill="none" stroke="#757575" d="M1694.51,-52.5C1722.64,-52.5 1751.84,-52.5 1779.95,-52.5"/>
<polygon fill="#757575" stroke="#757575" points="1780.26,-56 1790.26,-52.5 1780.26,-49 1780.26,-56"/>
</g>
<!-- src/components/sign&#45;in/sign&#45;in.component.jsx&#45;&gt;src/components/custom&#45;button/custom&#45;button.component.jsx -->
<g id="edge17" class="edge">
<title>src/components/sign&#45;in/sign&#45;in.component.jsx&#45;&gt;src/components/custom&#45;button/custom&#45;button.component.jsx</title>
<path fill="none" stroke="#757575" d="M1202.97,-64C1261.08,-69.31 1330.19,-75.62 1389.54,-81.04"/>
<polygon fill="#757575" stroke="#757575" points="1389.47,-84.55 1399.74,-81.97 1390.1,-77.58 1389.47,-84.55"/>
</g>
<!-- src/components/sign&#45;in/sign&#45;in.component.jsx&#45;&gt;src/components/form&#45;input/form&#45;input.component.jsx -->
<g id="edge18" class="edge">
<title>src/components/sign&#45;in/sign&#45;in.component.jsx&#45;&gt;src/components/form&#45;input/form&#45;input.component.jsx</title>
<path fill="none" stroke="#757575" d="M1221.54,-52.5C1262.24,-52.5 1306.98,-52.5 1349.33,-52.5"/>
<polygon fill="#757575" stroke="#757575" points="1349.47,-56 1359.47,-52.5 1349.47,-49 1349.47,-56"/>
</g>
<!-- src/components/sign&#45;in/sign&#45;in.styles.scss -->
<g id="node23" class="node">
<title>src/components/sign&#45;in/sign&#45;in.styles.scss</title>
<path fill="none" stroke="#cfffac" d="M1653.83,-23C1653.83,-23 1400.17,-23 1400.17,-23 1396.33,-23 1392.5,-19.17 1392.5,-15.33 1392.5,-15.33 1392.5,-7.67 1392.5,-7.67 1392.5,-3.83 1396.33,0 1400.17,0 1400.17,0 1653.83,0 1653.83,0 1657.67,0 1661.5,-3.83 1661.5,-7.67 1661.5,-7.67 1661.5,-15.33 1661.5,-15.33 1661.5,-19.17 1657.67,-23 1653.83,-23"/>
<text text-anchor="middle" x="1527" y="-7.8" font-family="Arial" font-size="14.00" fill="#cfffac">src/components/sign&#45;in/sign&#45;in.styles.scss</text>
</g>
<!-- src/components/sign&#45;in/sign&#45;in.component.jsx&#45;&gt;src/components/sign&#45;in/sign&#45;in.styles.scss -->
<g id="edge19" class="edge">
<title>src/components/sign&#45;in/sign&#45;in.component.jsx&#45;&gt;src/components/sign&#45;in/sign&#45;in.styles.scss</title>
<path fill="none" stroke="#757575" d="M1202.97,-41C1261.08,-35.69 1330.19,-29.38 1389.54,-23.96"/>
<polygon fill="#757575" stroke="#757575" points="1390.1,-27.42 1399.74,-23.03 1389.47,-20.45 1390.1,-27.42"/>
</g>
<!-- src/index.css -->
<g id="node24" class="node">
<title>src/index.css</title>
<path fill="none" stroke="#cfffac" d="M320.83,-156C320.83,-156 241.17,-156 241.17,-156 237.33,-156 233.5,-152.17 233.5,-148.33 233.5,-148.33 233.5,-140.67 233.5,-140.67 233.5,-136.83 237.33,-133 241.17,-133 241.17,-133 320.83,-133 320.83,-133 324.67,-133 328.5,-136.83 328.5,-140.67 328.5,-140.67 328.5,-148.33 328.5,-148.33 328.5,-152.17 324.67,-156 320.83,-156"/>
<text text-anchor="middle" x="281" y="-140.8" font-family="Arial" font-size="14.00" fill="#cfffac">src/index.css</text>
</g>
<!-- src/index.js -->
<g id="node25" class="node">
<title>src/index.js</title>
<path fill="none" stroke="#c6c5fe" d="M104.33,-136C104.33,-136 35.67,-136 35.67,-136 31.83,-136 28,-132.17 28,-128.33 28,-128.33 28,-120.67 28,-120.67 28,-116.83 31.83,-113 35.67,-113 35.67,-113 104.33,-113 104.33,-113 108.17,-113 112,-116.83 112,-120.67 112,-120.67 112,-128.33 112,-128.33 112,-132.17 108.17,-136 104.33,-136"/>
<text text-anchor="middle" x="70" y="-120.8" font-family="Arial" font-size="14.00" fill="#c6c5fe">src/index.js</text>
</g>
<!-- src/index.js&#45;&gt;src/App.js -->
<g id="edge20" class="edge">
<title>src/index.js&#45;&gt;src/App.js</title>
<path fill="none" stroke="#757575" d="M96.86,-136.13C117.84,-145.18 148.36,-157.52 176,-165.5 194.25,-170.77 214.7,-175.04 232.61,-178.27"/>
<polygon fill="#757575" stroke="#757575" points="232.1,-181.73 242.55,-179.99 233.3,-174.83 232.1,-181.73"/>
</g>
<!-- src/index.js&#45;&gt;src/index.css -->
<g id="edge21" class="edge">
<title>src/index.js&#45;&gt;src/index.css</title>
<path fill="none" stroke="#757575" d="M112.29,-128.45C144.02,-131.49 188.19,-135.71 223.24,-139.07"/>
<polygon fill="#757575" stroke="#757575" points="223.04,-142.57 233.33,-140.03 223.71,-135.6 223.04,-142.57"/>
</g>
<!-- src/reportWebVitals.js -->
<g id="node26" class="node">
<title>src/reportWebVitals.js</title>
<path fill="none" stroke="#cfffac" d="M347.33,-115C347.33,-115 214.67,-115 214.67,-115 210.83,-115 207,-111.17 207,-107.33 207,-107.33 207,-99.67 207,-99.67 207,-95.83 210.83,-92 214.67,-92 214.67,-92 347.33,-92 347.33,-92 351.17,-92 355,-95.83 355,-99.67 355,-99.67 355,-107.33 355,-107.33 355,-111.17 351.17,-115 347.33,-115"/>
<text text-anchor="middle" x="281" y="-99.8" font-family="Arial" font-size="14.00" fill="#cfffac">src/reportWebVitals.js</text>
</g>
<!-- src/index.js&#45;&gt;src/reportWebVitals.js -->
<g id="edge22" class="edge">
<title>src/index.js&#45;&gt;src/reportWebVitals.js</title>
<path fill="none" stroke="#757575" d="M112.29,-120.35C136.34,-117.93 167.55,-114.8 196.51,-111.89"/>
<polygon fill="#757575" stroke="#757575" points="197.04,-115.35 206.64,-110.87 196.34,-108.39 197.04,-115.35"/>
</g>
<!-- src/serviceWorkerRegistration.js -->
<g id="node27" class="node">
<title>src/serviceWorkerRegistration.js</title>
<path fill="none" stroke="#cfffac" d="M378.33,-74C378.33,-74 183.67,-74 183.67,-74 179.83,-74 176,-70.17 176,-66.33 176,-66.33 176,-58.67 176,-58.67 176,-54.83 179.83,-51 183.67,-51 183.67,-51 378.33,-51 378.33,-51 382.17,-51 386,-54.83 386,-58.67 386,-58.67 386,-66.33 386,-66.33 386,-70.17 382.17,-74 378.33,-74"/>
<text text-anchor="middle" x="281" y="-58.8" font-family="Arial" font-size="14.00" fill="#cfffac">src/serviceWorkerRegistration.js</text>
</g>
<!-- src/index.js&#45;&gt;src/serviceWorkerRegistration.js -->
<g id="edge23" class="edge">
<title>src/index.js&#45;&gt;src/serviceWorkerRegistration.js</title>
<path fill="none" stroke="#757575" d="M95.98,-112.94C116.96,-103.61 147.93,-90.73 176,-82.5 183.78,-80.22 191.96,-78.13 200.18,-76.24"/>
<polygon fill="#757575" stroke="#757575" points="201.18,-79.6 210.19,-74.02 199.67,-72.76 201.18,-79.6"/>
</g>
<!-- src/service&#45;worker.js -->
<g id="node31" class="node">
<title>src/service&#45;worker.js</title>
<path fill="none" stroke="#cfffac" d="M132.33,-238C132.33,-238 7.67,-238 7.67,-238 3.83,-238 0,-234.17 0,-230.33 0,-230.33 0,-222.67 0,-222.67 0,-218.83 3.83,-215 7.67,-215 7.67,-215 132.33,-215 132.33,-215 136.17,-215 140,-218.83 140,-222.67 140,-222.67 140,-230.33 140,-230.33 140,-234.17 136.17,-238 132.33,-238"/>
<text text-anchor="middle" x="70" y="-222.8" font-family="Arial" font-size="14.00" fill="#cfffac">src/service&#45;worker.js</text>
</g>
<!-- src/setupTests.js -->
<g id="node32" class="node">
<title>src/setupTests.js</title>
<path fill="none" stroke="#cfffac" d="M120.33,-279C120.33,-279 19.67,-279 19.67,-279 15.83,-279 12,-275.17 12,-271.33 12,-271.33 12,-263.67 12,-263.67 12,-259.83 15.83,-256 19.67,-256 19.67,-256 120.33,-256 120.33,-256 124.17,-256 128,-259.83 128,-263.67 128,-263.67 128,-271.33 128,-271.33 128,-275.17 124.17,-279 120.33,-279"/>
<text text-anchor="middle" x="70" y="-263.8" font-family="Arial" font-size="14.00" fill="#cfffac">src/setupTests.js</text>
</g>
</g>
</svg>
