<?xml version="1.0" encoding="UTF-8" standalone="no"?>
<!DOCTYPE svg PUBLIC "-//W3C//DTD SVG 1.1//EN"
 "http://www.w3.org/Graphics/SVG/1.1/DTD/svg11.dtd">
<!-- Generated by graphviz version 2.43.0 (0)
 -->
<!-- Title: G Pages: 1 -->
<svg width="2171pt" height="471pt"
 viewBox="0.00 0.00 2171.20 471.20" xmlns="http://www.w3.org/2000/svg" xmlns:xlink="http://www.w3.org/1999/xlink">
<g id="graph0" class="graph" transform="scale(1 1) rotate(0) translate(21.6 449.6)">
<title>G</title>
<polygon fill="#111111" stroke="transparent" points="-21.6,21.6 -21.6,-449.6 2149.6,-449.6 2149.6,21.6 -21.6,21.6"/>
<!-- src/App.css -->
<g id="node1" class="node">
<title>src/App.css</title>
<path fill="none" stroke="#cfffac" d="M659.83,-428C659.83,-428 589.17,-428 589.17,-428 585.33,-428 581.5,-424.17 581.5,-420.33 581.5,-420.33 581.5,-412.67 581.5,-412.67 581.5,-408.83 585.33,-405 589.17,-405 589.17,-405 659.83,-405 659.83,-405 663.67,-405 667.5,-408.83 667.5,-412.67 667.5,-412.67 667.5,-420.33 667.5,-420.33 667.5,-424.17 663.67,-428 659.83,-428"/>
<text text-anchor="middle" x="624.5" y="-412.8" font-family="Arial" font-size="14.00" fill="#cfffac">src/App.css</text>
</g>
<!-- src/App.js -->
<g id="node2" class="node">
<title>src/App.js</title>
<path fill="none" stroke="#c6c5fe" d="M311.33,-248C311.33,-248 250.67,-248 250.67,-248 246.83,-248 243,-244.17 243,-240.33 243,-240.33 243,-232.67 243,-232.67 243,-228.83 246.83,-225 250.67,-225 250.67,-225 311.33,-225 311.33,-225 315.17,-225 319,-228.83 319,-232.67 319,-232.67 319,-240.33 319,-240.33 319,-244.17 315.17,-248 311.33,-248"/>
<text text-anchor="middle" x="281" y="-232.8" font-family="Arial" font-size="14.00" fill="#c6c5fe">src/App.js</text>
</g>
<!-- src/App.js&#45;&gt;src/App.css -->
<g id="edge1" class="edge">
<title>src/App.js&#45;&gt;src/App.css</title>
<path fill="none" stroke="#757575" d="M288.64,-248.32C306.06,-278.1 356.32,-356.25 422,-390.5 468.37,-414.68 528.63,-419.57 571.12,-419.41"/>
<polygon fill="#757575" stroke="#757575" points="571.3,-422.91 581.25,-419.27 571.21,-415.91 571.3,-422.91"/>
</g>
<!-- src/components/header/header.component.jsx -->
<g id="node3" class="node">
<title>src/components/header/header.component.jsx</title>
<path fill="none" stroke="#c6c5fe" d="M764.83,-289C764.83,-289 484.17,-289 484.17,-289 480.33,-289 476.5,-285.17 476.5,-281.33 476.5,-281.33 476.5,-273.67 476.5,-273.67 476.5,-269.83 480.33,-266 484.17,-266 484.17,-266 764.83,-266 764.83,-266 768.67,-266 772.5,-269.83 772.5,-273.67 772.5,-273.67 772.5,-281.33 772.5,-281.33 772.5,-285.17 768.67,-289 764.83,-289"/>
<text text-anchor="middle" x="624.5" y="-273.8" font-family="Arial" font-size="14.00" fill="#c6c5fe">src/components/header/header.component.jsx</text>
</g>
<!-- src/App.js&#45;&gt;src/components/header/header.component.jsx -->
<g id="edge2" class="edge">
<title>src/App.js&#45;&gt;src/components/header/header.component.jsx</title>
<path fill="none" stroke="#757575" d="M319.2,-240.97C366.39,-246.63 449.76,-256.64 517.32,-264.75"/>
<polygon fill="#757575" stroke="#757575" points="517.25,-268.27 527.59,-265.99 518.08,-261.32 517.25,-268.27"/>
</g>
<!-- src/firebase/firebase.utils.js -->
<g id="node4" class="node">
<title>src/firebase/firebase.utils.js</title>
<path fill="none" stroke="#cfffac" d="M1608.83,-350C1608.83,-350 1445.17,-350 1445.17,-350 1441.33,-350 1437.5,-346.17 1437.5,-342.33 1437.5,-342.33 1437.5,-334.67 1437.5,-334.67 1437.5,-330.83 1441.33,-327 1445.17,-327 1445.17,-327 1608.83,-327 1608.83,-327 1612.67,-327 1616.5,-330.83 1616.5,-334.67 1616.5,-334.67 1616.5,-342.33 1616.5,-342.33 1616.5,-346.17 1612.67,-350 1608.83,-350"/>
<text text-anchor="middle" x="1527" y="-334.8" font-family="Arial" font-size="14.00" fill="#cfffac">src/firebase/firebase.utils.js</text>
</g>
<!-- src/App.js&#45;&gt;src/firebase/firebase.utils.js -->
<g id="edge3" class="edge">
<title>src/App.js&#45;&gt;src/firebase/firebase.utils.js</title>
<path fill="none" stroke="#757575" d="M302.59,-248.11C329.24,-262.54 377.55,-286.71 422,-298.5 794.95,-397.43 903.17,-347.57 1289,-343.5 1334.43,-343.02 1384.76,-342.03 1427.3,-341.05"/>
<polygon fill="#757575" stroke="#757575" points="1427.46,-344.54 1437.38,-340.81 1427.3,-337.55 1427.46,-344.54"/>
</g>
<!-- src/pages/homepage/homepage.component.jsx -->
<g id="node5" class="node">
<title>src/pages/homepage/homepage.component.jsx</title>
<path fill="none" stroke="#c6c5fe" d="M768.33,-146C768.33,-146 480.67,-146 480.67,-146 476.83,-146 473,-142.17 473,-138.33 473,-138.33 473,-130.67 473,-130.67 473,-126.83 476.83,-123 480.67,-123 480.67,-123 768.33,-123 768.33,-123 772.17,-123 776,-126.83 776,-130.67 776,-130.67 776,-138.33 776,-138.33 776,-142.17 772.17,-146 768.33,-146"/>
<text text-anchor="middle" x="624.5" y="-130.8" font-family="Arial" font-size="14.00" fill="#c6c5fe">src/pages/homepage/homepage.component.jsx</text>
</g>
<!-- src/App.js&#45;&gt;src/pages/homepage/homepage.component.jsx -->
<g id="edge4" class="edge">
<title>src/App.js&#45;&gt;src/pages/homepage/homepage.component.jsx</title>
<path fill="none" stroke="#757575" d="M319.34,-231.81C339.5,-228.57 364.57,-223.4 386,-215.5 403.17,-209.17 405.15,-202.64 422,-195.5 468.95,-175.62 524.57,-159.29 565.46,-148.55"/>
<polygon fill="#757575" stroke="#757575" points="566.46,-151.91 575.26,-146.01 564.7,-145.13 566.46,-151.91"/>
</g>
<!-- src/pages/shop/shop.component.jsx -->
<g id="node6" class="node">
<title>src/pages/shop/shop.component.jsx</title>
<path fill="none" stroke="#c6c5fe" d="M733.33,-64C733.33,-64 515.67,-64 515.67,-64 511.83,-64 508,-60.17 508,-56.33 508,-56.33 508,-48.67 508,-48.67 508,-44.83 511.83,-41 515.67,-41 515.67,-41 733.33,-41 733.33,-41 737.17,-41 741,-44.83 741,-48.67 741,-48.67 741,-56.33 741,-56.33 741,-60.17 737.17,-64 733.33,-64"/>
<text text-anchor="middle" x="624.5" y="-48.8" font-family="Arial" font-size="14.00" fill="#c6c5fe">src/pages/shop/shop.component.jsx</text>
</g>
<!-- src/App.js&#45;&gt;src/pages/shop/shop.component.jsx -->
<g id="edge5" class="edge">
<title>src/App.js&#45;&gt;src/pages/shop/shop.component.jsx</title>
<path fill="none" stroke="#757575" d="M319.14,-237.69C340.98,-236.45 367.79,-231.33 386,-215.5 422.29,-183.97 387.24,-146.71 422,-113.5 446.61,-89.99 479.97,-75.51 512.47,-66.6"/>
<polygon fill="#757575" stroke="#757575" points="513.7,-69.9 522.51,-64.01 511.96,-63.12 513.7,-69.9"/>
</g>
<!-- src/pages/sign&#45;in&#45;and&#45;sign&#45;up/sign&#45;in&#45;and&#45;sign&#45;up.component.jsx -->
<g id="node7" class="node">
<title>src/pages/sign&#45;in&#45;and&#45;sign&#45;up/sign&#45;in&#45;and&#45;sign&#45;up.component.jsx</title>
<path fill="none" stroke="#c6c5fe" d="M819.33,-228C819.33,-228 429.67,-228 429.67,-228 425.83,-228 422,-224.17 422,-220.33 422,-220.33 422,-212.67 422,-212.67 422,-208.83 425.83,-205 429.67,-205 429.67,-205 819.33,-205 819.33,-205 823.17,-205 827,-208.83 827,-212.67 827,-212.67 827,-220.33 827,-220.33 827,-224.17 823.17,-228 819.33,-228"/>
<text text-anchor="middle" x="624.5" y="-212.8" font-family="Arial" font-size="14.00" fill="#c6c5fe">src/pages/sign&#45;in&#45;and&#45;sign&#45;up/sign&#45;in&#45;and&#45;sign&#45;up.component.jsx</text>
</g>
<!-- src/App.js&#45;&gt;src/pages/sign&#45;in&#45;and&#45;sign&#45;up/sign&#45;in&#45;and&#45;sign&#45;up.component.jsx -->
<g id="edge6" class="edge">
<title>src/App.js&#45;&gt;src/pages/sign&#45;in&#45;and&#45;sign&#45;up/sign&#45;in&#45;and&#45;sign&#45;up.component.jsx</title>
<path fill="none" stroke="#757575" d="M319.2,-234.32C344.19,-232.86 379.33,-230.8 416.9,-228.6"/>
<polygon fill="#757575" stroke="#757575" points="417.25,-232.09 427.02,-228.01 416.84,-225.1 417.25,-232.09"/>
</g>
<!-- src/components/header/header.component.jsx&#45;&gt;src/firebase/firebase.utils.js -->
<g id="edge17" class="edge">
<title>src/components/header/header.component.jsx&#45;&gt;src/firebase/firebase.utils.js</title>
<path fill="none" stroke="#757575" d="M678.01,-289.07C725.94,-299.08 798.85,-312.94 863,-319.5 1062.37,-339.87 1297.08,-341.33 1426.94,-340.17"/>
<polygon fill="#757575" stroke="#757575" points="1427.29,-343.67 1437.26,-340.07 1427.22,-336.67 1427.29,-343.67"/>
</g>
<!-- src/assets/crown.svg -->
<g id="node9" class="node">
<title>src/assets/crown.svg</title>
<path fill="none" stroke="#cfffac" d="M1139.33,-310C1139.33,-310 1012.67,-310 1012.67,-310 1008.83,-310 1005,-306.17 1005,-302.33 1005,-302.33 1005,-294.67 1005,-294.67 1005,-290.83 1008.83,-287 1012.67,-287 1012.67,-287 1139.33,-287 1139.33,-287 1143.17,-287 1147,-290.83 1147,-294.67 1147,-294.67 1147,-302.33 1147,-302.33 1147,-306.17 1143.17,-310 1139.33,-310"/>
<text text-anchor="middle" x="1076" y="-294.8" font-family="Arial" font-size="14.00" fill="#cfffac">src/assets/crown.svg</text>
</g>
<!-- src/components/header/header.component.jsx&#45;&gt;src/assets/crown.svg -->
<g id="edge15" class="edge">
<title>src/components/header/header.component.jsx&#45;&gt;src/assets/crown.svg</title>
<path fill="none" stroke="#757575" d="M772.68,-284.38C846.54,-287.83 933.13,-291.87 994.66,-294.75"/>
<polygon fill="#757575" stroke="#757575" points="994.55,-298.25 1004.7,-295.22 994.87,-291.25 994.55,-298.25"/>
</g>
<!-- src/components/header/header.styles.scss -->
<g id="node21" class="node">
<title>src/components/header/header.styles.scss</title>
<path fill="none" stroke="#cfffac" d="M1204.83,-269C1204.83,-269 947.17,-269 947.17,-269 943.33,-269 939.5,-265.17 939.5,-261.33 939.5,-261.33 939.5,-253.67 939.5,-253.67 939.5,-249.83 943.33,-246 947.17,-246 947.17,-246 1204.83,-246 1204.83,-246 1208.67,-246 1212.5,-249.83 1212.5,-253.67 1212.5,-253.67 1212.5,-261.33 1212.5,-261.33 1212.5,-265.17 1208.67,-269 1204.83,-269"/>
<text text-anchor="middle" x="1076" y="-253.8" font-family="Arial" font-size="14.00" fill="#cfffac">src/components/header/header.styles.scss</text>
</g>
<!-- src/components/header/header.component.jsx&#45;&gt;src/components/header/header.styles.scss -->
<g id="edge16" class="edge">
<title>src/components/header/header.component.jsx&#45;&gt;src/components/header/header.styles.scss</title>
<path fill="none" stroke="#757575" d="M772.68,-270.95C822.87,-268.72 878.93,-266.22 929.02,-264"/>
<polygon fill="#757575" stroke="#757575" points="929.45,-267.48 939.28,-263.54 929.14,-260.49 929.45,-267.48"/>
</g>
<!-- src/components/directory/directory.component.jsx -->
<g id="node16" class="node">
<title>src/components/directory/directory.component.jsx</title>
<path fill="none" stroke="#c6c5fe" d="M1225.33,-146C1225.33,-146 926.67,-146 926.67,-146 922.83,-146 919,-142.17 919,-138.33 919,-138.33 919,-130.67 919,-130.67 919,-126.83 922.83,-123 926.67,-123 926.67,-123 1225.33,-123 1225.33,-123 1229.17,-123 1233,-126.83 1233,-130.67 1233,-130.67 1233,-138.33 1233,-138.33 1233,-142.17 1229.17,-146 1225.33,-146"/>
<text text-anchor="middle" x="1076" y="-130.8" font-family="Arial" font-size="14.00" fill="#c6c5fe">src/components/directory/directory.component.jsx</text>
</g>
<!-- src/pages/homepage/homepage.component.jsx&#45;&gt;src/components/directory/directory.component.jsx -->
<g id="edge27" class="edge">
<title>src/pages/homepage/homepage.component.jsx&#45;&gt;src/components/directory/directory.component.jsx</title>
<path fill="none" stroke="#757575" d="M776.11,-134.5C818.72,-134.5 865.33,-134.5 908.8,-134.5"/>
<polygon fill="#757575" stroke="#757575" points="908.89,-138 918.89,-134.5 908.89,-131 908.89,-138"/>
</g>
<!-- src/pages/homepage/homepage.style.scss -->
<g id="node29" class="node">
<title>src/pages/homepage/homepage.style.scss</title>
<path fill="none" stroke="#cfffac" d="M1205.33,-105C1205.33,-105 946.67,-105 946.67,-105 942.83,-105 939,-101.17 939,-97.33 939,-97.33 939,-89.67 939,-89.67 939,-85.83 942.83,-82 946.67,-82 946.67,-82 1205.33,-82 1205.33,-82 1209.17,-82 1213,-85.83 1213,-89.67 1213,-89.67 1213,-97.33 1213,-97.33 1213,-101.17 1209.17,-105 1205.33,-105"/>
<text text-anchor="middle" x="1076" y="-89.8" font-family="Arial" font-size="14.00" fill="#cfffac">src/pages/homepage/homepage.style.scss</text>
</g>
<!-- src/pages/homepage/homepage.component.jsx&#45;&gt;src/pages/homepage/homepage.style.scss -->
<g id="edge28" class="edge">
<title>src/pages/homepage/homepage.component.jsx&#45;&gt;src/pages/homepage/homepage.style.scss</title>
<path fill="none" stroke="#757575" d="M751.61,-123C809.79,-117.69 878.97,-111.38 938.39,-105.96"/>
<polygon fill="#757575" stroke="#757575" points="938.96,-109.42 948.6,-105.03 938.33,-102.45 938.96,-109.42"/>
</g>
<!-- src/components/collection&#45;preview/collection&#45;preview.component.jsx -->
<g id="node12" class="node">
<title>src/components/collection&#45;preview/collection&#45;preview.component.jsx</title>
<path fill="none" stroke="#c6c5fe" d="M1281.33,-64C1281.33,-64 870.67,-64 870.67,-64 866.83,-64 863,-60.17 863,-56.33 863,-56.33 863,-48.67 863,-48.67 863,-44.83 866.83,-41 870.67,-41 870.67,-41 1281.33,-41 1281.33,-41 1285.17,-41 1289,-44.83 1289,-48.67 1289,-48.67 1289,-56.33 1289,-56.33 1289,-60.17 1285.17,-64 1281.33,-64"/>
<text text-anchor="middle" x="1076" y="-48.8" font-family="Arial" font-size="14.00" fill="#c6c5fe">src/components/collection&#45;preview/collection&#45;preview.component.jsx</text>
</g>
<!-- src/pages/shop/shop.component.jsx&#45;&gt;src/components/collection&#45;preview/collection&#45;preview.component.jsx -->
<g id="edge29" class="edge">
<title>src/pages/shop/shop.component.jsx&#45;&gt;src/components/collection&#45;preview/collection&#45;preview.component.jsx</title>
<path fill="none" stroke="#757575" d="M741.26,-52.5C775.4,-52.5 813.98,-52.5 852.47,-52.5"/>
<polygon fill="#757575" stroke="#757575" points="852.78,-56 862.78,-52.5 852.78,-49 852.78,-56"/>
</g>
<!-- src/pages/shop/shop.data.js -->
<g id="node30" class="node">
<title>src/pages/shop/shop.data.js</title>
<path fill="none" stroke="#cfffac" d="M1160.83,-23C1160.83,-23 991.17,-23 991.17,-23 987.33,-23 983.5,-19.17 983.5,-15.33 983.5,-15.33 983.5,-7.67 983.5,-7.67 983.5,-3.83 987.33,0 991.17,0 991.17,0 1160.83,0 1160.83,0 1164.67,0 1168.5,-3.83 1168.5,-7.67 1168.5,-7.67 1168.5,-15.33 1168.5,-15.33 1168.5,-19.17 1164.67,-23 1160.83,-23"/>
<text text-anchor="middle" x="1076" y="-7.8" font-family="Arial" font-size="14.00" fill="#cfffac">src/pages/shop/shop.data.js</text>
</g>
<!-- src/pages/shop/shop.component.jsx&#45;&gt;src/pages/shop/shop.data.js -->
<g id="edge30" class="edge">
<title>src/pages/shop/shop.component.jsx&#45;&gt;src/pages/shop/shop.data.js</title>
<path fill="none" stroke="#757575" d="M741.26,-41.94C813.03,-35.39 904.38,-27.06 973.35,-20.77"/>
<polygon fill="#757575" stroke="#757575" points="973.72,-24.25 983.36,-19.86 973.09,-17.28 973.72,-24.25"/>
</g>
<!-- src/components/sign&#45;in/sign&#45;in.component.jsx -->
<g id="node23" class="node">
<title>src/components/sign&#45;in/sign&#45;in.component.jsx</title>
<path fill="none" stroke="#c6c5fe" d="M1213.83,-187C1213.83,-187 938.17,-187 938.17,-187 934.33,-187 930.5,-183.17 930.5,-179.33 930.5,-179.33 930.5,-171.67 930.5,-171.67 930.5,-167.83 934.33,-164 938.17,-164 938.17,-164 1213.83,-164 1213.83,-164 1217.67,-164 1221.5,-167.83 1221.5,-171.67 1221.5,-171.67 1221.5,-179.33 1221.5,-179.33 1221.5,-183.17 1217.67,-187 1213.83,-187"/>
<text text-anchor="middle" x="1076" y="-171.8" font-family="Arial" font-size="14.00" fill="#c6c5fe">src/components/sign&#45;in/sign&#45;in.component.jsx</text>
</g>
<!-- src/pages/sign&#45;in&#45;and&#45;sign&#45;up/sign&#45;in&#45;and&#45;sign&#45;up.component.jsx&#45;&gt;src/components/sign&#45;in/sign&#45;in.component.jsx -->
<g id="edge31" class="edge">
<title>src/pages/sign&#45;in&#45;and&#45;sign&#45;up/sign&#45;in&#45;and&#45;sign&#45;up.component.jsx&#45;&gt;src/components/sign&#45;in/sign&#45;in.component.jsx</title>
<path fill="none" stroke="#757575" d="M751.61,-205C809.79,-199.69 878.97,-193.38 938.39,-187.96"/>
<polygon fill="#757575" stroke="#757575" points="938.96,-191.42 948.6,-187.03 938.33,-184.45 938.96,-191.42"/>
</g>
<!-- src/pages/sign&#45;in&#45;and&#45;sign&#45;up/sign&#45;in&#45;and&#45;sign&#45;up.styles.scss -->
<g id="node31" class="node">
<title>src/pages/sign&#45;in&#45;and&#45;sign&#45;up/sign&#45;in&#45;and&#45;sign&#45;up.styles.scss</title>
<path fill="none" stroke="#cfffac" d="M1259.83,-228C1259.83,-228 892.17,-228 892.17,-228 888.33,-228 884.5,-224.17 884.5,-220.33 884.5,-220.33 884.5,-212.67 884.5,-212.67 884.5,-208.83 888.33,-205 892.17,-205 892.17,-205 1259.83,-205 1259.83,-205 1263.67,-205 1267.5,-208.83 1267.5,-212.67 1267.5,-212.67 1267.5,-220.33 1267.5,-220.33 1267.5,-224.17 1263.67,-228 1259.83,-228"/>
<text text-anchor="middle" x="1076" y="-212.8" font-family="Arial" font-size="14.00" fill="#cfffac">src/pages/sign&#45;in&#45;and&#45;sign&#45;up/sign&#45;in&#45;and&#45;sign&#45;up.styles.scss</text>
</g>
<!-- src/pages/sign&#45;in&#45;and&#45;sign&#45;up/sign&#45;in&#45;and&#45;sign&#45;up.component.jsx&#45;&gt;src/pages/sign&#45;in&#45;and&#45;sign&#45;up/sign&#45;in&#45;and&#45;sign&#45;up.styles.scss -->
<g id="edge32" class="edge">
<title>src/pages/sign&#45;in&#45;and&#45;sign&#45;up/sign&#45;in&#45;and&#45;sign&#45;up.component.jsx&#45;&gt;src/pages/sign&#45;in&#45;and&#45;sign&#45;up/sign&#45;in&#45;and&#45;sign&#45;up.styles.scss</title>
<path fill="none" stroke="#757575" d="M827.24,-216.5C842.84,-216.5 858.6,-216.5 874.19,-216.5"/>
<polygon fill="#757575" stroke="#757575" points="874.42,-220 884.42,-216.5 874.42,-213 874.42,-220"/>
</g>
<!-- src/App.test.js -->
<g id="node8" class="node">
<title>src/App.test.js</title>
<path fill="none" stroke="#c6c5fe" d="M112.83,-248C112.83,-248 27.17,-248 27.17,-248 23.33,-248 19.5,-244.17 19.5,-240.33 19.5,-240.33 19.5,-232.67 19.5,-232.67 19.5,-228.83 23.33,-225 27.17,-225 27.17,-225 112.83,-225 112.83,-225 116.67,-225 120.5,-228.83 120.5,-232.67 120.5,-232.67 120.5,-240.33 120.5,-240.33 120.5,-244.17 116.67,-248 112.83,-248"/>
<text text-anchor="middle" x="70" y="-232.8" font-family="Arial" font-size="14.00" fill="#c6c5fe">src/App.test.js</text>
</g>
<!-- src/App.test.js&#45;&gt;src/App.js -->
<g id="edge7" class="edge">
<title>src/App.test.js&#45;&gt;src/App.js</title>
<path fill="none" stroke="#757575" d="M120.53,-236.5C154.55,-236.5 199.44,-236.5 232.92,-236.5"/>
<polygon fill="#757575" stroke="#757575" points="232.92,-240 242.92,-236.5 232.92,-233 232.92,-240"/>
</g>
<!-- src/components/collection&#45;item/collection&#45;item.component.jsx -->
<g id="node10" class="node">
<title>src/components/collection&#45;item/collection&#45;item.component.jsx</title>
<path fill="none" stroke="#c6c5fe" d="M1712.33,-64C1712.33,-64 1341.67,-64 1341.67,-64 1337.83,-64 1334,-60.17 1334,-56.33 1334,-56.33 1334,-48.67 1334,-48.67 1334,-44.83 1337.83,-41 1341.67,-41 1341.67,-41 1712.33,-41 1712.33,-41 1716.17,-41 1720,-44.83 1720,-48.67 1720,-48.67 1720,-56.33 1720,-56.33 1720,-60.17 1716.17,-64 1712.33,-64"/>
<text text-anchor="middle" x="1527" y="-48.8" font-family="Arial" font-size="14.00" fill="#c6c5fe">src/components/collection&#45;item/collection&#45;item.component.jsx</text>
</g>
<!-- src/components/collection&#45;item/collection&#45;item.styles.scss -->
<g id="node11" class="node">
<title>src/components/collection&#45;item/collection&#45;item.styles.scss</title>
<path fill="none" stroke="#cfffac" d="M2120.33,-64C2120.33,-64 1772.67,-64 1772.67,-64 1768.83,-64 1765,-60.17 1765,-56.33 1765,-56.33 1765,-48.67 1765,-48.67 1765,-44.83 1768.83,-41 1772.67,-41 1772.67,-41 2120.33,-41 2120.33,-41 2124.17,-41 2128,-44.83 2128,-48.67 2128,-48.67 2128,-56.33 2128,-56.33 2128,-60.17 2124.17,-64 2120.33,-64"/>
<text text-anchor="middle" x="1946.5" y="-48.8" font-family="Arial" font-size="14.00" fill="#cfffac">src/components/collection&#45;item/collection&#45;item.styles.scss</text>
</g>
<!-- src/components/collection&#45;item/collection&#45;item.component.jsx&#45;&gt;src/components/collection&#45;item/collection&#45;item.styles.scss -->
<g id="edge8" class="edge">
<title>src/components/collection&#45;item/collection&#45;item.component.jsx&#45;&gt;src/components/collection&#45;item/collection&#45;item.styles.scss</title>
<path fill="none" stroke="#757575" d="M1720.25,-52.5C1731.76,-52.5 1743.33,-52.5 1754.83,-52.5"/>
<polygon fill="#757575" stroke="#757575" points="1754.91,-56 1764.91,-52.5 1754.91,-49 1754.91,-56"/>
</g>
<!-- src/components/collection&#45;preview/collection&#45;preview.component.jsx&#45;&gt;src/components/collection&#45;item/collection&#45;item.component.jsx -->
<g id="edge9" class="edge">
<title>src/components/collection&#45;preview/collection&#45;preview.component.jsx&#45;&gt;src/components/collection&#45;item/collection&#45;item.component.jsx</title>
<path fill="none" stroke="#757575" d="M1289.01,-52.5C1300.6,-52.5 1312.24,-52.5 1323.79,-52.5"/>
<polygon fill="#757575" stroke="#757575" points="1323.92,-56 1333.92,-52.5 1323.92,-49 1323.92,-56"/>
</g>
<!-- src/components/collection&#45;preview/collection&#45;preview.styles.scss -->
<g id="node13" class="node">
<title>src/components/collection&#45;preview/collection&#45;preview.styles.scss</title>
<path fill="none" stroke="#cfffac" d="M1721.33,-23C1721.33,-23 1332.67,-23 1332.67,-23 1328.83,-23 1325,-19.17 1325,-15.33 1325,-15.33 1325,-7.67 1325,-7.67 1325,-3.83 1328.83,0 1332.67,0 1332.67,0 1721.33,0 1721.33,0 1725.17,0 1729,-3.83 1729,-7.67 1729,-7.67 1729,-15.33 1729,-15.33 1729,-19.17 1725.17,-23 1721.33,-23"/>
<text text-anchor="middle" x="1527" y="-7.8" font-family="Arial" font-size="14.00" fill="#cfffac">src/components/collection&#45;preview/collection&#45;preview.styles.scss</text>
</g>
<!-- src/components/collection&#45;preview/collection&#45;preview.component.jsx&#45;&gt;src/components/collection&#45;preview/collection&#45;preview.styles.scss -->
<g id="edge10" class="edge">
<title>src/components/collection&#45;preview/collection&#45;preview.component.jsx&#45;&gt;src/components/collection&#45;preview/collection&#45;preview.styles.scss</title>
<path fill="none" stroke="#757575" d="M1202.97,-41C1261.08,-35.69 1330.19,-29.38 1389.54,-23.96"/>
<polygon fill="#757575" stroke="#757575" points="1390.1,-27.42 1399.74,-23.03 1389.47,-20.45 1390.1,-27.42"/>
</g>
<!-- src/components/custom&#45;button/custom&#45;button.component.jsx -->
<g id="node14" class="node">
<title>src/components/custom&#45;button/custom&#45;button.component.jsx</title>
<path fill="none" stroke="#c6c5fe" d="M1711.33,-269C1711.33,-269 1342.67,-269 1342.67,-269 1338.83,-269 1335,-265.17 1335,-261.33 1335,-261.33 1335,-253.67 1335,-253.67 1335,-249.83 1338.83,-246 1342.67,-246 1342.67,-246 1711.33,-246 1711.33,-246 1715.17,-246 1719,-249.83 1719,-253.67 1719,-253.67 1719,-261.33 1719,-261.33 1719,-265.17 1715.17,-269 1711.33,-269"/>
<text text-anchor="middle" x="1527" y="-253.8" font-family="Arial" font-size="14.00" fill="#c6c5fe">src/components/custom&#45;button/custom&#45;button.component.jsx</text>
</g>
<!-- src/components/custom&#45;button/custom&#45;button.styles.scss -->
<g id="node15" class="node">
<title>src/components/custom&#45;button/custom&#45;button.styles.scss</title>
<path fill="none" stroke="#cfffac" d="M2119.83,-269C2119.83,-269 1773.17,-269 1773.17,-269 1769.33,-269 1765.5,-265.17 1765.5,-261.33 1765.5,-261.33 1765.5,-253.67 1765.5,-253.67 1765.5,-249.83 1769.33,-246 1773.17,-246 1773.17,-246 2119.83,-246 2119.83,-246 2123.67,-246 2127.5,-249.83 2127.5,-253.67 2127.5,-253.67 2127.5,-261.33 2127.5,-261.33 2127.5,-265.17 2123.67,-269 2119.83,-269"/>
<text text-anchor="middle" x="1946.5" y="-253.8" font-family="Arial" font-size="14.00" fill="#cfffac">src/components/custom&#45;button/custom&#45;button.styles.scss</text>
</g>
<!-- src/components/custom&#45;button/custom&#45;button.component.jsx&#45;&gt;src/components/custom&#45;button/custom&#45;button.styles.scss -->
<g id="edge11" class="edge">
<title>src/components/custom&#45;button/custom&#45;button.component.jsx&#45;&gt;src/components/custom&#45;button/custom&#45;button.styles.scss</title>
<path fill="none" stroke="#757575" d="M1719.03,-257.5C1731.11,-257.5 1743.27,-257.5 1755.34,-257.5"/>
<polygon fill="#757575" stroke="#757575" points="1755.46,-261 1765.46,-257.5 1755.46,-254 1755.46,-261"/>
</g>
<!-- src/components/directory/directory.styles.scss -->
<g id="node17" class="node">
<title>src/components/directory/directory.styles.scss</title>
<path fill="none" stroke="#cfffac" d="M1665.33,-146C1665.33,-146 1388.67,-146 1388.67,-146 1384.83,-146 1381,-142.17 1381,-138.33 1381,-138.33 1381,-130.67 1381,-130.67 1381,-126.83 1384.83,-123 1388.67,-123 1388.67,-123 1665.33,-123 1665.33,-123 1669.17,-123 1673,-126.83 1673,-130.67 1673,-130.67 1673,-138.33 1673,-138.33 1673,-142.17 1669.17,-146 1665.33,-146"/>
<text text-anchor="middle" x="1527" y="-130.8" font-family="Arial" font-size="14.00" fill="#cfffac">src/components/directory/directory.styles.scss</text>
</g>
<!-- src/components/directory/directory.component.jsx&#45;&gt;src/components/directory/directory.styles.scss -->
<g id="edge12" class="edge">
<title>src/components/directory/directory.component.jsx&#45;&gt;src/components/directory/directory.styles.scss</title>
<path fill="none" stroke="#757575" d="M1233.09,-134.5C1277.7,-134.5 1326.29,-134.5 1370.84,-134.5"/>
<polygon fill="#757575" stroke="#757575" points="1370.87,-138 1380.87,-134.5 1370.87,-131 1370.87,-138"/>
</g>
<!-- src/components/menu&#45;item/menu&#45;item.component.jsx -->
<g id="node18" class="node">
<title>src/components/menu&#45;item/menu&#45;item.component.jsx</title>
<path fill="none" stroke="#c6c5fe" d="M1690.33,-105C1690.33,-105 1363.67,-105 1363.67,-105 1359.83,-105 1356,-101.17 1356,-97.33 1356,-97.33 1356,-89.67 1356,-89.67 1356,-85.83 1359.83,-82 1363.67,-82 1363.67,-82 1690.33,-82 1690.33,-82 1694.17,-82 1698,-85.83 1698,-89.67 1698,-89.67 1698,-97.33 1698,-97.33 1698,-101.17 1694.17,-105 1690.33,-105"/>
<text text-anchor="middle" x="1527" y="-89.8" font-family="Arial" font-size="14.00" fill="#c6c5fe">src/components/menu&#45;item/menu&#45;item.component.jsx</text>
</g>
<!-- src/components/directory/directory.component.jsx&#45;&gt;src/components/menu&#45;item/menu&#45;item.component.jsx -->
<g id="edge13" class="edge">
<title>src/components/directory/directory.component.jsx&#45;&gt;src/components/menu&#45;item/menu&#45;item.component.jsx</title>
<path fill="none" stroke="#757575" d="M1202.97,-123C1261.08,-117.69 1330.19,-111.38 1389.54,-105.96"/>
<polygon fill="#757575" stroke="#757575" points="1390.1,-109.42 1399.74,-105.03 1389.47,-102.45 1390.1,-109.42"/>
</g>
<!-- src/components/menu&#45;item/menu&#45;item.styles.scss -->
<g id="node22" class="node">
<title>src/components/menu&#45;item/menu&#45;item.styles.scss</title>
<path fill="none" stroke="#cfffac" d="M2098.83,-105C2098.83,-105 1794.17,-105 1794.17,-105 1790.33,-105 1786.5,-101.17 1786.5,-97.33 1786.5,-97.33 1786.5,-89.67 1786.5,-89.67 1786.5,-85.83 1790.33,-82 1794.17,-82 1794.17,-82 2098.83,-82 2098.83,-82 2102.67,-82 2106.5,-85.83 2106.5,-89.67 2106.5,-89.67 2106.5,-97.33 2106.5,-97.33 2106.5,-101.17 2102.67,-105 2098.83,-105"/>
<text text-anchor="middle" x="1946.5" y="-89.8" font-family="Arial" font-size="14.00" fill="#cfffac">src/components/menu&#45;item/menu&#45;item.styles.scss</text>
</g>
<!-- src/components/menu&#45;item/menu&#45;item.component.jsx&#45;&gt;src/components/menu&#45;item/menu&#45;item.styles.scss -->
<g id="edge18" class="edge">
<title>src/components/menu&#45;item/menu&#45;item.component.jsx&#45;&gt;src/components/menu&#45;item/menu&#45;item.styles.scss</title>
<path fill="none" stroke="#757575" d="M1698.11,-93.5C1723.81,-93.5 1750.31,-93.5 1775.99,-93.5"/>
<polygon fill="#757575" stroke="#757575" points="1776.17,-97 1786.17,-93.5 1776.17,-90 1776.17,-97"/>
</g>
<!-- src/components/form&#45;input/form&#45;input.component.jsx -->
<g id="node19" class="node">
<title>src/components/form&#45;input/form&#45;input.component.jsx</title>
<path fill="none" stroke="#c6c5fe" d="M1686.83,-228C1686.83,-228 1367.17,-228 1367.17,-228 1363.33,-228 1359.5,-224.17 1359.5,-220.33 1359.5,-220.33 1359.5,-212.67 1359.5,-212.67 1359.5,-208.83 1363.33,-205 1367.17,-205 1367.17,-205 1686.83,-205 1686.83,-205 1690.67,-205 1694.5,-208.83 1694.5,-212.67 1694.5,-212.67 1694.5,-220.33 1694.5,-220.33 1694.5,-224.17 1690.67,-228 1686.83,-228"/>
<text text-anchor="middle" x="1527" y="-212.8" font-family="Arial" font-size="14.00" fill="#c6c5fe">src/components/form&#45;input/form&#45;input.component.jsx</text>
</g>
<!-- src/components/form&#45;input/form&#45;input.styles.scss -->
<g id="node20" class="node">
<title>src/components/form&#45;input/form&#45;input.styles.scss</title>
<path fill="none" stroke="#cfffac" d="M2094.83,-228C2094.83,-228 1798.17,-228 1798.17,-228 1794.33,-228 1790.5,-224.17 1790.5,-220.33 1790.5,-220.33 1790.5,-212.67 1790.5,-212.67 1790.5,-208.83 1794.33,-205 1798.17,-205 1798.17,-205 2094.83,-205 2094.83,-205 2098.67,-205 2102.5,-208.83 2102.5,-212.67 2102.5,-212.67 2102.5,-220.33 2102.5,-220.33 2102.5,-224.17 2098.67,-228 2094.83,-228"/>
<text text-anchor="middle" x="1946.5" y="-212.8" font-family="Arial" font-size="14.00" fill="#cfffac">src/components/form&#45;input/form&#45;input.styles.scss</text>
</g>
<!-- src/components/form&#45;input/form&#45;input.component.jsx&#45;&gt;src/components/form&#45;input/form&#45;input.styles.scss -->
<g id="edge14" class="edge">
<title>src/components/form&#45;input/form&#45;input.component.jsx&#45;&gt;src/components/form&#45;input/form&#45;input.styles.scss</title>
<path fill="none" stroke="#757575" d="M1694.51,-216.5C1722.64,-216.5 1751.84,-216.5 1779.95,-216.5"/>
<polygon fill="#757575" stroke="#757575" points="1780.26,-220 1790.26,-216.5 1780.26,-213 1780.26,-220"/>
</g>
<!-- src/components/sign&#45;in/sign&#45;in.component.jsx&#45;&gt;src/firebase/firebase.utils.js -->
<g id="edge22" class="edge">
<title>src/components/sign&#45;in/sign&#45;in.component.jsx&#45;&gt;src/firebase/firebase.utils.js</title>
<path fill="none" stroke="#757575" d="M1221.64,-168.56C1245.78,-172.96 1269.33,-181.22 1289,-195.5 1321.54,-219.12 1294.93,-251.81 1325,-278.5 1353.32,-303.63 1391.79,-318.25 1427.5,-326.74"/>
<polygon fill="#757575" stroke="#757575" points="1426.96,-330.21 1437.49,-328.98 1428.49,-323.38 1426.96,-330.21"/>
</g>
<!-- src/components/sign&#45;in/sign&#45;in.component.jsx&#45;&gt;src/components/custom&#45;button/custom&#45;button.component.jsx -->
<g id="edge19" class="edge">
<title>src/components/sign&#45;in/sign&#45;in.component.jsx&#45;&gt;src/components/custom&#45;button/custom&#45;button.component.jsx</title>
<path fill="none" stroke="#757575" d="M1221.71,-174.45C1245.07,-178.37 1268.34,-184.95 1289,-195.5 1310.6,-206.53 1303.46,-225.36 1325,-236.5 1329.01,-238.57 1333.12,-240.49 1337.32,-242.26"/>
<polygon fill="#757575" stroke="#757575" points="1336.05,-245.52 1346.64,-245.92 1338.6,-239.01 1336.05,-245.52"/>
</g>
<!-- src/components/sign&#45;in/sign&#45;in.component.jsx&#45;&gt;src/components/form&#45;input/form&#45;input.component.jsx -->
<g id="edge20" class="edge">
<title>src/components/sign&#45;in/sign&#45;in.component.jsx&#45;&gt;src/components/form&#45;input/form&#45;input.component.jsx</title>
<path fill="none" stroke="#757575" d="M1202.97,-187C1261.08,-192.31 1330.19,-198.62 1389.54,-204.04"/>
<polygon fill="#757575" stroke="#757575" points="1389.47,-207.55 1399.74,-204.97 1390.1,-200.58 1389.47,-207.55"/>
</g>
<!-- src/components/sign&#45;in/sign&#45;in.styles.scss -->
<g id="node24" class="node">
<title>src/components/sign&#45;in/sign&#45;in.styles.scss</title>
<path fill="none" stroke="#cfffac" d="M1653.83,-187C1653.83,-187 1400.17,-187 1400.17,-187 1396.33,-187 1392.5,-183.17 1392.5,-179.33 1392.5,-179.33 1392.5,-171.67 1392.5,-171.67 1392.5,-167.83 1396.33,-164 1400.17,-164 1400.17,-164 1653.83,-164 1653.83,-164 1657.67,-164 1661.5,-167.83 1661.5,-171.67 1661.5,-171.67 1661.5,-179.33 1661.5,-179.33 1661.5,-183.17 1657.67,-187 1653.83,-187"/>
<text text-anchor="middle" x="1527" y="-171.8" font-family="Arial" font-size="14.00" fill="#cfffac">src/components/sign&#45;in/sign&#45;in.styles.scss</text>
</g>
<!-- src/components/sign&#45;in/sign&#45;in.component.jsx&#45;&gt;src/components/sign&#45;in/sign&#45;in.styles.scss -->
<g id="edge21" class="edge">
<title>src/components/sign&#45;in/sign&#45;in.component.jsx&#45;&gt;src/components/sign&#45;in/sign&#45;in.styles.scss</title>
<path fill="none" stroke="#757575" d="M1221.54,-175.5C1272.97,-175.5 1330.84,-175.5 1382.21,-175.5"/>
<polygon fill="#757575" stroke="#757575" points="1382.4,-179 1392.4,-175.5 1382.4,-172 1382.4,-179"/>
</g>
<!-- src/index.css -->
<g id="node25" class="node">
<title>src/index.css</title>
<path fill="none" stroke="#cfffac" d="M320.83,-166C320.83,-166 241.17,-166 241.17,-166 237.33,-166 233.5,-162.17 233.5,-158.33 233.5,-158.33 233.5,-150.67 233.5,-150.67 233.5,-146.83 237.33,-143 241.17,-143 241.17,-143 320.83,-143 320.83,-143 324.67,-143 328.5,-146.83 328.5,-150.67 328.5,-150.67 328.5,-158.33 328.5,-158.33 328.5,-162.17 324.67,-166 320.83,-166"/>
<text text-anchor="middle" x="281" y="-150.8" font-family="Arial" font-size="14.00" fill="#cfffac">src/index.css</text>
</g>
<!-- src/index.js -->
<g id="node26" class="node">
<title>src/index.js</title>
<path fill="none" stroke="#c6c5fe" d="M104.33,-187C104.33,-187 35.67,-187 35.67,-187 31.83,-187 28,-183.17 28,-179.33 28,-179.33 28,-171.67 28,-171.67 28,-167.83 31.83,-164 35.67,-164 35.67,-164 104.33,-164 104.33,-164 108.17,-164 112,-167.83 112,-171.67 112,-171.67 112,-179.33 112,-179.33 112,-183.17 108.17,-187 104.33,-187"/>
<text text-anchor="middle" x="70" y="-171.8" font-family="Arial" font-size="14.00" fill="#c6c5fe">src/index.js</text>
</g>
<!-- src/index.js&#45;&gt;src/App.js -->
<g id="edge23" class="edge">
<title>src/index.js&#45;&gt;src/App.js</title>
<path fill="none" stroke="#757575" d="M97.78,-187.11C118.75,-195.85 148.83,-207.64 176,-215.5 194.28,-220.79 214.74,-225.23 232.65,-228.64"/>
<polygon fill="#757575" stroke="#757575" points="232.11,-232.1 242.58,-230.48 233.38,-225.22 232.11,-232.1"/>
</g>
<!-- src/index.js&#45;&gt;src/index.css -->
<g id="edge24" class="edge">
<title>src/index.js&#45;&gt;src/index.css</title>
<path fill="none" stroke="#757575" d="M112.29,-171.35C144.02,-168.16 188.19,-163.72 223.24,-160.2"/>
<polygon fill="#757575" stroke="#757575" points="223.73,-163.67 233.33,-159.19 223.03,-156.71 223.73,-163.67"/>
</g>
<!-- src/reportWebVitals.js -->
<g id="node27" class="node">
<title>src/reportWebVitals.js</title>
<path fill="none" stroke="#cfffac" d="M347.33,-125C347.33,-125 214.67,-125 214.67,-125 210.83,-125 207,-121.17 207,-117.33 207,-117.33 207,-109.67 207,-109.67 207,-105.83 210.83,-102 214.67,-102 214.67,-102 347.33,-102 347.33,-102 351.17,-102 355,-105.83 355,-109.67 355,-109.67 355,-117.33 355,-117.33 355,-121.17 351.17,-125 347.33,-125"/>
<text text-anchor="middle" x="281" y="-109.8" font-family="Arial" font-size="14.00" fill="#cfffac">src/reportWebVitals.js</text>
</g>
<!-- src/index.js&#45;&gt;src/reportWebVitals.js -->
<g id="edge25" class="edge">
<title>src/index.js&#45;&gt;src/reportWebVitals.js</title>
<path fill="none" stroke="#757575" d="M95.98,-163.94C116.96,-154.61 147.93,-141.73 176,-133.5 183.78,-131.22 191.96,-129.13 200.18,-127.24"/>
<polygon fill="#757575" stroke="#757575" points="201.18,-130.6 210.19,-125.02 199.67,-123.76 201.18,-130.6"/>
</g>
<!-- src/serviceWorkerRegistration.js -->
<g id="node28" class="node">
<title>src/serviceWorkerRegistration.js</title>
<path fill="none" stroke="#cfffac" d="M378.33,-207C378.33,-207 183.67,-207 183.67,-207 179.83,-207 176,-203.17 176,-199.33 176,-199.33 176,-191.67 176,-191.67 176,-187.83 179.83,-184 183.67,-184 183.67,-184 378.33,-184 378.33,-184 382.17,-184 386,-187.83 386,-191.67 386,-191.67 386,-199.33 386,-199.33 386,-203.17 382.17,-207 378.33,-207"/>
<text text-anchor="middle" x="281" y="-191.8" font-family="Arial" font-size="14.00" fill="#cfffac">src/serviceWorkerRegistration.js</text>
</g>
<!-- src/index.js&#45;&gt;src/serviceWorkerRegistration.js -->
<g id="edge26" class="edge">
<title>src/index.js&#45;&gt;src/serviceWorkerRegistration.js</title>
<path fill="none" stroke="#757575" d="M112.29,-179.45C127.99,-180.95 146.75,-182.75 165.93,-184.58"/>
<polygon fill="#757575" stroke="#757575" points="165.7,-188.08 175.99,-185.55 166.37,-181.11 165.7,-188.08"/>
</g>
<!-- src/service&#45;worker.js -->
<g id="node32" class="node">
<title>src/service&#45;worker.js</title>
<path fill="none" stroke="#cfffac" d="M132.33,-289C132.33,-289 7.67,-289 7.67,-289 3.83,-289 0,-285.17 0,-281.33 0,-281.33 0,-273.67 0,-273.67 0,-269.83 3.83,-266 7.67,-266 7.67,-266 132.33,-266 132.33,-266 136.17,-266 140,-269.83 140,-273.67 140,-273.67 140,-281.33 140,-281.33 140,-285.17 136.17,-289 132.33,-289"/>
<text text-anchor="middle" x="70" y="-273.8" font-family="Arial" font-size="14.00" fill="#cfffac">src/service&#45;worker.js</text>
</g>
<!-- src/setupTests.js -->
<g id="node33" class="node">
<title>src/setupTests.js</title>
<path fill="none" stroke="#cfffac" d="M120.33,-330C120.33,-330 19.67,-330 19.67,-330 15.83,-330 12,-326.17 12,-322.33 12,-322.33 12,-314.67 12,-314.67 12,-310.83 15.83,-307 19.67,-307 19.67,-307 120.33,-307 120.33,-307 124.17,-307 128,-310.83 128,-314.67 128,-314.67 128,-322.33 128,-322.33 128,-326.17 124.17,-330 120.33,-330"/>
<text text-anchor="middle" x="70" y="-314.8" font-family="Arial" font-size="14.00" fill="#cfffac">src/setupTests.js</text>
</g>
</g>
</svg>
