<?xml version="1.0" encoding="UTF-8" standalone="no"?>
<!DOCTYPE svg PUBLIC "-//W3C//DTD SVG 1.1//EN"
 "http://www.w3.org/Graphics/SVG/1.1/DTD/svg11.dtd">
<!-- Generated by graphviz version 2.43.0 (0)
 -->
<!-- Title: G Pages: 1 -->
<svg width="2171pt" height="394pt"
 viewBox="0.00 0.00 2171.20 394.20" xmlns="http://www.w3.org/2000/svg" xmlns:xlink="http://www.w3.org/1999/xlink">
<g id="graph0" class="graph" transform="scale(1 1) rotate(0) translate(21.6 372.6)">
<title>G</title>
<polygon fill="#111111" stroke="transparent" points="-21.6,21.6 -21.6,-372.6 2149.6,-372.6 2149.6,21.6 -21.6,21.6"/>
<!-- src/App.css -->
<g id="node1" class="node">
<title>src/App.css</title>
<path fill="none" stroke="#cfffac" d="M659.83,-340C659.83,-340 589.17,-340 589.17,-340 585.33,-340 581.5,-336.17 581.5,-332.33 581.5,-332.33 581.5,-324.67 581.5,-324.67 581.5,-320.83 585.33,-317 589.17,-317 589.17,-317 659.83,-317 659.83,-317 663.67,-317 667.5,-320.83 667.5,-324.67 667.5,-324.67 667.5,-332.33 667.5,-332.33 667.5,-336.17 663.67,-340 659.83,-340"/>
<text text-anchor="middle" x="624.5" y="-324.8" font-family="Arial" font-size="14.00" fill="#cfffac">src/App.css</text>
</g>
<!-- src/App.js -->
<g id="node2" class="node">
<title>src/App.js</title>
<path fill="none" stroke="#c6c5fe" d="M311.33,-238C311.33,-238 250.67,-238 250.67,-238 246.83,-238 243,-234.17 243,-230.33 243,-230.33 243,-222.67 243,-222.67 243,-218.83 246.83,-215 250.67,-215 250.67,-215 311.33,-215 311.33,-215 315.17,-215 319,-218.83 319,-222.67 319,-222.67 319,-230.33 319,-230.33 319,-234.17 315.17,-238 311.33,-238"/>
<text text-anchor="middle" x="281" y="-222.8" font-family="Arial" font-size="14.00" fill="#c6c5fe">src/App.js</text>
</g>
<!-- src/App.js&#45;&gt;src/App.css -->
<g id="edge1" class="edge">
<title>src/App.js&#45;&gt;src/App.css</title>
<path fill="none" stroke="#757575" d="M296.9,-238.21C321.4,-256.74 372.44,-292.39 422,-308.5 470.85,-324.38 529.58,-328.65 571,-329.39"/>
<polygon fill="#757575" stroke="#757575" points="571.1,-332.89 581.14,-329.5 571.18,-325.89 571.1,-332.89"/>
</g>
<!-- src/components/header/header.component.jsx -->
<g id="node3" class="node">
<title>src/components/header/header.component.jsx</title>
<path fill="none" stroke="#c6c5fe" d="M764.83,-299C764.83,-299 484.17,-299 484.17,-299 480.33,-299 476.5,-295.17 476.5,-291.33 476.5,-291.33 476.5,-283.67 476.5,-283.67 476.5,-279.83 480.33,-276 484.17,-276 484.17,-276 764.83,-276 764.83,-276 768.67,-276 772.5,-279.83 772.5,-283.67 772.5,-283.67 772.5,-291.33 772.5,-291.33 772.5,-295.17 768.67,-299 764.83,-299"/>
<text text-anchor="middle" x="624.5" y="-283.8" font-family="Arial" font-size="14.00" fill="#c6c5fe">src/components/header/header.component.jsx</text>
</g>
<!-- src/App.js&#45;&gt;src/components/header/header.component.jsx -->
<g id="edge2" class="edge">
<title>src/App.js&#45;&gt;src/components/header/header.component.jsx</title>
<path fill="none" stroke="#757575" d="M319.2,-233.14C374.06,-242.94 477.84,-261.48 548.81,-274.16"/>
<polygon fill="#757575" stroke="#757575" points="548.57,-277.67 559.03,-275.98 549.8,-270.78 548.57,-277.67"/>
</g>
<!-- src/pages/homepage/homepage.component.jsx -->
<g id="node4" class="node">
<title>src/pages/homepage/homepage.component.jsx</title>
<path fill="none" stroke="#c6c5fe" d="M768.33,-238C768.33,-238 480.67,-238 480.67,-238 476.83,-238 473,-234.17 473,-230.33 473,-230.33 473,-222.67 473,-222.67 473,-218.83 476.83,-215 480.67,-215 480.67,-215 768.33,-215 768.33,-215 772.17,-215 776,-218.83 776,-222.67 776,-222.67 776,-230.33 776,-230.33 776,-234.17 772.17,-238 768.33,-238"/>
<text text-anchor="middle" x="624.5" y="-222.8" font-family="Arial" font-size="14.00" fill="#c6c5fe">src/pages/homepage/homepage.component.jsx</text>
</g>
<!-- src/App.js&#45;&gt;src/pages/homepage/homepage.component.jsx -->
<g id="edge3" class="edge">
<title>src/App.js&#45;&gt;src/pages/homepage/homepage.component.jsx</title>
<path fill="none" stroke="#757575" d="M319.2,-226.5C354.11,-226.5 408.84,-226.5 462.31,-226.5"/>
<polygon fill="#757575" stroke="#757575" points="462.63,-230 472.63,-226.5 462.63,-223 462.63,-230"/>
</g>
<!-- src/pages/shop/shop.component.jsx -->
<g id="node5" class="node">
<title>src/pages/shop/shop.component.jsx</title>
<path fill="none" stroke="#c6c5fe" d="M733.33,-187C733.33,-187 515.67,-187 515.67,-187 511.83,-187 508,-183.17 508,-179.33 508,-179.33 508,-171.67 508,-171.67 508,-167.83 511.83,-164 515.67,-164 515.67,-164 733.33,-164 733.33,-164 737.17,-164 741,-167.83 741,-171.67 741,-171.67 741,-179.33 741,-179.33 741,-183.17 737.17,-187 733.33,-187"/>
<text text-anchor="middle" x="624.5" y="-171.8" font-family="Arial" font-size="14.00" fill="#c6c5fe">src/pages/shop/shop.component.jsx</text>
</g>
<!-- src/App.js&#45;&gt;src/pages/shop/shop.component.jsx -->
<g id="edge4" class="edge">
<title>src/App.js&#45;&gt;src/pages/shop/shop.component.jsx</title>
<path fill="none" stroke="#757575" d="M319.2,-220.95C370.85,-213.23 465.86,-199.04 536.02,-188.56"/>
<polygon fill="#757575" stroke="#757575" points="536.81,-191.98 546.19,-187.05 535.78,-185.06 536.81,-191.98"/>
</g>
<!-- src/pages/sign&#45;in&#45;and&#45;sign&#45;up/sign&#45;in&#45;and&#45;sign&#45;up.component.jsx -->
<g id="node6" class="node">
<title>src/pages/sign&#45;in&#45;and&#45;sign&#45;up/sign&#45;in&#45;and&#45;sign&#45;up.component.jsx</title>
<path fill="none" stroke="#c6c5fe" d="M819.33,-105C819.33,-105 429.67,-105 429.67,-105 425.83,-105 422,-101.17 422,-97.33 422,-97.33 422,-89.67 422,-89.67 422,-85.83 425.83,-82 429.67,-82 429.67,-82 819.33,-82 819.33,-82 823.17,-82 827,-85.83 827,-89.67 827,-89.67 827,-97.33 827,-97.33 827,-101.17 823.17,-105 819.33,-105"/>
<text text-anchor="middle" x="624.5" y="-89.8" font-family="Arial" font-size="14.00" fill="#c6c5fe">src/pages/sign&#45;in&#45;and&#45;sign&#45;up/sign&#45;in&#45;and&#45;sign&#45;up.component.jsx</text>
</g>
<!-- src/App.js&#45;&gt;src/pages/sign&#45;in&#45;and&#45;sign&#45;up/sign&#45;in&#45;and&#45;sign&#45;up.component.jsx -->
<g id="edge5" class="edge">
<title>src/App.js&#45;&gt;src/pages/sign&#45;in&#45;and&#45;sign&#45;up/sign&#45;in&#45;and&#45;sign&#45;up.component.jsx</title>
<path fill="none" stroke="#757575" d="M319.21,-226.14C340.28,-224.35 366.28,-219.35 386,-206.5 409.55,-191.15 399.28,-171.05 422,-154.5 454.41,-130.89 496.04,-116.31 533.04,-107.36"/>
<polygon fill="#757575" stroke="#757575" points="533.89,-110.76 542.84,-105.1 532.31,-103.94 533.89,-110.76"/>
</g>
<!-- src/assets/crown.svg -->
<g id="node8" class="node">
<title>src/assets/crown.svg</title>
<path fill="none" stroke="#cfffac" d="M1139.33,-351C1139.33,-351 1012.67,-351 1012.67,-351 1008.83,-351 1005,-347.17 1005,-343.33 1005,-343.33 1005,-335.67 1005,-335.67 1005,-331.83 1008.83,-328 1012.67,-328 1012.67,-328 1139.33,-328 1139.33,-328 1143.17,-328 1147,-331.83 1147,-335.67 1147,-335.67 1147,-343.33 1147,-343.33 1147,-347.17 1143.17,-351 1139.33,-351"/>
<text text-anchor="middle" x="1076" y="-335.8" font-family="Arial" font-size="14.00" fill="#cfffac">src/assets/crown.svg</text>
</g>
<!-- src/components/header/header.component.jsx&#45;&gt;src/assets/crown.svg -->
<g id="edge14" class="edge">
<title>src/components/header/header.component.jsx&#45;&gt;src/assets/crown.svg</title>
<path fill="none" stroke="#757575" d="M768.85,-299C788.48,-301.58 808.3,-304.71 827,-308.5 843.4,-311.83 846.59,-316.25 863,-319.5 906.04,-328.01 954.73,-332.93 994.59,-335.76"/>
<polygon fill="#757575" stroke="#757575" points="994.57,-339.27 1004.78,-336.45 995.04,-332.28 994.57,-339.27"/>
</g>
<!-- src/components/header/header.styles.scss -->
<g id="node20" class="node">
<title>src/components/header/header.styles.scss</title>
<path fill="none" stroke="#cfffac" d="M1204.83,-310C1204.83,-310 947.17,-310 947.17,-310 943.33,-310 939.5,-306.17 939.5,-302.33 939.5,-302.33 939.5,-294.67 939.5,-294.67 939.5,-290.83 943.33,-287 947.17,-287 947.17,-287 1204.83,-287 1204.83,-287 1208.67,-287 1212.5,-290.83 1212.5,-294.67 1212.5,-294.67 1212.5,-302.33 1212.5,-302.33 1212.5,-306.17 1208.67,-310 1204.83,-310"/>
<text text-anchor="middle" x="1076" y="-294.8" font-family="Arial" font-size="14.00" fill="#cfffac">src/components/header/header.styles.scss</text>
</g>
<!-- src/components/header/header.component.jsx&#45;&gt;src/components/header/header.styles.scss -->
<g id="edge15" class="edge">
<title>src/components/header/header.component.jsx&#45;&gt;src/components/header/header.styles.scss</title>
<path fill="none" stroke="#757575" d="M772.68,-291.1C822.87,-292.33 878.93,-293.7 929.02,-294.93"/>
<polygon fill="#757575" stroke="#757575" points="929.2,-298.43 939.28,-295.18 929.37,-291.44 929.2,-298.43"/>
</g>
<!-- src/components/directory/directory.component.jsx -->
<g id="node15" class="node">
<title>src/components/directory/directory.component.jsx</title>
<path fill="none" stroke="#c6c5fe" d="M1225.33,-269C1225.33,-269 926.67,-269 926.67,-269 922.83,-269 919,-265.17 919,-261.33 919,-261.33 919,-253.67 919,-253.67 919,-249.83 922.83,-246 926.67,-246 926.67,-246 1225.33,-246 1225.33,-246 1229.17,-246 1233,-249.83 1233,-253.67 1233,-253.67 1233,-261.33 1233,-261.33 1233,-265.17 1229.17,-269 1225.33,-269"/>
<text text-anchor="middle" x="1076" y="-253.8" font-family="Arial" font-size="14.00" fill="#c6c5fe">src/components/directory/directory.component.jsx</text>
</g>
<!-- src/pages/homepage/homepage.component.jsx&#45;&gt;src/components/directory/directory.component.jsx -->
<g id="edge25" class="edge">
<title>src/pages/homepage/homepage.component.jsx&#45;&gt;src/components/directory/directory.component.jsx</title>
<path fill="none" stroke="#757575" d="M776.11,-236.89C818.72,-239.83 865.33,-243.04 908.8,-246.04"/>
<polygon fill="#757575" stroke="#757575" points="908.68,-249.54 918.89,-246.73 909.16,-242.55 908.68,-249.54"/>
</g>
<!-- src/pages/homepage/homepage.style.scss -->
<g id="node29" class="node">
<title>src/pages/homepage/homepage.style.scss</title>
<path fill="none" stroke="#cfffac" d="M1205.33,-228C1205.33,-228 946.67,-228 946.67,-228 942.83,-228 939,-224.17 939,-220.33 939,-220.33 939,-212.67 939,-212.67 939,-208.83 942.83,-205 946.67,-205 946.67,-205 1205.33,-205 1205.33,-205 1209.17,-205 1213,-208.83 1213,-212.67 1213,-212.67 1213,-220.33 1213,-220.33 1213,-224.17 1209.17,-228 1205.33,-228"/>
<text text-anchor="middle" x="1076" y="-212.8" font-family="Arial" font-size="14.00" fill="#cfffac">src/pages/homepage/homepage.style.scss</text>
</g>
<!-- src/pages/homepage/homepage.component.jsx&#45;&gt;src/pages/homepage/homepage.style.scss -->
<g id="edge26" class="edge">
<title>src/pages/homepage/homepage.component.jsx&#45;&gt;src/pages/homepage/homepage.style.scss</title>
<path fill="none" stroke="#757575" d="M776.11,-223.15C825.28,-222.06 879.79,-220.84 928.64,-219.76"/>
<polygon fill="#757575" stroke="#757575" points="928.73,-223.25 938.65,-219.53 928.58,-216.26 928.73,-223.25"/>
</g>
<!-- src/components/collection&#45;preview/collection&#45;preview.component.jsx -->
<g id="node11" class="node">
<title>src/components/collection&#45;preview/collection&#45;preview.component.jsx</title>
<path fill="none" stroke="#c6c5fe" d="M1281.33,-187C1281.33,-187 870.67,-187 870.67,-187 866.83,-187 863,-183.17 863,-179.33 863,-179.33 863,-171.67 863,-171.67 863,-167.83 866.83,-164 870.67,-164 870.67,-164 1281.33,-164 1281.33,-164 1285.17,-164 1289,-167.83 1289,-171.67 1289,-171.67 1289,-179.33 1289,-179.33 1289,-183.17 1285.17,-187 1281.33,-187"/>
<text text-anchor="middle" x="1076" y="-171.8" font-family="Arial" font-size="14.00" fill="#c6c5fe">src/components/collection&#45;preview/collection&#45;preview.component.jsx</text>
</g>
<!-- src/pages/shop/shop.component.jsx&#45;&gt;src/components/collection&#45;preview/collection&#45;preview.component.jsx -->
<g id="edge27" class="edge">
<title>src/pages/shop/shop.component.jsx&#45;&gt;src/components/collection&#45;preview/collection&#45;preview.component.jsx</title>
<path fill="none" stroke="#757575" d="M741.26,-175.5C775.4,-175.5 813.98,-175.5 852.47,-175.5"/>
<polygon fill="#757575" stroke="#757575" points="852.78,-179 862.78,-175.5 852.78,-172 852.78,-179"/>
</g>
<!-- src/pages/shop/shop.data.js -->
<g id="node30" class="node">
<title>src/pages/shop/shop.data.js</title>
<path fill="none" stroke="#cfffac" d="M1160.83,-146C1160.83,-146 991.17,-146 991.17,-146 987.33,-146 983.5,-142.17 983.5,-138.33 983.5,-138.33 983.5,-130.67 983.5,-130.67 983.5,-126.83 987.33,-123 991.17,-123 991.17,-123 1160.83,-123 1160.83,-123 1164.67,-123 1168.5,-126.83 1168.5,-130.67 1168.5,-130.67 1168.5,-138.33 1168.5,-138.33 1168.5,-142.17 1164.67,-146 1160.83,-146"/>
<text text-anchor="middle" x="1076" y="-130.8" font-family="Arial" font-size="14.00" fill="#cfffac">src/pages/shop/shop.data.js</text>
</g>
<!-- src/pages/shop/shop.component.jsx&#45;&gt;src/pages/shop/shop.data.js -->
<g id="edge28" class="edge">
<title>src/pages/shop/shop.component.jsx&#45;&gt;src/pages/shop/shop.data.js</title>
<path fill="none" stroke="#757575" d="M741.26,-164.94C813.03,-158.39 904.38,-150.06 973.35,-143.77"/>
<polygon fill="#757575" stroke="#757575" points="973.72,-147.25 983.36,-142.86 973.09,-140.28 973.72,-147.25"/>
</g>
<!-- src/components/sign&#45;in/sign&#45;in.component.jsx -->
<g id="node22" class="node">
<title>src/components/sign&#45;in/sign&#45;in.component.jsx</title>
<path fill="none" stroke="#c6c5fe" d="M1213.83,-105C1213.83,-105 938.17,-105 938.17,-105 934.33,-105 930.5,-101.17 930.5,-97.33 930.5,-97.33 930.5,-89.67 930.5,-89.67 930.5,-85.83 934.33,-82 938.17,-82 938.17,-82 1213.83,-82 1213.83,-82 1217.67,-82 1221.5,-85.83 1221.5,-89.67 1221.5,-89.67 1221.5,-97.33 1221.5,-97.33 1221.5,-101.17 1217.67,-105 1213.83,-105"/>
<text text-anchor="middle" x="1076" y="-89.8" font-family="Arial" font-size="14.00" fill="#c6c5fe">src/components/sign&#45;in/sign&#45;in.component.jsx</text>
</g>
<!-- src/pages/sign&#45;in&#45;and&#45;sign&#45;up/sign&#45;in&#45;and&#45;sign&#45;up.component.jsx&#45;&gt;src/components/sign&#45;in/sign&#45;in.component.jsx -->
<g id="edge29" class="edge">
<title>src/pages/sign&#45;in&#45;and&#45;sign&#45;up/sign&#45;in&#45;and&#45;sign&#45;up.component.jsx&#45;&gt;src/components/sign&#45;in/sign&#45;in.component.jsx</title>
<path fill="none" stroke="#757575" d="M827.24,-93.5C858.48,-93.5 890.33,-93.5 920.32,-93.5"/>
<polygon fill="#757575" stroke="#757575" points="920.42,-97 930.42,-93.5 920.42,-90 920.42,-97"/>
</g>
<!-- src/pages/sign&#45;in&#45;and&#45;sign&#45;up/sign&#45;in&#45;and&#45;sign&#45;up.styles.scss -->
<g id="node31" class="node">
<title>src/pages/sign&#45;in&#45;and&#45;sign&#45;up/sign&#45;in&#45;and&#45;sign&#45;up.styles.scss</title>
<path fill="none" stroke="#cfffac" d="M1259.83,-64C1259.83,-64 892.17,-64 892.17,-64 888.33,-64 884.5,-60.17 884.5,-56.33 884.5,-56.33 884.5,-48.67 884.5,-48.67 884.5,-44.83 888.33,-41 892.17,-41 892.17,-41 1259.83,-41 1259.83,-41 1263.67,-41 1267.5,-44.83 1267.5,-48.67 1267.5,-48.67 1267.5,-56.33 1267.5,-56.33 1267.5,-60.17 1263.67,-64 1259.83,-64"/>
<text text-anchor="middle" x="1076" y="-48.8" font-family="Arial" font-size="14.00" fill="#cfffac">src/pages/sign&#45;in&#45;and&#45;sign&#45;up/sign&#45;in&#45;and&#45;sign&#45;up.styles.scss</text>
</g>
<!-- src/pages/sign&#45;in&#45;and&#45;sign&#45;up/sign&#45;in&#45;and&#45;sign&#45;up.component.jsx&#45;&gt;src/pages/sign&#45;in&#45;and&#45;sign&#45;up/sign&#45;in&#45;and&#45;sign&#45;up.styles.scss -->
<g id="edge30" class="edge">
<title>src/pages/sign&#45;in&#45;and&#45;sign&#45;up/sign&#45;in&#45;and&#45;sign&#45;up.component.jsx&#45;&gt;src/pages/sign&#45;in&#45;and&#45;sign&#45;up/sign&#45;in&#45;and&#45;sign&#45;up.styles.scss</title>
<path fill="none" stroke="#757575" d="M751.61,-82C809.79,-76.69 878.97,-70.38 938.39,-64.96"/>
<polygon fill="#757575" stroke="#757575" points="938.96,-68.42 948.6,-64.03 938.33,-61.45 938.96,-68.42"/>
</g>
<!-- src/App.test.js -->
<g id="node7" class="node">
<title>src/App.test.js</title>
<path fill="none" stroke="#c6c5fe" d="M112.83,-238C112.83,-238 27.17,-238 27.17,-238 23.33,-238 19.5,-234.17 19.5,-230.33 19.5,-230.33 19.5,-222.67 19.5,-222.67 19.5,-218.83 23.33,-215 27.17,-215 27.17,-215 112.83,-215 112.83,-215 116.67,-215 120.5,-218.83 120.5,-222.67 120.5,-222.67 120.5,-230.33 120.5,-230.33 120.5,-234.17 116.67,-238 112.83,-238"/>
<text text-anchor="middle" x="70" y="-222.8" font-family="Arial" font-size="14.00" fill="#c6c5fe">src/App.test.js</text>
</g>
<!-- src/App.test.js&#45;&gt;src/App.js -->
<g id="edge6" class="edge">
<title>src/App.test.js&#45;&gt;src/App.js</title>
<path fill="none" stroke="#757575" d="M120.53,-226.5C154.55,-226.5 199.44,-226.5 232.92,-226.5"/>
<polygon fill="#757575" stroke="#757575" points="232.92,-230 242.92,-226.5 232.92,-223 232.92,-230"/>
</g>
<!-- src/components/collection&#45;item/collection&#45;item.component.jsx -->
<g id="node9" class="node">
<title>src/components/collection&#45;item/collection&#45;item.component.jsx</title>
<path fill="none" stroke="#c6c5fe" d="M1712.33,-228C1712.33,-228 1341.67,-228 1341.67,-228 1337.83,-228 1334,-224.17 1334,-220.33 1334,-220.33 1334,-212.67 1334,-212.67 1334,-208.83 1337.83,-205 1341.67,-205 1341.67,-205 1712.33,-205 1712.33,-205 1716.17,-205 1720,-208.83 1720,-212.67 1720,-212.67 1720,-220.33 1720,-220.33 1720,-224.17 1716.17,-228 1712.33,-228"/>
<text text-anchor="middle" x="1527" y="-212.8" font-family="Arial" font-size="14.00" fill="#c6c5fe">src/components/collection&#45;item/collection&#45;item.component.jsx</text>
</g>
<!-- src/components/collection&#45;item/collection&#45;item.styles.scss -->
<g id="node10" class="node">
<title>src/components/collection&#45;item/collection&#45;item.styles.scss</title>
<path fill="none" stroke="#cfffac" d="M2120.33,-228C2120.33,-228 1772.67,-228 1772.67,-228 1768.83,-228 1765,-224.17 1765,-220.33 1765,-220.33 1765,-212.67 1765,-212.67 1765,-208.83 1768.83,-205 1772.67,-205 1772.67,-205 2120.33,-205 2120.33,-205 2124.17,-205 2128,-208.83 2128,-212.67 2128,-212.67 2128,-220.33 2128,-220.33 2128,-224.17 2124.17,-228 2120.33,-228"/>
<text text-anchor="middle" x="1946.5" y="-212.8" font-family="Arial" font-size="14.00" fill="#cfffac">src/components/collection&#45;item/collection&#45;item.styles.scss</text>
</g>
<!-- src/components/collection&#45;item/collection&#45;item.component.jsx&#45;&gt;src/components/collection&#45;item/collection&#45;item.styles.scss -->
<g id="edge7" class="edge">
<title>src/components/collection&#45;item/collection&#45;item.component.jsx&#45;&gt;src/components/collection&#45;item/collection&#45;item.styles.scss</title>
<path fill="none" stroke="#757575" d="M1720.25,-216.5C1731.76,-216.5 1743.33,-216.5 1754.83,-216.5"/>
<polygon fill="#757575" stroke="#757575" points="1754.91,-220 1764.91,-216.5 1754.91,-213 1754.91,-220"/>
</g>
<!-- src/components/collection&#45;preview/collection&#45;preview.component.jsx&#45;&gt;src/components/collection&#45;item/collection&#45;item.component.jsx -->
<g id="edge8" class="edge">
<title>src/components/collection&#45;preview/collection&#45;preview.component.jsx&#45;&gt;src/components/collection&#45;item/collection&#45;item.component.jsx</title>
<path fill="none" stroke="#757575" d="M1202.97,-187C1261.08,-192.31 1330.19,-198.62 1389.54,-204.04"/>
<polygon fill="#757575" stroke="#757575" points="1389.47,-207.55 1399.74,-204.97 1390.1,-200.58 1389.47,-207.55"/>
</g>
<!-- src/components/collection&#45;preview/collection&#45;preview.styles.scss -->
<g id="node12" class="node">
<title>src/components/collection&#45;preview/collection&#45;preview.styles.scss</title>
<path fill="none" stroke="#cfffac" d="M1721.33,-187C1721.33,-187 1332.67,-187 1332.67,-187 1328.83,-187 1325,-183.17 1325,-179.33 1325,-179.33 1325,-171.67 1325,-171.67 1325,-167.83 1328.83,-164 1332.67,-164 1332.67,-164 1721.33,-164 1721.33,-164 1725.17,-164 1729,-167.83 1729,-171.67 1729,-171.67 1729,-179.33 1729,-179.33 1729,-183.17 1725.17,-187 1721.33,-187"/>
<text text-anchor="middle" x="1527" y="-171.8" font-family="Arial" font-size="14.00" fill="#cfffac">src/components/collection&#45;preview/collection&#45;preview.styles.scss</text>
</g>
<!-- src/components/collection&#45;preview/collection&#45;preview.component.jsx&#45;&gt;src/components/collection&#45;preview/collection&#45;preview.styles.scss -->
<g id="edge9" class="edge">
<title>src/components/collection&#45;preview/collection&#45;preview.component.jsx&#45;&gt;src/components/collection&#45;preview/collection&#45;preview.styles.scss</title>
<path fill="none" stroke="#757575" d="M1289.01,-175.5C1297.58,-175.5 1306.17,-175.5 1314.74,-175.5"/>
<polygon fill="#757575" stroke="#757575" points="1314.78,-179 1324.78,-175.5 1314.78,-172 1314.78,-179"/>
</g>
<!-- src/components/custom&#45;button/custom&#45;button.component.jsx -->
<g id="node13" class="node">
<title>src/components/custom&#45;button/custom&#45;button.component.jsx</title>
<path fill="none" stroke="#c6c5fe" d="M1711.33,-146C1711.33,-146 1342.67,-146 1342.67,-146 1338.83,-146 1335,-142.17 1335,-138.33 1335,-138.33 1335,-130.67 1335,-130.67 1335,-126.83 1338.83,-123 1342.67,-123 1342.67,-123 1711.33,-123 1711.33,-123 1715.17,-123 1719,-126.83 1719,-130.67 1719,-130.67 1719,-138.33 1719,-138.33 1719,-142.17 1715.17,-146 1711.33,-146"/>
<text text-anchor="middle" x="1527" y="-130.8" font-family="Arial" font-size="14.00" fill="#c6c5fe">src/components/custom&#45;button/custom&#45;button.component.jsx</text>
</g>
<!-- src/components/custom&#45;button/custom&#45;button.styles.scss -->
<g id="node14" class="node">
<title>src/components/custom&#45;button/custom&#45;button.styles.scss</title>
<path fill="none" stroke="#cfffac" d="M2119.83,-146C2119.83,-146 1773.17,-146 1773.17,-146 1769.33,-146 1765.5,-142.17 1765.5,-138.33 1765.5,-138.33 1765.5,-130.67 1765.5,-130.67 1765.5,-126.83 1769.33,-123 1773.17,-123 1773.17,-123 2119.83,-123 2119.83,-123 2123.67,-123 2127.5,-126.83 2127.5,-130.67 2127.5,-130.67 2127.5,-138.33 2127.5,-138.33 2127.5,-142.17 2123.67,-146 2119.83,-146"/>
<text text-anchor="middle" x="1946.5" y="-130.8" font-family="Arial" font-size="14.00" fill="#cfffac">src/components/custom&#45;button/custom&#45;button.styles.scss</text>
</g>
<!-- src/components/custom&#45;button/custom&#45;button.component.jsx&#45;&gt;src/components/custom&#45;button/custom&#45;button.styles.scss -->
<g id="edge10" class="edge">
<title>src/components/custom&#45;button/custom&#45;button.component.jsx&#45;&gt;src/components/custom&#45;button/custom&#45;button.styles.scss</title>
<path fill="none" stroke="#757575" d="M1719.03,-134.5C1731.11,-134.5 1743.27,-134.5 1755.34,-134.5"/>
<polygon fill="#757575" stroke="#757575" points="1755.46,-138 1765.46,-134.5 1755.46,-131 1755.46,-138"/>
</g>
<!-- src/components/directory/directory.styles.scss -->
<g id="node16" class="node">
<title>src/components/directory/directory.styles.scss</title>
<path fill="none" stroke="#cfffac" d="M1665.33,-310C1665.33,-310 1388.67,-310 1388.67,-310 1384.83,-310 1381,-306.17 1381,-302.33 1381,-302.33 1381,-294.67 1381,-294.67 1381,-290.83 1384.83,-287 1388.67,-287 1388.67,-287 1665.33,-287 1665.33,-287 1669.17,-287 1673,-290.83 1673,-294.67 1673,-294.67 1673,-302.33 1673,-302.33 1673,-306.17 1669.17,-310 1665.33,-310"/>
<text text-anchor="middle" x="1527" y="-294.8" font-family="Arial" font-size="14.00" fill="#cfffac">src/components/directory/directory.styles.scss</text>
</g>
<!-- src/components/directory/directory.component.jsx&#45;&gt;src/components/directory/directory.styles.scss -->
<g id="edge11" class="edge">
<title>src/components/directory/directory.component.jsx&#45;&gt;src/components/directory/directory.styles.scss</title>
<path fill="none" stroke="#757575" d="M1202.97,-269C1261.08,-274.31 1330.19,-280.62 1389.54,-286.04"/>
<polygon fill="#757575" stroke="#757575" points="1389.47,-289.55 1399.74,-286.97 1390.1,-282.58 1389.47,-289.55"/>
</g>
<!-- src/components/menu&#45;item/menu&#45;item.component.jsx -->
<g id="node17" class="node">
<title>src/components/menu&#45;item/menu&#45;item.component.jsx</title>
<path fill="none" stroke="#c6c5fe" d="M1690.33,-269C1690.33,-269 1363.67,-269 1363.67,-269 1359.83,-269 1356,-265.17 1356,-261.33 1356,-261.33 1356,-253.67 1356,-253.67 1356,-249.83 1359.83,-246 1363.67,-246 1363.67,-246 1690.33,-246 1690.33,-246 1694.17,-246 1698,-249.83 1698,-253.67 1698,-253.67 1698,-261.33 1698,-261.33 1698,-265.17 1694.17,-269 1690.33,-269"/>
<text text-anchor="middle" x="1527" y="-253.8" font-family="Arial" font-size="14.00" fill="#c6c5fe">src/components/menu&#45;item/menu&#45;item.component.jsx</text>
</g>
<!-- src/components/directory/directory.component.jsx&#45;&gt;src/components/menu&#45;item/menu&#45;item.component.jsx -->
<g id="edge12" class="edge">
<title>src/components/directory/directory.component.jsx&#45;&gt;src/components/menu&#45;item/menu&#45;item.component.jsx</title>
<path fill="none" stroke="#757575" d="M1233.09,-257.5C1269.31,-257.5 1308.16,-257.5 1345.33,-257.5"/>
<polygon fill="#757575" stroke="#757575" points="1345.77,-261 1355.77,-257.5 1345.77,-254 1345.77,-261"/>
</g>
<!-- src/components/menu&#45;item/menu&#45;item.styles.scss -->
<g id="node21" class="node">
<title>src/components/menu&#45;item/menu&#45;item.styles.scss</title>
<path fill="none" stroke="#cfffac" d="M2098.83,-269C2098.83,-269 1794.17,-269 1794.17,-269 1790.33,-269 1786.5,-265.17 1786.5,-261.33 1786.5,-261.33 1786.5,-253.67 1786.5,-253.67 1786.5,-249.83 1790.33,-246 1794.17,-246 1794.17,-246 2098.83,-246 2098.83,-246 2102.67,-246 2106.5,-249.83 2106.5,-253.67 2106.5,-253.67 2106.5,-261.33 2106.5,-261.33 2106.5,-265.17 2102.67,-269 2098.83,-269"/>
<text text-anchor="middle" x="1946.5" y="-253.8" font-family="Arial" font-size="14.00" fill="#cfffac">src/components/menu&#45;item/menu&#45;item.styles.scss</text>
</g>
<!-- src/components/menu&#45;item/menu&#45;item.component.jsx&#45;&gt;src/components/menu&#45;item/menu&#45;item.styles.scss -->
<g id="edge16" class="edge">
<title>src/components/menu&#45;item/menu&#45;item.component.jsx&#45;&gt;src/components/menu&#45;item/menu&#45;item.styles.scss</title>
<path fill="none" stroke="#757575" d="M1698.11,-257.5C1723.81,-257.5 1750.31,-257.5 1775.99,-257.5"/>
<polygon fill="#757575" stroke="#757575" points="1776.17,-261 1786.17,-257.5 1776.17,-254 1776.17,-261"/>
</g>
<!-- src/components/form&#45;input/form&#45;input.component.jsx -->
<g id="node18" class="node">
<title>src/components/form&#45;input/form&#45;input.component.jsx</title>
<path fill="none" stroke="#c6c5fe" d="M1686.83,-105C1686.83,-105 1367.17,-105 1367.17,-105 1363.33,-105 1359.5,-101.17 1359.5,-97.33 1359.5,-97.33 1359.5,-89.67 1359.5,-89.67 1359.5,-85.83 1363.33,-82 1367.17,-82 1367.17,-82 1686.83,-82 1686.83,-82 1690.67,-82 1694.5,-85.83 1694.5,-89.67 1694.5,-89.67 1694.5,-97.33 1694.5,-97.33 1694.5,-101.17 1690.67,-105 1686.83,-105"/>
<text text-anchor="middle" x="1527" y="-89.8" font-family="Arial" font-size="14.00" fill="#c6c5fe">src/components/form&#45;input/form&#45;input.component.jsx</text>
</g>
<!-- src/components/form&#45;input/form&#45;input.styles.scss -->
<g id="node19" class="node">
<title>src/components/form&#45;input/form&#45;input.styles.scss</title>
<path fill="none" stroke="#cfffac" d="M2094.83,-105C2094.83,-105 1798.17,-105 1798.17,-105 1794.33,-105 1790.5,-101.17 1790.5,-97.33 1790.5,-97.33 1790.5,-89.67 1790.5,-89.67 1790.5,-85.83 1794.33,-82 1798.17,-82 1798.17,-82 2094.83,-82 2094.83,-82 2098.67,-82 2102.5,-85.83 2102.5,-89.67 2102.5,-89.67 2102.5,-97.33 2102.5,-97.33 2102.5,-101.17 2098.67,-105 2094.83,-105"/>
<text text-anchor="middle" x="1946.5" y="-89.8" font-family="Arial" font-size="14.00" fill="#cfffac">src/components/form&#45;input/form&#45;input.styles.scss</text>
</g>
<!-- src/components/form&#45;input/form&#45;input.component.jsx&#45;&gt;src/components/form&#45;input/form&#45;input.styles.scss -->
<g id="edge13" class="edge">
<title>src/components/form&#45;input/form&#45;input.component.jsx&#45;&gt;src/components/form&#45;input/form&#45;input.styles.scss</title>
<path fill="none" stroke="#757575" d="M1694.51,-93.5C1722.64,-93.5 1751.84,-93.5 1779.95,-93.5"/>
<polygon fill="#757575" stroke="#757575" points="1780.26,-97 1790.26,-93.5 1780.26,-90 1780.26,-97"/>
</g>
<!-- src/components/sign&#45;in/sign&#45;in.component.jsx&#45;&gt;src/components/custom&#45;button/custom&#45;button.component.jsx -->
<g id="edge17" class="edge">
<title>src/components/sign&#45;in/sign&#45;in.component.jsx&#45;&gt;src/components/custom&#45;button/custom&#45;button.component.jsx</title>
<path fill="none" stroke="#757575" d="M1202.97,-105C1261.08,-110.31 1330.19,-116.62 1389.54,-122.04"/>
<polygon fill="#757575" stroke="#757575" points="1389.47,-125.55 1399.74,-122.97 1390.1,-118.58 1389.47,-125.55"/>
</g>
<!-- src/components/sign&#45;in/sign&#45;in.component.jsx&#45;&gt;src/components/form&#45;input/form&#45;input.component.jsx -->
<g id="edge18" class="edge">
<title>src/components/sign&#45;in/sign&#45;in.component.jsx&#45;&gt;src/components/form&#45;input/form&#45;input.component.jsx</title>
<path fill="none" stroke="#757575" d="M1221.54,-93.5C1262.24,-93.5 1306.98,-93.5 1349.33,-93.5"/>
<polygon fill="#757575" stroke="#757575" points="1349.47,-97 1359.47,-93.5 1349.47,-90 1349.47,-97"/>
</g>
<!-- src/components/sign&#45;in/sign&#45;in.styles.scss -->
<g id="node23" class="node">
<title>src/components/sign&#45;in/sign&#45;in.styles.scss</title>
<path fill="none" stroke="#cfffac" d="M1653.83,-64C1653.83,-64 1400.17,-64 1400.17,-64 1396.33,-64 1392.5,-60.17 1392.5,-56.33 1392.5,-56.33 1392.5,-48.67 1392.5,-48.67 1392.5,-44.83 1396.33,-41 1400.17,-41 1400.17,-41 1653.83,-41 1653.83,-41 1657.67,-41 1661.5,-44.83 1661.5,-48.67 1661.5,-48.67 1661.5,-56.33 1661.5,-56.33 1661.5,-60.17 1657.67,-64 1653.83,-64"/>
<text text-anchor="middle" x="1527" y="-48.8" font-family="Arial" font-size="14.00" fill="#cfffac">src/components/sign&#45;in/sign&#45;in.styles.scss</text>
</g>
<!-- src/components/sign&#45;in/sign&#45;in.component.jsx&#45;&gt;src/components/sign&#45;in/sign&#45;in.styles.scss -->
<g id="edge19" class="edge">
<title>src/components/sign&#45;in/sign&#45;in.component.jsx&#45;&gt;src/components/sign&#45;in/sign&#45;in.styles.scss</title>
<path fill="none" stroke="#757575" d="M1202.97,-82C1261.08,-76.69 1330.19,-70.38 1389.54,-64.96"/>
<polygon fill="#757575" stroke="#757575" points="1390.1,-68.42 1399.74,-64.03 1389.47,-61.45 1390.1,-68.42"/>
</g>
<!-- src/firebase/firebase.utils.js -->
<g id="node24" class="node">
<title>src/firebase/firebase.utils.js</title>
<path fill="none" stroke="#cfffac" d="M1608.83,-23C1608.83,-23 1445.17,-23 1445.17,-23 1441.33,-23 1437.5,-19.17 1437.5,-15.33 1437.5,-15.33 1437.5,-7.67 1437.5,-7.67 1437.5,-3.83 1441.33,0 1445.17,0 1445.17,0 1608.83,0 1608.83,0 1612.67,0 1616.5,-3.83 1616.5,-7.67 1616.5,-7.67 1616.5,-15.33 1616.5,-15.33 1616.5,-19.17 1612.67,-23 1608.83,-23"/>
<text text-anchor="middle" x="1527" y="-7.8" font-family="Arial" font-size="14.00" fill="#cfffac">src/firebase/firebase.utils.js</text>
</g>
<!-- src/components/sign&#45;in/sign&#45;in.component.jsx&#45;&gt;src/firebase/firebase.utils.js -->
<g id="edge20" class="edge">
<title>src/components/sign&#45;in/sign&#45;in.component.jsx&#45;&gt;src/firebase/firebase.utils.js</title>
<path fill="none" stroke="#757575" d="M1221.74,-93.79C1245.09,-89.77 1268.36,-83.1 1289,-72.5 1310.57,-61.42 1303.43,-42.58 1325,-31.5 1355.95,-15.59 1393.11,-9.01 1427.01,-6.92"/>
<polygon fill="#757575" stroke="#757575" points="1427.6,-10.4 1437.42,-6.41 1427.26,-3.4 1427.6,-10.4"/>
</g>
<!-- src/index.css -->
<g id="node25" class="node">
<title>src/index.css</title>
<path fill="none" stroke="#cfffac" d="M320.83,-197C320.83,-197 241.17,-197 241.17,-197 237.33,-197 233.5,-193.17 233.5,-189.33 233.5,-189.33 233.5,-181.67 233.5,-181.67 233.5,-177.83 237.33,-174 241.17,-174 241.17,-174 320.83,-174 320.83,-174 324.67,-174 328.5,-177.83 328.5,-181.67 328.5,-181.67 328.5,-189.33 328.5,-189.33 328.5,-193.17 324.67,-197 320.83,-197"/>
<text text-anchor="middle" x="281" y="-181.8" font-family="Arial" font-size="14.00" fill="#cfffac">src/index.css</text>
</g>
<!-- src/index.js -->
<g id="node26" class="node">
<title>src/index.js</title>
<path fill="none" stroke="#c6c5fe" d="M104.33,-177C104.33,-177 35.67,-177 35.67,-177 31.83,-177 28,-173.17 28,-169.33 28,-169.33 28,-161.67 28,-161.67 28,-157.83 31.83,-154 35.67,-154 35.67,-154 104.33,-154 104.33,-154 108.17,-154 112,-157.83 112,-161.67 112,-161.67 112,-169.33 112,-169.33 112,-173.17 108.17,-177 104.33,-177"/>
<text text-anchor="middle" x="70" y="-161.8" font-family="Arial" font-size="14.00" fill="#c6c5fe">src/index.js</text>
</g>
<!-- src/index.js&#45;&gt;src/App.js -->
<g id="edge21" class="edge">
<title>src/index.js&#45;&gt;src/App.js</title>
<path fill="none" stroke="#757575" d="M96.86,-177.13C117.84,-186.18 148.36,-198.52 176,-206.5 194.25,-211.77 214.7,-216.04 232.61,-219.27"/>
<polygon fill="#757575" stroke="#757575" points="232.1,-222.73 242.55,-220.99 233.3,-215.83 232.1,-222.73"/>
</g>
<!-- src/index.js&#45;&gt;src/index.css -->
<g id="edge22" class="edge">
<title>src/index.js&#45;&gt;src/index.css</title>
<path fill="none" stroke="#757575" d="M112.29,-169.45C144.02,-172.49 188.19,-176.71 223.24,-180.07"/>
<polygon fill="#757575" stroke="#757575" points="223.04,-183.57 233.33,-181.03 223.71,-176.6 223.04,-183.57"/>
</g>
<!-- src/reportWebVitals.js -->
<g id="node27" class="node">
<title>src/reportWebVitals.js</title>
<path fill="none" stroke="#cfffac" d="M347.33,-156C347.33,-156 214.67,-156 214.67,-156 210.83,-156 207,-152.17 207,-148.33 207,-148.33 207,-140.67 207,-140.67 207,-136.83 210.83,-133 214.67,-133 214.67,-133 347.33,-133 347.33,-133 351.17,-133 355,-136.83 355,-140.67 355,-140.67 355,-148.33 355,-148.33 355,-152.17 351.17,-156 347.33,-156"/>
<text text-anchor="middle" x="281" y="-140.8" font-family="Arial" font-size="14.00" fill="#cfffac">src/reportWebVitals.js</text>
</g>
<!-- src/index.js&#45;&gt;src/reportWebVitals.js -->
<g id="edge23" class="edge">
<title>src/index.js&#45;&gt;src/reportWebVitals.js</title>
<path fill="none" stroke="#757575" d="M112.29,-161.35C136.34,-158.93 167.55,-155.8 196.51,-152.89"/>
<polygon fill="#757575" stroke="#757575" points="197.04,-156.35 206.64,-151.87 196.34,-149.39 197.04,-156.35"/>
</g>
<!-- src/serviceWorkerRegistration.js -->
<g id="node28" class="node">
<title>src/serviceWorkerRegistration.js</title>
<path fill="none" stroke="#cfffac" d="M378.33,-115C378.33,-115 183.67,-115 183.67,-115 179.83,-115 176,-111.17 176,-107.33 176,-107.33 176,-99.67 176,-99.67 176,-95.83 179.83,-92 183.67,-92 183.67,-92 378.33,-92 378.33,-92 382.17,-92 386,-95.83 386,-99.67 386,-99.67 386,-107.33 386,-107.33 386,-111.17 382.17,-115 378.33,-115"/>
<text text-anchor="middle" x="281" y="-99.8" font-family="Arial" font-size="14.00" fill="#cfffac">src/serviceWorkerRegistration.js</text>
</g>
<!-- src/index.js&#45;&gt;src/serviceWorkerRegistration.js -->
<g id="edge24" class="edge">
<title>src/index.js&#45;&gt;src/serviceWorkerRegistration.js</title>
<path fill="none" stroke="#757575" d="M95.98,-153.94C116.96,-144.61 147.93,-131.73 176,-123.5 183.78,-121.22 191.96,-119.13 200.18,-117.24"/>
<polygon fill="#757575" stroke="#757575" points="201.18,-120.6 210.19,-115.02 199.67,-113.76 201.18,-120.6"/>
</g>
<!-- src/service&#45;worker.js -->
<g id="node32" class="node">
<title>src/service&#45;worker.js</title>
<path fill="none" stroke="#cfffac" d="M132.33,-279C132.33,-279 7.67,-279 7.67,-279 3.83,-279 0,-275.17 0,-271.33 0,-271.33 0,-263.67 0,-263.67 0,-259.83 3.83,-256 7.67,-256 7.67,-256 132.33,-256 132.33,-256 136.17,-256 140,-259.83 140,-263.67 140,-263.67 140,-271.33 140,-271.33 140,-275.17 136.17,-279 132.33,-279"/>
<text text-anchor="middle" x="70" y="-263.8" font-family="Arial" font-size="14.00" fill="#cfffac">src/service&#45;worker.js</text>
</g>
<!-- src/setupTests.js -->
<g id="node33" class="node">
<title>src/setupTests.js</title>
<path fill="none" stroke="#cfffac" d="M120.33,-320C120.33,-320 19.67,-320 19.67,-320 15.83,-320 12,-316.17 12,-312.33 12,-312.33 12,-304.67 12,-304.67 12,-300.83 15.83,-297 19.67,-297 19.67,-297 120.33,-297 120.33,-297 124.17,-297 128,-300.83 128,-304.67 128,-304.67 128,-312.33 128,-312.33 128,-316.17 124.17,-320 120.33,-320"/>
<text text-anchor="middle" x="70" y="-304.8" font-family="Arial" font-size="14.00" fill="#cfffac">src/setupTests.js</text>
</g>
</g>
</svg>
