<?xml version="1.0" encoding="UTF-8" standalone="no"?>
<!DOCTYPE svg PUBLIC "-//W3C//DTD SVG 1.1//EN"
 "http://www.w3.org/Graphics/SVG/1.1/DTD/svg11.dtd">
<!-- Generated by graphviz version 2.43.0 (0)
 -->
<!-- Title: G Pages: 1 -->
<svg width="1852pt" height="271pt"
 viewBox="0.00 0.00 1852.20 271.20" xmlns="http://www.w3.org/2000/svg" xmlns:xlink="http://www.w3.org/1999/xlink">
<g id="graph0" class="graph" transform="scale(1 1) rotate(0) translate(21.6 249.6)">
<title>G</title>
<polygon fill="#111111" stroke="transparent" points="-21.6,21.6 -21.6,-249.6 1830.6,-249.6 1830.6,21.6 -21.6,21.6"/>
<!-- src/App.css -->
<g id="node1" class="node">
<title>src/App.css</title>
<path fill="none" stroke="#cfffac" d="M608.83,-166C608.83,-166 538.17,-166 538.17,-166 534.33,-166 530.5,-162.17 530.5,-158.33 530.5,-158.33 530.5,-150.67 530.5,-150.67 530.5,-146.83 534.33,-143 538.17,-143 538.17,-143 608.83,-143 608.83,-143 612.67,-143 616.5,-146.83 616.5,-150.67 616.5,-150.67 616.5,-158.33 616.5,-158.33 616.5,-162.17 612.67,-166 608.83,-166"/>
<text text-anchor="middle" x="573.5" y="-150.8" font-family="Arial" font-size="14.00" fill="#cfffac">src/App.css</text>
</g>
<!-- src/App.js -->
<g id="node2" class="node">
<title>src/App.js</title>
<path fill="none" stroke="#c6c5fe" d="M311.33,-146C311.33,-146 250.67,-146 250.67,-146 246.83,-146 243,-142.17 243,-138.33 243,-138.33 243,-130.67 243,-130.67 243,-126.83 246.83,-123 250.67,-123 250.67,-123 311.33,-123 311.33,-123 315.17,-123 319,-126.83 319,-130.67 319,-130.67 319,-138.33 319,-138.33 319,-142.17 315.17,-146 311.33,-146"/>
<text text-anchor="middle" x="281" y="-130.8" font-family="Arial" font-size="14.00" fill="#c6c5fe">src/App.js</text>
</g>
<!-- src/App.js&#45;&gt;src/App.css -->
<g id="edge1" class="edge">
<title>src/App.js&#45;&gt;src/App.css</title>
<path fill="none" stroke="#757575" d="M319.09,-137.05C370.17,-140.57 462.42,-146.92 520.41,-150.91"/>
<polygon fill="#757575" stroke="#757575" points="520.25,-154.41 530.47,-151.61 520.73,-147.43 520.25,-154.41"/>
</g>
<!-- src/pages/homepage/homepage.component.jsx -->
<g id="node3" class="node">
<title>src/pages/homepage/homepage.component.jsx</title>
<path fill="none" stroke="#c6c5fe" d="M717.33,-125C717.33,-125 429.67,-125 429.67,-125 425.83,-125 422,-121.17 422,-117.33 422,-117.33 422,-109.67 422,-109.67 422,-105.83 425.83,-102 429.67,-102 429.67,-102 717.33,-102 717.33,-102 721.17,-102 725,-105.83 725,-109.67 725,-109.67 725,-117.33 725,-117.33 725,-121.17 721.17,-125 717.33,-125"/>
<text text-anchor="middle" x="573.5" y="-109.8" font-family="Arial" font-size="14.00" fill="#c6c5fe">src/pages/homepage/homepage.component.jsx</text>
</g>
<!-- src/App.js&#45;&gt;src/pages/homepage/homepage.component.jsx -->
<g id="edge2" class="edge">
<title>src/App.js&#45;&gt;src/pages/homepage/homepage.component.jsx</title>
<path fill="none" stroke="#757575" d="M319.09,-131.82C343.31,-130.07 376.79,-127.65 411.49,-125.14"/>
<polygon fill="#757575" stroke="#757575" points="412.07,-128.61 421.79,-124.39 411.57,-121.62 412.07,-128.61"/>
</g>
<!-- src/components/directory/directory.component.jsx -->
<g id="node5" class="node">
<title>src/components/directory/directory.component.jsx</title>
<path fill="none" stroke="#c6c5fe" d="M1067.33,-146C1067.33,-146 768.67,-146 768.67,-146 764.83,-146 761,-142.17 761,-138.33 761,-138.33 761,-130.67 761,-130.67 761,-126.83 764.83,-123 768.67,-123 768.67,-123 1067.33,-123 1067.33,-123 1071.17,-123 1075,-126.83 1075,-130.67 1075,-130.67 1075,-138.33 1075,-138.33 1075,-142.17 1071.17,-146 1067.33,-146"/>
<text text-anchor="middle" x="918" y="-130.8" font-family="Arial" font-size="14.00" fill="#c6c5fe">src/components/directory/directory.component.jsx</text>
</g>
<!-- src/pages/homepage/homepage.component.jsx&#45;&gt;src/components/directory/directory.component.jsx -->
<g id="edge11" class="edge">
<title>src/pages/homepage/homepage.component.jsx&#45;&gt;src/components/directory/directory.component.jsx</title>
<path fill="none" stroke="#757575" d="M725.22,-122.74C733.74,-123.26 742.32,-123.79 750.88,-124.31"/>
<polygon fill="#757575" stroke="#757575" points="750.73,-127.81 760.93,-124.93 751.16,-120.83 750.73,-127.81"/>
</g>
<!-- src/pages/homepage/homepage.style.scss -->
<g id="node13" class="node">
<title>src/pages/homepage/homepage.style.scss</title>
<path fill="none" stroke="#cfffac" d="M1047.33,-105C1047.33,-105 788.67,-105 788.67,-105 784.83,-105 781,-101.17 781,-97.33 781,-97.33 781,-89.67 781,-89.67 781,-85.83 784.83,-82 788.67,-82 788.67,-82 1047.33,-82 1047.33,-82 1051.17,-82 1055,-85.83 1055,-89.67 1055,-89.67 1055,-97.33 1055,-97.33 1055,-101.17 1051.17,-105 1047.33,-105"/>
<text text-anchor="middle" x="918" y="-89.8" font-family="Arial" font-size="14.00" fill="#cfffac">src/pages/homepage/homepage.style.scss</text>
</g>
<!-- src/pages/homepage/homepage.component.jsx&#45;&gt;src/pages/homepage/homepage.style.scss -->
<g id="edge12" class="edge">
<title>src/pages/homepage/homepage.component.jsx&#45;&gt;src/pages/homepage/homepage.style.scss</title>
<path fill="none" stroke="#757575" d="M725.22,-104.7C740.24,-103.82 755.48,-102.93 770.45,-102.06"/>
<polygon fill="#757575" stroke="#757575" points="770.99,-105.53 780.77,-101.45 770.59,-98.54 770.99,-105.53"/>
</g>
<!-- src/App.test.js -->
<g id="node4" class="node">
<title>src/App.test.js</title>
<path fill="none" stroke="#c6c5fe" d="M112.83,-146C112.83,-146 27.17,-146 27.17,-146 23.33,-146 19.5,-142.17 19.5,-138.33 19.5,-138.33 19.5,-130.67 19.5,-130.67 19.5,-126.83 23.33,-123 27.17,-123 27.17,-123 112.83,-123 112.83,-123 116.67,-123 120.5,-126.83 120.5,-130.67 120.5,-130.67 120.5,-138.33 120.5,-138.33 120.5,-142.17 116.67,-146 112.83,-146"/>
<text text-anchor="middle" x="70" y="-130.8" font-family="Arial" font-size="14.00" fill="#c6c5fe">src/App.test.js</text>
</g>
<!-- src/App.test.js&#45;&gt;src/App.js -->
<g id="edge3" class="edge">
<title>src/App.test.js&#45;&gt;src/App.js</title>
<path fill="none" stroke="#757575" d="M120.53,-134.5C154.55,-134.5 199.44,-134.5 232.92,-134.5"/>
<polygon fill="#757575" stroke="#757575" points="232.92,-138 242.92,-134.5 232.92,-131 232.92,-138"/>
</g>
<!-- src/components/directory/directory.styles.scss -->
<g id="node6" class="node">
<title>src/components/directory/directory.styles.scss</title>
<path fill="none" stroke="#cfffac" d="M1420.33,-166C1420.33,-166 1143.67,-166 1143.67,-166 1139.83,-166 1136,-162.17 1136,-158.33 1136,-158.33 1136,-150.67 1136,-150.67 1136,-146.83 1139.83,-143 1143.67,-143 1143.67,-143 1420.33,-143 1420.33,-143 1424.17,-143 1428,-146.83 1428,-150.67 1428,-150.67 1428,-158.33 1428,-158.33 1428,-162.17 1424.17,-166 1420.33,-166"/>
<text text-anchor="middle" x="1282" y="-150.8" font-family="Arial" font-size="14.00" fill="#cfffac">src/components/directory/directory.styles.scss</text>
</g>
<!-- src/components/directory/directory.component.jsx&#45;&gt;src/components/directory/directory.styles.scss -->
<g id="edge4" class="edge">
<title>src/components/directory/directory.component.jsx&#45;&gt;src/components/directory/directory.styles.scss</title>
<path fill="none" stroke="#757575" d="M1075.15,-143.13C1091.87,-144.05 1108.87,-144.99 1125.58,-145.91"/>
<polygon fill="#757575" stroke="#757575" points="1125.76,-149.43 1135.94,-146.49 1126.15,-142.44 1125.76,-149.43"/>
</g>
<!-- src/components/menu&#45;item/menu&#45;item.component.jsx -->
<g id="node7" class="node">
<title>src/components/menu&#45;item/menu&#45;item.component.jsx</title>
<path fill="none" stroke="#c6c5fe" d="M1445.33,-125C1445.33,-125 1118.67,-125 1118.67,-125 1114.83,-125 1111,-121.17 1111,-117.33 1111,-117.33 1111,-109.67 1111,-109.67 1111,-105.83 1114.83,-102 1118.67,-102 1118.67,-102 1445.33,-102 1445.33,-102 1449.17,-102 1453,-105.83 1453,-109.67 1453,-109.67 1453,-117.33 1453,-117.33 1453,-121.17 1449.17,-125 1445.33,-125"/>
<text text-anchor="middle" x="1282" y="-109.8" font-family="Arial" font-size="14.00" fill="#c6c5fe">src/components/menu&#45;item/menu&#45;item.component.jsx</text>
</g>
<!-- src/components/directory/directory.component.jsx&#45;&gt;src/components/menu&#45;item/menu&#45;item.component.jsx -->
<g id="edge5" class="edge">
<title>src/components/directory/directory.component.jsx&#45;&gt;src/components/menu&#45;item/menu&#45;item.component.jsx</title>
<path fill="none" stroke="#757575" d="M1075.15,-125.44C1083.67,-124.95 1092.28,-124.45 1100.88,-123.95"/>
<polygon fill="#757575" stroke="#757575" points="1101.19,-127.44 1110.97,-123.36 1100.78,-120.45 1101.19,-127.44"/>
</g>
<!-- src/components/menu&#45;item/menu&#45;item.styles.scss -->
<g id="node8" class="node">
<title>src/components/menu&#45;item/menu&#45;item.styles.scss</title>
<path fill="none" stroke="#cfffac" d="M1801.33,-125C1801.33,-125 1496.67,-125 1496.67,-125 1492.83,-125 1489,-121.17 1489,-117.33 1489,-117.33 1489,-109.67 1489,-109.67 1489,-105.83 1492.83,-102 1496.67,-102 1496.67,-102 1801.33,-102 1801.33,-102 1805.17,-102 1809,-105.83 1809,-109.67 1809,-109.67 1809,-117.33 1809,-117.33 1809,-121.17 1805.17,-125 1801.33,-125"/>
<text text-anchor="middle" x="1649" y="-109.8" font-family="Arial" font-size="14.00" fill="#cfffac">src/components/menu&#45;item/menu&#45;item.styles.scss</text>
</g>
<!-- src/components/menu&#45;item/menu&#45;item.component.jsx&#45;&gt;src/components/menu&#45;item/menu&#45;item.styles.scss -->
<g id="edge6" class="edge">
<title>src/components/menu&#45;item/menu&#45;item.component.jsx&#45;&gt;src/components/menu&#45;item/menu&#45;item.styles.scss</title>
<path fill="none" stroke="#757575" d="M1453.21,-113.5C1461.76,-113.5 1470.35,-113.5 1478.89,-113.5"/>
<polygon fill="#757575" stroke="#757575" points="1478.9,-117 1488.9,-113.5 1478.9,-110 1478.9,-117"/>
</g>
<!-- src/index.css -->
<g id="node9" class="node">
<title>src/index.css</title>
<path fill="none" stroke="#cfffac" d="M320.83,-105C320.83,-105 241.17,-105 241.17,-105 237.33,-105 233.5,-101.17 233.5,-97.33 233.5,-97.33 233.5,-89.67 233.5,-89.67 233.5,-85.83 237.33,-82 241.17,-82 241.17,-82 320.83,-82 320.83,-82 324.67,-82 328.5,-85.83 328.5,-89.67 328.5,-89.67 328.5,-97.33 328.5,-97.33 328.5,-101.17 324.67,-105 320.83,-105"/>
<text text-anchor="middle" x="281" y="-89.8" font-family="Arial" font-size="14.00" fill="#cfffac">src/index.css</text>
</g>
<!-- src/index.js -->
<g id="node10" class="node">
<title>src/index.js</title>
<path fill="none" stroke="#c6c5fe" d="M104.33,-85C104.33,-85 35.67,-85 35.67,-85 31.83,-85 28,-81.17 28,-77.33 28,-77.33 28,-69.67 28,-69.67 28,-65.83 31.83,-62 35.67,-62 35.67,-62 104.33,-62 104.33,-62 108.17,-62 112,-65.83 112,-69.67 112,-69.67 112,-77.33 112,-77.33 112,-81.17 108.17,-85 104.33,-85"/>
<text text-anchor="middle" x="70" y="-69.8" font-family="Arial" font-size="14.00" fill="#c6c5fe">src/index.js</text>
</g>
<!-- src/index.js&#45;&gt;src/App.js -->
<g id="edge7" class="edge">
<title>src/index.js&#45;&gt;src/App.js</title>
<path fill="none" stroke="#757575" d="M96.86,-85.13C117.84,-94.18 148.36,-106.52 176,-114.5 194.25,-119.77 214.7,-124.04 232.61,-127.27"/>
<polygon fill="#757575" stroke="#757575" points="232.1,-130.73 242.55,-128.99 233.3,-123.83 232.1,-130.73"/>
</g>
<!-- src/index.js&#45;&gt;src/index.css -->
<g id="edge8" class="edge">
<title>src/index.js&#45;&gt;src/index.css</title>
<path fill="none" stroke="#757575" d="M112.29,-77.45C144.02,-80.49 188.19,-84.71 223.24,-88.07"/>
<polygon fill="#757575" stroke="#757575" points="223.04,-91.57 233.33,-89.03 223.71,-84.6 223.04,-91.57"/>
</g>
<!-- src/reportWebVitals.js -->
<g id="node11" class="node">
<title>src/reportWebVitals.js</title>
<path fill="none" stroke="#cfffac" d="M347.33,-64C347.33,-64 214.67,-64 214.67,-64 210.83,-64 207,-60.17 207,-56.33 207,-56.33 207,-48.67 207,-48.67 207,-44.83 210.83,-41 214.67,-41 214.67,-41 347.33,-41 347.33,-41 351.17,-41 355,-44.83 355,-48.67 355,-48.67 355,-56.33 355,-56.33 355,-60.17 351.17,-64 347.33,-64"/>
<text text-anchor="middle" x="281" y="-48.8" font-family="Arial" font-size="14.00" fill="#cfffac">src/reportWebVitals.js</text>
</g>
<!-- src/index.js&#45;&gt;src/reportWebVitals.js -->
<g id="edge9" class="edge">
<title>src/index.js&#45;&gt;src/reportWebVitals.js</title>
<path fill="none" stroke="#757575" d="M112.29,-69.35C136.34,-66.93 167.55,-63.8 196.51,-60.89"/>
<polygon fill="#757575" stroke="#757575" points="197.04,-64.35 206.64,-59.87 196.34,-57.39 197.04,-64.35"/>
</g>
<!-- src/serviceWorkerRegistration.js -->
<g id="node12" class="node">
<title>src/serviceWorkerRegistration.js</title>
<path fill="none" stroke="#cfffac" d="M378.33,-23C378.33,-23 183.67,-23 183.67,-23 179.83,-23 176,-19.17 176,-15.33 176,-15.33 176,-7.67 176,-7.67 176,-3.83 179.83,0 183.67,0 183.67,0 378.33,0 378.33,0 382.17,0 386,-3.83 386,-7.67 386,-7.67 386,-15.33 386,-15.33 386,-19.17 382.17,-23 378.33,-23"/>
<text text-anchor="middle" x="281" y="-7.8" font-family="Arial" font-size="14.00" fill="#cfffac">src/serviceWorkerRegistration.js</text>
</g>
<!-- src/index.js&#45;&gt;src/serviceWorkerRegistration.js -->
<g id="edge10" class="edge">
<title>src/index.js&#45;&gt;src/serviceWorkerRegistration.js</title>
<path fill="none" stroke="#757575" d="M95.98,-61.94C116.96,-52.61 147.93,-39.73 176,-31.5 183.78,-29.22 191.96,-27.13 200.18,-25.24"/>
<polygon fill="#757575" stroke="#757575" points="201.18,-28.6 210.19,-23.02 199.67,-21.76 201.18,-28.6"/>
</g>
<!-- src/service&#45;worker.js -->
<g id="node14" class="node">
<title>src/service&#45;worker.js</title>
<path fill="none" stroke="#cfffac" d="M132.33,-187C132.33,-187 7.67,-187 7.67,-187 3.83,-187 0,-183.17 0,-179.33 0,-179.33 0,-171.67 0,-171.67 0,-167.83 3.83,-164 7.67,-164 7.67,-164 132.33,-164 132.33,-164 136.17,-164 140,-167.83 140,-171.67 140,-171.67 140,-179.33 140,-179.33 140,-183.17 136.17,-187 132.33,-187"/>
<text text-anchor="middle" x="70" y="-171.8" font-family="Arial" font-size="14.00" fill="#cfffac">src/service&#45;worker.js</text>
</g>
<!-- src/setupTests.js -->
<g id="node15" class="node">
<title>src/setupTests.js</title>
<path fill="none" stroke="#cfffac" d="M120.33,-228C120.33,-228 19.67,-228 19.67,-228 15.83,-228 12,-224.17 12,-220.33 12,-220.33 12,-212.67 12,-212.67 12,-208.83 15.83,-205 19.67,-205 19.67,-205 120.33,-205 120.33,-205 124.17,-205 128,-208.83 128,-212.67 128,-212.67 128,-220.33 128,-220.33 128,-224.17 124.17,-228 120.33,-228"/>
<text text-anchor="middle" x="70" y="-212.8" font-family="Arial" font-size="14.00" fill="#cfffac">src/setupTests.js</text>
</g>
</g>
</svg>
