<?xml version="1.0" encoding="UTF-8" standalone="no"?>
<!DOCTYPE svg PUBLIC "-//W3C//DTD SVG 1.1//EN"
 "http://www.w3.org/Graphics/SVG/1.1/DTD/svg11.dtd">
<!-- Generated by graphviz version 2.43.0 (0)
 -->
<!-- Title: G Pages: 1 -->
<svg width="2069pt" height="292pt"
 viewBox="0.00 0.00 2069.20 292.20" xmlns="http://www.w3.org/2000/svg" xmlns:xlink="http://www.w3.org/1999/xlink">
<g id="graph0" class="graph" transform="scale(1 1) rotate(0) translate(21.6 270.6)">
<title>G</title>
<polygon fill="#111111" stroke="transparent" points="-21.6,21.6 -21.6,-270.6 2047.6,-270.6 2047.6,21.6 -21.6,21.6"/>
<!-- src/App.css -->
<g id="node1" class="node">
<title>src/App.css</title>
<path fill="none" stroke="#cfffac" d="M608.83,-228C608.83,-228 538.17,-228 538.17,-228 534.33,-228 530.5,-224.17 530.5,-220.33 530.5,-220.33 530.5,-212.67 530.5,-212.67 530.5,-208.83 534.33,-205 538.17,-205 538.17,-205 608.83,-205 608.83,-205 612.67,-205 616.5,-208.83 616.5,-212.67 616.5,-212.67 616.5,-220.33 616.5,-220.33 616.5,-224.17 612.67,-228 608.83,-228"/>
<text text-anchor="middle" x="573.5" y="-212.8" font-family="Arial" font-size="14.00" fill="#cfffac">src/App.css</text>
</g>
<!-- src/App.js -->
<g id="node2" class="node">
<title>src/App.js</title>
<path fill="none" stroke="#c6c5fe" d="M311.33,-167C311.33,-167 250.67,-167 250.67,-167 246.83,-167 243,-163.17 243,-159.33 243,-159.33 243,-151.67 243,-151.67 243,-147.83 246.83,-144 250.67,-144 250.67,-144 311.33,-144 311.33,-144 315.17,-144 319,-147.83 319,-151.67 319,-151.67 319,-159.33 319,-159.33 319,-163.17 315.17,-167 311.33,-167"/>
<text text-anchor="middle" x="281" y="-151.8" font-family="Arial" font-size="14.00" fill="#c6c5fe">src/App.js</text>
</g>
<!-- src/App.js&#45;&gt;src/App.css -->
<g id="edge1" class="edge">
<title>src/App.js&#45;&gt;src/App.css</title>
<path fill="none" stroke="#757575" d="M316.15,-167.09C344.27,-176.25 385.33,-188.74 422,-196.5 454.41,-203.36 491.27,-208.3 520.4,-211.56"/>
<polygon fill="#757575" stroke="#757575" points="520.04,-215.04 530.36,-212.64 520.8,-208.08 520.04,-215.04"/>
</g>
<!-- src/components/header/header.component.jsx -->
<g id="node3" class="node">
<title>src/components/header/header.component.jsx</title>
<path fill="none" stroke="#c6c5fe" d="M713.83,-187C713.83,-187 433.17,-187 433.17,-187 429.33,-187 425.5,-183.17 425.5,-179.33 425.5,-179.33 425.5,-171.67 425.5,-171.67 425.5,-167.83 429.33,-164 433.17,-164 433.17,-164 713.83,-164 713.83,-164 717.67,-164 721.5,-167.83 721.5,-171.67 721.5,-171.67 721.5,-179.33 721.5,-179.33 721.5,-183.17 717.67,-187 713.83,-187"/>
<text text-anchor="middle" x="573.5" y="-171.8" font-family="Arial" font-size="14.00" fill="#c6c5fe">src/components/header/header.component.jsx</text>
</g>
<!-- src/App.js&#45;&gt;src/components/header/header.component.jsx -->
<g id="edge2" class="edge">
<title>src/App.js&#45;&gt;src/components/header/header.component.jsx</title>
<path fill="none" stroke="#757575" d="M319.09,-158.05C344.18,-159.78 379.22,-162.19 415.25,-164.67"/>
<polygon fill="#757575" stroke="#757575" points="415.21,-168.18 425.43,-165.37 415.69,-161.2 415.21,-168.18"/>
</g>
<!-- src/pages/homepage/homepage.component.jsx -->
<g id="node4" class="node">
<title>src/pages/homepage/homepage.component.jsx</title>
<path fill="none" stroke="#c6c5fe" d="M717.33,-146C717.33,-146 429.67,-146 429.67,-146 425.83,-146 422,-142.17 422,-138.33 422,-138.33 422,-130.67 422,-130.67 422,-126.83 425.83,-123 429.67,-123 429.67,-123 717.33,-123 717.33,-123 721.17,-123 725,-126.83 725,-130.67 725,-130.67 725,-138.33 725,-138.33 725,-142.17 721.17,-146 717.33,-146"/>
<text text-anchor="middle" x="573.5" y="-130.8" font-family="Arial" font-size="14.00" fill="#c6c5fe">src/pages/homepage/homepage.component.jsx</text>
</g>
<!-- src/App.js&#45;&gt;src/pages/homepage/homepage.component.jsx -->
<g id="edge3" class="edge">
<title>src/App.js&#45;&gt;src/pages/homepage/homepage.component.jsx</title>
<path fill="none" stroke="#757575" d="M319.09,-152.82C343.31,-151.07 376.79,-148.65 411.49,-146.14"/>
<polygon fill="#757575" stroke="#757575" points="412.07,-149.61 421.79,-145.39 411.57,-142.62 412.07,-149.61"/>
</g>
<!-- src/pages/shop/shop.component.jsx -->
<g id="node5" class="node">
<title>src/pages/shop/shop.component.jsx</title>
<path fill="none" stroke="#c6c5fe" d="M682.33,-64C682.33,-64 464.67,-64 464.67,-64 460.83,-64 457,-60.17 457,-56.33 457,-56.33 457,-48.67 457,-48.67 457,-44.83 460.83,-41 464.67,-41 464.67,-41 682.33,-41 682.33,-41 686.17,-41 690,-44.83 690,-48.67 690,-48.67 690,-56.33 690,-56.33 690,-60.17 686.17,-64 682.33,-64"/>
<text text-anchor="middle" x="573.5" y="-48.8" font-family="Arial" font-size="14.00" fill="#c6c5fe">src/pages/shop/shop.component.jsx</text>
</g>
<!-- src/App.js&#45;&gt;src/pages/shop/shop.component.jsx -->
<g id="edge4" class="edge">
<title>src/App.js&#45;&gt;src/pages/shop/shop.component.jsx</title>
<path fill="none" stroke="#757575" d="M319.41,-151.42C339.59,-148.45 364.65,-143.51 386,-135.5 403.34,-128.99 405.4,-122.71 422,-114.5 458.11,-96.63 500.68,-79.44 531.31,-67.71"/>
<polygon fill="#757575" stroke="#757575" points="532.71,-70.92 540.81,-64.1 530.22,-64.38 532.71,-70.92"/>
</g>
<!-- src/assets/crown.svg -->
<g id="node7" class="node">
<title>src/assets/crown.svg</title>
<path fill="none" stroke="#cfffac" d="M1037.33,-228C1037.33,-228 910.67,-228 910.67,-228 906.83,-228 903,-224.17 903,-220.33 903,-220.33 903,-212.67 903,-212.67 903,-208.83 906.83,-205 910.67,-205 910.67,-205 1037.33,-205 1037.33,-205 1041.17,-205 1045,-208.83 1045,-212.67 1045,-212.67 1045,-220.33 1045,-220.33 1045,-224.17 1041.17,-228 1037.33,-228"/>
<text text-anchor="middle" x="974" y="-212.8" font-family="Arial" font-size="14.00" fill="#cfffac">src/assets/crown.svg</text>
</g>
<!-- src/components/header/header.component.jsx&#45;&gt;src/assets/crown.svg -->
<g id="edge11" class="edge">
<title>src/components/header/header.component.jsx&#45;&gt;src/assets/crown.svg</title>
<path fill="none" stroke="#757575" d="M673.67,-187C701.88,-190.18 732.64,-193.57 761,-196.5 804.47,-201 853,-205.61 892.64,-209.26"/>
<polygon fill="#757575" stroke="#757575" points="892.51,-212.77 902.78,-210.2 893.15,-205.8 892.51,-212.77"/>
</g>
<!-- src/components/header/header.styles.scss -->
<g id="node15" class="node">
<title>src/components/header/header.styles.scss</title>
<path fill="none" stroke="#cfffac" d="M1102.83,-187C1102.83,-187 845.17,-187 845.17,-187 841.33,-187 837.5,-183.17 837.5,-179.33 837.5,-179.33 837.5,-171.67 837.5,-171.67 837.5,-167.83 841.33,-164 845.17,-164 845.17,-164 1102.83,-164 1102.83,-164 1106.67,-164 1110.5,-167.83 1110.5,-171.67 1110.5,-171.67 1110.5,-179.33 1110.5,-179.33 1110.5,-183.17 1106.67,-187 1102.83,-187"/>
<text text-anchor="middle" x="974" y="-171.8" font-family="Arial" font-size="14.00" fill="#cfffac">src/components/header/header.styles.scss</text>
</g>
<!-- src/components/header/header.component.jsx&#45;&gt;src/components/header/header.styles.scss -->
<g id="edge12" class="edge">
<title>src/components/header/header.component.jsx&#45;&gt;src/components/header/header.styles.scss</title>
<path fill="none" stroke="#757575" d="M721.75,-175.5C756.16,-175.5 792.79,-175.5 827.14,-175.5"/>
<polygon fill="#757575" stroke="#757575" points="827.24,-179 837.24,-175.5 827.24,-172 827.24,-179"/>
</g>
<!-- src/components/directory/directory.component.jsx -->
<g id="node12" class="node">
<title>src/components/directory/directory.component.jsx</title>
<path fill="none" stroke="#c6c5fe" d="M1123.33,-146C1123.33,-146 824.67,-146 824.67,-146 820.83,-146 817,-142.17 817,-138.33 817,-138.33 817,-130.67 817,-130.67 817,-126.83 820.83,-123 824.67,-123 824.67,-123 1123.33,-123 1123.33,-123 1127.17,-123 1131,-126.83 1131,-130.67 1131,-130.67 1131,-138.33 1131,-138.33 1131,-142.17 1127.17,-146 1123.33,-146"/>
<text text-anchor="middle" x="974" y="-130.8" font-family="Arial" font-size="14.00" fill="#c6c5fe">src/components/directory/directory.component.jsx</text>
</g>
<!-- src/pages/homepage/homepage.component.jsx&#45;&gt;src/components/directory/directory.component.jsx -->
<g id="edge18" class="edge">
<title>src/pages/homepage/homepage.component.jsx&#45;&gt;src/components/directory/directory.component.jsx</title>
<path fill="none" stroke="#757575" d="M725.16,-134.5C751.74,-134.5 779.54,-134.5 806.53,-134.5"/>
<polygon fill="#757575" stroke="#757575" points="806.82,-138 816.82,-134.5 806.82,-131 806.82,-138"/>
</g>
<!-- src/pages/homepage/homepage.style.scss -->
<g id="node21" class="node">
<title>src/pages/homepage/homepage.style.scss</title>
<path fill="none" stroke="#cfffac" d="M1103.33,-105C1103.33,-105 844.67,-105 844.67,-105 840.83,-105 837,-101.17 837,-97.33 837,-97.33 837,-89.67 837,-89.67 837,-85.83 840.83,-82 844.67,-82 844.67,-82 1103.33,-82 1103.33,-82 1107.17,-82 1111,-85.83 1111,-89.67 1111,-89.67 1111,-97.33 1111,-97.33 1111,-101.17 1107.17,-105 1103.33,-105"/>
<text text-anchor="middle" x="974" y="-89.8" font-family="Arial" font-size="14.00" fill="#cfffac">src/pages/homepage/homepage.style.scss</text>
</g>
<!-- src/pages/homepage/homepage.component.jsx&#45;&gt;src/pages/homepage/homepage.style.scss -->
<g id="edge19" class="edge">
<title>src/pages/homepage/homepage.component.jsx&#45;&gt;src/pages/homepage/homepage.style.scss</title>
<path fill="none" stroke="#757575" d="M680.51,-122.98C706.81,-120.17 734.92,-117.19 761,-114.5 788.11,-111.7 817.19,-108.78 844.84,-106.03"/>
<polygon fill="#757575" stroke="#757575" points="845.36,-109.49 854.96,-105.02 844.67,-102.53 845.36,-109.49"/>
</g>
<!-- src/components/collection&#45;preview/collection&#45;preview.component.jsx -->
<g id="node10" class="node">
<title>src/components/collection&#45;preview/collection&#45;preview.component.jsx</title>
<path fill="none" stroke="#c6c5fe" d="M1179.33,-64C1179.33,-64 768.67,-64 768.67,-64 764.83,-64 761,-60.17 761,-56.33 761,-56.33 761,-48.67 761,-48.67 761,-44.83 764.83,-41 768.67,-41 768.67,-41 1179.33,-41 1179.33,-41 1183.17,-41 1187,-44.83 1187,-48.67 1187,-48.67 1187,-56.33 1187,-56.33 1187,-60.17 1183.17,-64 1179.33,-64"/>
<text text-anchor="middle" x="974" y="-48.8" font-family="Arial" font-size="14.00" fill="#c6c5fe">src/components/collection&#45;preview/collection&#45;preview.component.jsx</text>
</g>
<!-- src/pages/shop/shop.component.jsx&#45;&gt;src/components/collection&#45;preview/collection&#45;preview.component.jsx -->
<g id="edge20" class="edge">
<title>src/pages/shop/shop.component.jsx&#45;&gt;src/components/collection&#45;preview/collection&#45;preview.component.jsx</title>
<path fill="none" stroke="#757575" d="M690.03,-52.5C709.29,-52.5 729.82,-52.5 750.7,-52.5"/>
<polygon fill="#757575" stroke="#757575" points="750.97,-56 760.97,-52.5 750.97,-49 750.97,-56"/>
</g>
<!-- src/pages/shop/shop.data.js -->
<g id="node22" class="node">
<title>src/pages/shop/shop.data.js</title>
<path fill="none" stroke="#cfffac" d="M1058.83,-23C1058.83,-23 889.17,-23 889.17,-23 885.33,-23 881.5,-19.17 881.5,-15.33 881.5,-15.33 881.5,-7.67 881.5,-7.67 881.5,-3.83 885.33,0 889.17,0 889.17,0 1058.83,0 1058.83,0 1062.67,0 1066.5,-3.83 1066.5,-7.67 1066.5,-7.67 1066.5,-15.33 1066.5,-15.33 1066.5,-19.17 1062.67,-23 1058.83,-23"/>
<text text-anchor="middle" x="974" y="-7.8" font-family="Arial" font-size="14.00" fill="#cfffac">src/pages/shop/shop.data.js</text>
</g>
<!-- src/pages/shop/shop.component.jsx&#45;&gt;src/pages/shop/shop.data.js -->
<g id="edge21" class="edge">
<title>src/pages/shop/shop.component.jsx&#45;&gt;src/pages/shop/shop.data.js</title>
<path fill="none" stroke="#757575" d="M673.67,-41C701.88,-37.82 732.64,-34.43 761,-31.5 796.9,-27.79 836.24,-24 871.18,-20.73"/>
<polygon fill="#757575" stroke="#757575" points="871.76,-24.19 881.4,-19.78 871.12,-17.22 871.76,-24.19"/>
</g>
<!-- src/App.test.js -->
<g id="node6" class="node">
<title>src/App.test.js</title>
<path fill="none" stroke="#c6c5fe" d="M112.83,-167C112.83,-167 27.17,-167 27.17,-167 23.33,-167 19.5,-163.17 19.5,-159.33 19.5,-159.33 19.5,-151.67 19.5,-151.67 19.5,-147.83 23.33,-144 27.17,-144 27.17,-144 112.83,-144 112.83,-144 116.67,-144 120.5,-147.83 120.5,-151.67 120.5,-151.67 120.5,-159.33 120.5,-159.33 120.5,-163.17 116.67,-167 112.83,-167"/>
<text text-anchor="middle" x="70" y="-151.8" font-family="Arial" font-size="14.00" fill="#c6c5fe">src/App.test.js</text>
</g>
<!-- src/App.test.js&#45;&gt;src/App.js -->
<g id="edge5" class="edge">
<title>src/App.test.js&#45;&gt;src/App.js</title>
<path fill="none" stroke="#757575" d="M120.53,-155.5C154.55,-155.5 199.44,-155.5 232.92,-155.5"/>
<polygon fill="#757575" stroke="#757575" points="232.92,-159 242.92,-155.5 232.92,-152 232.92,-159"/>
</g>
<!-- src/components/collection&#45;item/collection&#45;item.component.jsx -->
<g id="node8" class="node">
<title>src/components/collection&#45;item/collection&#45;item.component.jsx</title>
<path fill="none" stroke="#c6c5fe" d="M1610.33,-84C1610.33,-84 1239.67,-84 1239.67,-84 1235.83,-84 1232,-80.17 1232,-76.33 1232,-76.33 1232,-68.67 1232,-68.67 1232,-64.83 1235.83,-61 1239.67,-61 1239.67,-61 1610.33,-61 1610.33,-61 1614.17,-61 1618,-64.83 1618,-68.67 1618,-68.67 1618,-76.33 1618,-76.33 1618,-80.17 1614.17,-84 1610.33,-84"/>
<text text-anchor="middle" x="1425" y="-68.8" font-family="Arial" font-size="14.00" fill="#c6c5fe">src/components/collection&#45;item/collection&#45;item.component.jsx</text>
</g>
<!-- src/components/collection&#45;item/collection&#45;item.styles.scss -->
<g id="node9" class="node">
<title>src/components/collection&#45;item/collection&#45;item.styles.scss</title>
<path fill="none" stroke="#cfffac" d="M2018.33,-84C2018.33,-84 1670.67,-84 1670.67,-84 1666.83,-84 1663,-80.17 1663,-76.33 1663,-76.33 1663,-68.67 1663,-68.67 1663,-64.83 1666.83,-61 1670.67,-61 1670.67,-61 2018.33,-61 2018.33,-61 2022.17,-61 2026,-64.83 2026,-68.67 2026,-68.67 2026,-76.33 2026,-76.33 2026,-80.17 2022.17,-84 2018.33,-84"/>
<text text-anchor="middle" x="1844.5" y="-68.8" font-family="Arial" font-size="14.00" fill="#cfffac">src/components/collection&#45;item/collection&#45;item.styles.scss</text>
</g>
<!-- src/components/collection&#45;item/collection&#45;item.component.jsx&#45;&gt;src/components/collection&#45;item/collection&#45;item.styles.scss -->
<g id="edge6" class="edge">
<title>src/components/collection&#45;item/collection&#45;item.component.jsx&#45;&gt;src/components/collection&#45;item/collection&#45;item.styles.scss</title>
<path fill="none" stroke="#757575" d="M1618.25,-72.5C1629.76,-72.5 1641.33,-72.5 1652.83,-72.5"/>
<polygon fill="#757575" stroke="#757575" points="1652.91,-76 1662.91,-72.5 1652.91,-69 1652.91,-76"/>
</g>
<!-- src/components/collection&#45;preview/collection&#45;preview.component.jsx&#45;&gt;src/components/collection&#45;item/collection&#45;item.component.jsx -->
<g id="edge7" class="edge">
<title>src/components/collection&#45;preview/collection&#45;preview.component.jsx&#45;&gt;src/components/collection&#45;item/collection&#45;item.component.jsx</title>
<path fill="none" stroke="#757575" d="M1187.01,-61.94C1198.6,-62.46 1210.24,-62.98 1221.79,-63.49"/>
<polygon fill="#757575" stroke="#757575" points="1221.78,-67 1231.92,-63.94 1222.09,-60 1221.78,-67"/>
</g>
<!-- src/components/collection&#45;preview/collection&#45;preview.styles.scss -->
<g id="node11" class="node">
<title>src/components/collection&#45;preview/collection&#45;preview.styles.scss</title>
<path fill="none" stroke="#cfffac" d="M1619.33,-43C1619.33,-43 1230.67,-43 1230.67,-43 1226.83,-43 1223,-39.17 1223,-35.33 1223,-35.33 1223,-27.67 1223,-27.67 1223,-23.83 1226.83,-20 1230.67,-20 1230.67,-20 1619.33,-20 1619.33,-20 1623.17,-20 1627,-23.83 1627,-27.67 1627,-27.67 1627,-35.33 1627,-35.33 1627,-39.17 1623.17,-43 1619.33,-43"/>
<text text-anchor="middle" x="1425" y="-27.8" font-family="Arial" font-size="14.00" fill="#cfffac">src/components/collection&#45;preview/collection&#45;preview.styles.scss</text>
</g>
<!-- src/components/collection&#45;preview/collection&#45;preview.component.jsx&#45;&gt;src/components/collection&#45;preview/collection&#45;preview.styles.scss -->
<g id="edge8" class="edge">
<title>src/components/collection&#45;preview/collection&#45;preview.component.jsx&#45;&gt;src/components/collection&#45;preview/collection&#45;preview.styles.scss</title>
<path fill="none" stroke="#757575" d="M1187.01,-42.58C1195.58,-42.18 1204.17,-41.78 1212.74,-41.38"/>
<polygon fill="#757575" stroke="#757575" points="1212.95,-44.87 1222.78,-40.91 1212.62,-37.88 1212.95,-44.87"/>
</g>
<!-- src/components/directory/directory.styles.scss -->
<g id="node13" class="node">
<title>src/components/directory/directory.styles.scss</title>
<path fill="none" stroke="#cfffac" d="M1563.33,-176C1563.33,-176 1286.67,-176 1286.67,-176 1282.83,-176 1279,-172.17 1279,-168.33 1279,-168.33 1279,-160.67 1279,-160.67 1279,-156.83 1282.83,-153 1286.67,-153 1286.67,-153 1563.33,-153 1563.33,-153 1567.17,-153 1571,-156.83 1571,-160.67 1571,-160.67 1571,-168.33 1571,-168.33 1571,-172.17 1567.17,-176 1563.33,-176"/>
<text text-anchor="middle" x="1425" y="-160.8" font-family="Arial" font-size="14.00" fill="#cfffac">src/components/directory/directory.styles.scss</text>
</g>
<!-- src/components/directory/directory.component.jsx&#45;&gt;src/components/directory/directory.styles.scss -->
<g id="edge9" class="edge">
<title>src/components/directory/directory.component.jsx&#45;&gt;src/components/directory/directory.styles.scss</title>
<path fill="none" stroke="#757575" d="M1131.09,-144.93C1175.7,-147.91 1224.29,-151.16 1268.84,-154.13"/>
<polygon fill="#757575" stroke="#757575" points="1268.66,-157.63 1278.87,-154.8 1269.13,-150.64 1268.66,-157.63"/>
</g>
<!-- src/components/menu&#45;item/menu&#45;item.component.jsx -->
<g id="node14" class="node">
<title>src/components/menu&#45;item/menu&#45;item.component.jsx</title>
<path fill="none" stroke="#c6c5fe" d="M1588.33,-135C1588.33,-135 1261.67,-135 1261.67,-135 1257.83,-135 1254,-131.17 1254,-127.33 1254,-127.33 1254,-119.67 1254,-119.67 1254,-115.83 1257.83,-112 1261.67,-112 1261.67,-112 1588.33,-112 1588.33,-112 1592.17,-112 1596,-115.83 1596,-119.67 1596,-119.67 1596,-127.33 1596,-127.33 1596,-131.17 1592.17,-135 1588.33,-135"/>
<text text-anchor="middle" x="1425" y="-119.8" font-family="Arial" font-size="14.00" fill="#c6c5fe">src/components/menu&#45;item/menu&#45;item.component.jsx</text>
</g>
<!-- src/components/directory/directory.component.jsx&#45;&gt;src/components/menu&#45;item/menu&#45;item.component.jsx -->
<g id="edge10" class="edge">
<title>src/components/directory/directory.component.jsx&#45;&gt;src/components/menu&#45;item/menu&#45;item.component.jsx</title>
<path fill="none" stroke="#757575" d="M1131.09,-130.68C1167.31,-129.79 1206.16,-128.84 1243.33,-127.93"/>
<polygon fill="#757575" stroke="#757575" points="1243.86,-131.41 1253.77,-127.67 1243.69,-124.42 1243.86,-131.41"/>
</g>
<!-- src/components/menu&#45;item/menu&#45;item.styles.scss -->
<g id="node16" class="node">
<title>src/components/menu&#45;item/menu&#45;item.styles.scss</title>
<path fill="none" stroke="#cfffac" d="M1996.83,-135C1996.83,-135 1692.17,-135 1692.17,-135 1688.33,-135 1684.5,-131.17 1684.5,-127.33 1684.5,-127.33 1684.5,-119.67 1684.5,-119.67 1684.5,-115.83 1688.33,-112 1692.17,-112 1692.17,-112 1996.83,-112 1996.83,-112 2000.67,-112 2004.5,-115.83 2004.5,-119.67 2004.5,-119.67 2004.5,-127.33 2004.5,-127.33 2004.5,-131.17 2000.67,-135 1996.83,-135"/>
<text text-anchor="middle" x="1844.5" y="-119.8" font-family="Arial" font-size="14.00" fill="#cfffac">src/components/menu&#45;item/menu&#45;item.styles.scss</text>
</g>
<!-- src/components/menu&#45;item/menu&#45;item.component.jsx&#45;&gt;src/components/menu&#45;item/menu&#45;item.styles.scss -->
<g id="edge13" class="edge">
<title>src/components/menu&#45;item/menu&#45;item.component.jsx&#45;&gt;src/components/menu&#45;item/menu&#45;item.styles.scss</title>
<path fill="none" stroke="#757575" d="M1596.11,-123.5C1621.81,-123.5 1648.31,-123.5 1673.99,-123.5"/>
<polygon fill="#757575" stroke="#757575" points="1674.17,-127 1684.17,-123.5 1674.17,-120 1674.17,-127"/>
</g>
<!-- src/index.css -->
<g id="node17" class="node">
<title>src/index.css</title>
<path fill="none" stroke="#cfffac" d="M320.83,-126C320.83,-126 241.17,-126 241.17,-126 237.33,-126 233.5,-122.17 233.5,-118.33 233.5,-118.33 233.5,-110.67 233.5,-110.67 233.5,-106.83 237.33,-103 241.17,-103 241.17,-103 320.83,-103 320.83,-103 324.67,-103 328.5,-106.83 328.5,-110.67 328.5,-110.67 328.5,-118.33 328.5,-118.33 328.5,-122.17 324.67,-126 320.83,-126"/>
<text text-anchor="middle" x="281" y="-110.8" font-family="Arial" font-size="14.00" fill="#cfffac">src/index.css</text>
</g>
<!-- src/index.js -->
<g id="node18" class="node">
<title>src/index.js</title>
<path fill="none" stroke="#c6c5fe" d="M104.33,-106C104.33,-106 35.67,-106 35.67,-106 31.83,-106 28,-102.17 28,-98.33 28,-98.33 28,-90.67 28,-90.67 28,-86.83 31.83,-83 35.67,-83 35.67,-83 104.33,-83 104.33,-83 108.17,-83 112,-86.83 112,-90.67 112,-90.67 112,-98.33 112,-98.33 112,-102.17 108.17,-106 104.33,-106"/>
<text text-anchor="middle" x="70" y="-90.8" font-family="Arial" font-size="14.00" fill="#c6c5fe">src/index.js</text>
</g>
<!-- src/index.js&#45;&gt;src/App.js -->
<g id="edge14" class="edge">
<title>src/index.js&#45;&gt;src/App.js</title>
<path fill="none" stroke="#757575" d="M96.86,-106.13C117.84,-115.18 148.36,-127.52 176,-135.5 194.25,-140.77 214.7,-145.04 232.61,-148.27"/>
<polygon fill="#757575" stroke="#757575" points="232.1,-151.73 242.55,-149.99 233.3,-144.83 232.1,-151.73"/>
</g>
<!-- src/index.js&#45;&gt;src/index.css -->
<g id="edge15" class="edge">
<title>src/index.js&#45;&gt;src/index.css</title>
<path fill="none" stroke="#757575" d="M112.29,-98.45C144.02,-101.49 188.19,-105.71 223.24,-109.07"/>
<polygon fill="#757575" stroke="#757575" points="223.04,-112.57 233.33,-110.03 223.71,-105.6 223.04,-112.57"/>
</g>
<!-- src/reportWebVitals.js -->
<g id="node19" class="node">
<title>src/reportWebVitals.js</title>
<path fill="none" stroke="#cfffac" d="M347.33,-85C347.33,-85 214.67,-85 214.67,-85 210.83,-85 207,-81.17 207,-77.33 207,-77.33 207,-69.67 207,-69.67 207,-65.83 210.83,-62 214.67,-62 214.67,-62 347.33,-62 347.33,-62 351.17,-62 355,-65.83 355,-69.67 355,-69.67 355,-77.33 355,-77.33 355,-81.17 351.17,-85 347.33,-85"/>
<text text-anchor="middle" x="281" y="-69.8" font-family="Arial" font-size="14.00" fill="#cfffac">src/reportWebVitals.js</text>
</g>
<!-- src/index.js&#45;&gt;src/reportWebVitals.js -->
<g id="edge16" class="edge">
<title>src/index.js&#45;&gt;src/reportWebVitals.js</title>
<path fill="none" stroke="#757575" d="M112.29,-90.35C136.34,-87.93 167.55,-84.8 196.51,-81.89"/>
<polygon fill="#757575" stroke="#757575" points="197.04,-85.35 206.64,-80.87 196.34,-78.39 197.04,-85.35"/>
</g>
<!-- src/serviceWorkerRegistration.js -->
<g id="node20" class="node">
<title>src/serviceWorkerRegistration.js</title>
<path fill="none" stroke="#cfffac" d="M378.33,-44C378.33,-44 183.67,-44 183.67,-44 179.83,-44 176,-40.17 176,-36.33 176,-36.33 176,-28.67 176,-28.67 176,-24.83 179.83,-21 183.67,-21 183.67,-21 378.33,-21 378.33,-21 382.17,-21 386,-24.83 386,-28.67 386,-28.67 386,-36.33 386,-36.33 386,-40.17 382.17,-44 378.33,-44"/>
<text text-anchor="middle" x="281" y="-28.8" font-family="Arial" font-size="14.00" fill="#cfffac">src/serviceWorkerRegistration.js</text>
</g>
<!-- src/index.js&#45;&gt;src/serviceWorkerRegistration.js -->
<g id="edge17" class="edge">
<title>src/index.js&#45;&gt;src/serviceWorkerRegistration.js</title>
<path fill="none" stroke="#757575" d="M95.98,-82.94C116.96,-73.61 147.93,-60.73 176,-52.5 183.78,-50.22 191.96,-48.13 200.18,-46.24"/>
<polygon fill="#757575" stroke="#757575" points="201.18,-49.6 210.19,-44.02 199.67,-42.76 201.18,-49.6"/>
</g>
<!-- src/service&#45;worker.js -->
<g id="node23" class="node">
<title>src/service&#45;worker.js</title>
<path fill="none" stroke="#cfffac" d="M132.33,-208C132.33,-208 7.67,-208 7.67,-208 3.83,-208 0,-204.17 0,-200.33 0,-200.33 0,-192.67 0,-192.67 0,-188.83 3.83,-185 7.67,-185 7.67,-185 132.33,-185 132.33,-185 136.17,-185 140,-188.83 140,-192.67 140,-192.67 140,-200.33 140,-200.33 140,-204.17 136.17,-208 132.33,-208"/>
<text text-anchor="middle" x="70" y="-192.8" font-family="Arial" font-size="14.00" fill="#cfffac">src/service&#45;worker.js</text>
</g>
<!-- src/setupTests.js -->
<g id="node24" class="node">
<title>src/setupTests.js</title>
<path fill="none" stroke="#cfffac" d="M120.33,-249C120.33,-249 19.67,-249 19.67,-249 15.83,-249 12,-245.17 12,-241.33 12,-241.33 12,-233.67 12,-233.67 12,-229.83 15.83,-226 19.67,-226 19.67,-226 120.33,-226 120.33,-226 124.17,-226 128,-229.83 128,-233.67 128,-233.67 128,-241.33 128,-241.33 128,-245.17 124.17,-249 120.33,-249"/>
<text text-anchor="middle" x="70" y="-233.8" font-family="Arial" font-size="14.00" fill="#cfffac">src/setupTests.js</text>
</g>
</g>
</svg>
