<?xml version="1.0" encoding="UTF-8" standalone="no"?>
<!DOCTYPE svg PUBLIC "-//W3C//DTD SVG 1.1//EN"
 "http://www.w3.org/Graphics/SVG/1.1/DTD/svg11.dtd">
<!-- Generated by graphviz version 2.43.0 (0)
 -->
<!-- Title: G Pages: 1 -->
<svg width="2069pt" height="271pt"
 viewBox="0.00 0.00 2069.20 271.20" xmlns="http://www.w3.org/2000/svg" xmlns:xlink="http://www.w3.org/1999/xlink">
<g id="graph0" class="graph" transform="scale(1 1) rotate(0) translate(21.6 249.6)">
<title>G</title>
<polygon fill="#111111" stroke="transparent" points="-21.6,21.6 -21.6,-249.6 2047.6,-249.6 2047.6,21.6 -21.6,21.6"/>
<!-- src/App.css -->
<g id="node1" class="node">
<title>src/App.css</title>
<path fill="none" stroke="#cfffac" d="M608.83,-187C608.83,-187 538.17,-187 538.17,-187 534.33,-187 530.5,-183.17 530.5,-179.33 530.5,-179.33 530.5,-171.67 530.5,-171.67 530.5,-167.83 534.33,-164 538.17,-164 538.17,-164 608.83,-164 608.83,-164 612.67,-164 616.5,-167.83 616.5,-171.67 616.5,-171.67 616.5,-179.33 616.5,-179.33 616.5,-183.17 612.67,-187 608.83,-187"/>
<text text-anchor="middle" x="573.5" y="-171.8" font-family="Arial" font-size="14.00" fill="#cfffac">src/App.css</text>
</g>
<!-- src/App.js -->
<g id="node2" class="node">
<title>src/App.js</title>
<path fill="none" stroke="#c6c5fe" d="M311.33,-146C311.33,-146 250.67,-146 250.67,-146 246.83,-146 243,-142.17 243,-138.33 243,-138.33 243,-130.67 243,-130.67 243,-126.83 246.83,-123 250.67,-123 250.67,-123 311.33,-123 311.33,-123 315.17,-123 319,-126.83 319,-130.67 319,-130.67 319,-138.33 319,-138.33 319,-142.17 315.17,-146 311.33,-146"/>
<text text-anchor="middle" x="281" y="-130.8" font-family="Arial" font-size="14.00" fill="#c6c5fe">src/App.js</text>
</g>
<!-- src/App.js&#45;&gt;src/App.css -->
<g id="edge1" class="edge">
<title>src/App.js&#45;&gt;src/App.css</title>
<path fill="none" stroke="#757575" d="M319.12,-140.24C347.32,-144.56 387.08,-150.56 422,-155.5 454.54,-160.1 491.09,-164.97 520.02,-168.74"/>
<polygon fill="#757575" stroke="#757575" points="519.94,-172.26 530.31,-170.09 520.84,-165.32 519.94,-172.26"/>
</g>
<!-- src/pages/homepage/homepage.component.jsx -->
<g id="node3" class="node">
<title>src/pages/homepage/homepage.component.jsx</title>
<path fill="none" stroke="#c6c5fe" d="M717.33,-146C717.33,-146 429.67,-146 429.67,-146 425.83,-146 422,-142.17 422,-138.33 422,-138.33 422,-130.67 422,-130.67 422,-126.83 425.83,-123 429.67,-123 429.67,-123 717.33,-123 717.33,-123 721.17,-123 725,-126.83 725,-130.67 725,-130.67 725,-138.33 725,-138.33 725,-142.17 721.17,-146 717.33,-146"/>
<text text-anchor="middle" x="573.5" y="-130.8" font-family="Arial" font-size="14.00" fill="#c6c5fe">src/pages/homepage/homepage.component.jsx</text>
</g>
<!-- src/App.js&#45;&gt;src/pages/homepage/homepage.component.jsx -->
<g id="edge2" class="edge">
<title>src/App.js&#45;&gt;src/pages/homepage/homepage.component.jsx</title>
<path fill="none" stroke="#757575" d="M319.09,-134.5C343.31,-134.5 376.79,-134.5 411.49,-134.5"/>
<polygon fill="#757575" stroke="#757575" points="411.79,-138 421.79,-134.5 411.79,-131 411.79,-138"/>
</g>
<!-- src/pages/shop/shop.component.jsx -->
<g id="node4" class="node">
<title>src/pages/shop/shop.component.jsx</title>
<path fill="none" stroke="#c6c5fe" d="M682.33,-105C682.33,-105 464.67,-105 464.67,-105 460.83,-105 457,-101.17 457,-97.33 457,-97.33 457,-89.67 457,-89.67 457,-85.83 460.83,-82 464.67,-82 464.67,-82 682.33,-82 682.33,-82 686.17,-82 690,-85.83 690,-89.67 690,-89.67 690,-97.33 690,-97.33 690,-101.17 686.17,-105 682.33,-105"/>
<text text-anchor="middle" x="573.5" y="-89.8" font-family="Arial" font-size="14.00" fill="#c6c5fe">src/pages/shop/shop.component.jsx</text>
</g>
<!-- src/App.js&#45;&gt;src/pages/shop/shop.component.jsx -->
<g id="edge3" class="edge">
<title>src/App.js&#45;&gt;src/pages/shop/shop.component.jsx</title>
<path fill="none" stroke="#757575" d="M319.14,-129.16C347.35,-125.11 387.11,-119.43 422,-114.5 440.6,-111.87 460.5,-109.08 479.53,-106.42"/>
<polygon fill="#757575" stroke="#757575" points="480.27,-109.85 489.69,-105.01 479.31,-102.92 480.27,-109.85"/>
</g>
<!-- src/components/directory/directory.component.jsx -->
<g id="node10" class="node">
<title>src/components/directory/directory.component.jsx</title>
<path fill="none" stroke="#c6c5fe" d="M1123.33,-187C1123.33,-187 824.67,-187 824.67,-187 820.83,-187 817,-183.17 817,-179.33 817,-179.33 817,-171.67 817,-171.67 817,-167.83 820.83,-164 824.67,-164 824.67,-164 1123.33,-164 1123.33,-164 1127.17,-164 1131,-167.83 1131,-171.67 1131,-171.67 1131,-179.33 1131,-179.33 1131,-183.17 1127.17,-187 1123.33,-187"/>
<text text-anchor="middle" x="974" y="-171.8" font-family="Arial" font-size="14.00" fill="#c6c5fe">src/components/directory/directory.component.jsx</text>
</g>
<!-- src/pages/homepage/homepage.component.jsx&#45;&gt;src/components/directory/directory.component.jsx -->
<g id="edge15" class="edge">
<title>src/pages/homepage/homepage.component.jsx&#45;&gt;src/components/directory/directory.component.jsx</title>
<path fill="none" stroke="#757575" d="M673.67,-146C701.88,-149.18 732.64,-152.57 761,-155.5 785.51,-158.04 811.63,-160.61 836.86,-163.02"/>
<polygon fill="#757575" stroke="#757575" points="836.56,-166.51 846.85,-163.98 837.23,-159.54 836.56,-166.51"/>
</g>
<!-- src/pages/homepage/homepage.style.scss -->
<g id="node18" class="node">
<title>src/pages/homepage/homepage.style.scss</title>
<path fill="none" stroke="#cfffac" d="M1103.33,-146C1103.33,-146 844.67,-146 844.67,-146 840.83,-146 837,-142.17 837,-138.33 837,-138.33 837,-130.67 837,-130.67 837,-126.83 840.83,-123 844.67,-123 844.67,-123 1103.33,-123 1103.33,-123 1107.17,-123 1111,-126.83 1111,-130.67 1111,-130.67 1111,-138.33 1111,-138.33 1111,-142.17 1107.17,-146 1103.33,-146"/>
<text text-anchor="middle" x="974" y="-130.8" font-family="Arial" font-size="14.00" fill="#cfffac">src/pages/homepage/homepage.style.scss</text>
</g>
<!-- src/pages/homepage/homepage.component.jsx&#45;&gt;src/pages/homepage/homepage.style.scss -->
<g id="edge16" class="edge">
<title>src/pages/homepage/homepage.component.jsx&#45;&gt;src/pages/homepage/homepage.style.scss</title>
<path fill="none" stroke="#757575" d="M725.16,-134.5C758.41,-134.5 793.59,-134.5 826.68,-134.5"/>
<polygon fill="#757575" stroke="#757575" points="826.87,-138 836.87,-134.5 826.87,-131 826.87,-138"/>
</g>
<!-- src/components/collection&#45;preview/collection&#45;preview.component.jsx -->
<g id="node8" class="node">
<title>src/components/collection&#45;preview/collection&#45;preview.component.jsx</title>
<path fill="none" stroke="#c6c5fe" d="M1179.33,-105C1179.33,-105 768.67,-105 768.67,-105 764.83,-105 761,-101.17 761,-97.33 761,-97.33 761,-89.67 761,-89.67 761,-85.83 764.83,-82 768.67,-82 768.67,-82 1179.33,-82 1179.33,-82 1183.17,-82 1187,-85.83 1187,-89.67 1187,-89.67 1187,-97.33 1187,-97.33 1187,-101.17 1183.17,-105 1179.33,-105"/>
<text text-anchor="middle" x="974" y="-89.8" font-family="Arial" font-size="14.00" fill="#c6c5fe">src/components/collection&#45;preview/collection&#45;preview.component.jsx</text>
</g>
<!-- src/pages/shop/shop.component.jsx&#45;&gt;src/components/collection&#45;preview/collection&#45;preview.component.jsx -->
<g id="edge17" class="edge">
<title>src/pages/shop/shop.component.jsx&#45;&gt;src/components/collection&#45;preview/collection&#45;preview.component.jsx</title>
<path fill="none" stroke="#757575" d="M690.03,-93.5C709.29,-93.5 729.82,-93.5 750.7,-93.5"/>
<polygon fill="#757575" stroke="#757575" points="750.97,-97 760.97,-93.5 750.97,-90 750.97,-97"/>
</g>
<!-- src/pages/shop/shop.data.js -->
<g id="node19" class="node">
<title>src/pages/shop/shop.data.js</title>
<path fill="none" stroke="#cfffac" d="M1058.83,-64C1058.83,-64 889.17,-64 889.17,-64 885.33,-64 881.5,-60.17 881.5,-56.33 881.5,-56.33 881.5,-48.67 881.5,-48.67 881.5,-44.83 885.33,-41 889.17,-41 889.17,-41 1058.83,-41 1058.83,-41 1062.67,-41 1066.5,-44.83 1066.5,-48.67 1066.5,-48.67 1066.5,-56.33 1066.5,-56.33 1066.5,-60.17 1062.67,-64 1058.83,-64"/>
<text text-anchor="middle" x="974" y="-48.8" font-family="Arial" font-size="14.00" fill="#cfffac">src/pages/shop/shop.data.js</text>
</g>
<!-- src/pages/shop/shop.component.jsx&#45;&gt;src/pages/shop/shop.data.js -->
<g id="edge18" class="edge">
<title>src/pages/shop/shop.component.jsx&#45;&gt;src/pages/shop/shop.data.js</title>
<path fill="none" stroke="#757575" d="M673.67,-82C701.88,-78.82 732.64,-75.43 761,-72.5 796.9,-68.79 836.24,-65 871.18,-61.73"/>
<polygon fill="#757575" stroke="#757575" points="871.76,-65.19 881.4,-60.78 871.12,-58.22 871.76,-65.19"/>
</g>
<!-- src/App.test.js -->
<g id="node5" class="node">
<title>src/App.test.js</title>
<path fill="none" stroke="#c6c5fe" d="M112.83,-146C112.83,-146 27.17,-146 27.17,-146 23.33,-146 19.5,-142.17 19.5,-138.33 19.5,-138.33 19.5,-130.67 19.5,-130.67 19.5,-126.83 23.33,-123 27.17,-123 27.17,-123 112.83,-123 112.83,-123 116.67,-123 120.5,-126.83 120.5,-130.67 120.5,-130.67 120.5,-138.33 120.5,-138.33 120.5,-142.17 116.67,-146 112.83,-146"/>
<text text-anchor="middle" x="70" y="-130.8" font-family="Arial" font-size="14.00" fill="#c6c5fe">src/App.test.js</text>
</g>
<!-- src/App.test.js&#45;&gt;src/App.js -->
<g id="edge4" class="edge">
<title>src/App.test.js&#45;&gt;src/App.js</title>
<path fill="none" stroke="#757575" d="M120.53,-134.5C154.55,-134.5 199.44,-134.5 232.92,-134.5"/>
<polygon fill="#757575" stroke="#757575" points="232.92,-138 242.92,-134.5 232.92,-131 232.92,-138"/>
</g>
<!-- src/components/collection&#45;item/collection&#45;item.component.jsx -->
<g id="node6" class="node">
<title>src/components/collection&#45;item/collection&#45;item.component.jsx</title>
<path fill="none" stroke="#c6c5fe" d="M1610.33,-115C1610.33,-115 1239.67,-115 1239.67,-115 1235.83,-115 1232,-111.17 1232,-107.33 1232,-107.33 1232,-99.67 1232,-99.67 1232,-95.83 1235.83,-92 1239.67,-92 1239.67,-92 1610.33,-92 1610.33,-92 1614.17,-92 1618,-95.83 1618,-99.67 1618,-99.67 1618,-107.33 1618,-107.33 1618,-111.17 1614.17,-115 1610.33,-115"/>
<text text-anchor="middle" x="1425" y="-99.8" font-family="Arial" font-size="14.00" fill="#c6c5fe">src/components/collection&#45;item/collection&#45;item.component.jsx</text>
</g>
<!-- src/components/collection&#45;item/collection&#45;item.styles.scss -->
<g id="node7" class="node">
<title>src/components/collection&#45;item/collection&#45;item.styles.scss</title>
<path fill="none" stroke="#cfffac" d="M2018.33,-115C2018.33,-115 1670.67,-115 1670.67,-115 1666.83,-115 1663,-111.17 1663,-107.33 1663,-107.33 1663,-99.67 1663,-99.67 1663,-95.83 1666.83,-92 1670.67,-92 1670.67,-92 2018.33,-92 2018.33,-92 2022.17,-92 2026,-95.83 2026,-99.67 2026,-99.67 2026,-107.33 2026,-107.33 2026,-111.17 2022.17,-115 2018.33,-115"/>
<text text-anchor="middle" x="1844.5" y="-99.8" font-family="Arial" font-size="14.00" fill="#cfffac">src/components/collection&#45;item/collection&#45;item.styles.scss</text>
</g>
<!-- src/components/collection&#45;item/collection&#45;item.component.jsx&#45;&gt;src/components/collection&#45;item/collection&#45;item.styles.scss -->
<g id="edge5" class="edge">
<title>src/components/collection&#45;item/collection&#45;item.component.jsx&#45;&gt;src/components/collection&#45;item/collection&#45;item.styles.scss</title>
<path fill="none" stroke="#757575" d="M1618.25,-103.5C1629.76,-103.5 1641.33,-103.5 1652.83,-103.5"/>
<polygon fill="#757575" stroke="#757575" points="1652.91,-107 1662.91,-103.5 1652.91,-100 1652.91,-107"/>
</g>
<!-- src/components/collection&#45;preview/collection&#45;preview.component.jsx&#45;&gt;src/components/collection&#45;item/collection&#45;item.component.jsx -->
<g id="edge6" class="edge">
<title>src/components/collection&#45;preview/collection&#45;preview.component.jsx&#45;&gt;src/components/collection&#45;item/collection&#45;item.component.jsx</title>
<path fill="none" stroke="#757575" d="M1187.01,-98.22C1198.6,-98.48 1210.24,-98.74 1221.79,-99"/>
<polygon fill="#757575" stroke="#757575" points="1221.85,-102.5 1231.92,-99.22 1222,-95.5 1221.85,-102.5"/>
</g>
<!-- src/components/collection&#45;preview/collection&#45;preview.styles.scss -->
<g id="node9" class="node">
<title>src/components/collection&#45;preview/collection&#45;preview.styles.scss</title>
<path fill="none" stroke="#cfffac" d="M1619.33,-74C1619.33,-74 1230.67,-74 1230.67,-74 1226.83,-74 1223,-70.17 1223,-66.33 1223,-66.33 1223,-58.67 1223,-58.67 1223,-54.83 1226.83,-51 1230.67,-51 1230.67,-51 1619.33,-51 1619.33,-51 1623.17,-51 1627,-54.83 1627,-58.67 1627,-58.67 1627,-66.33 1627,-66.33 1627,-70.17 1623.17,-74 1619.33,-74"/>
<text text-anchor="middle" x="1425" y="-58.8" font-family="Arial" font-size="14.00" fill="#cfffac">src/components/collection&#45;preview/collection&#45;preview.styles.scss</text>
</g>
<!-- src/components/collection&#45;preview/collection&#45;preview.component.jsx&#45;&gt;src/components/collection&#45;preview/collection&#45;preview.styles.scss -->
<g id="edge7" class="edge">
<title>src/components/collection&#45;preview/collection&#45;preview.component.jsx&#45;&gt;src/components/collection&#45;preview/collection&#45;preview.styles.scss</title>
<path fill="none" stroke="#757575" d="M1141.87,-81.98C1176.15,-79.61 1212.36,-77.11 1246.99,-74.72"/>
<polygon fill="#757575" stroke="#757575" points="1247.46,-78.2 1257.19,-74.02 1246.97,-71.21 1247.46,-78.2"/>
</g>
<!-- src/components/directory/directory.styles.scss -->
<g id="node11" class="node">
<title>src/components/directory/directory.styles.scss</title>
<path fill="none" stroke="#cfffac" d="M1563.33,-217C1563.33,-217 1286.67,-217 1286.67,-217 1282.83,-217 1279,-213.17 1279,-209.33 1279,-209.33 1279,-201.67 1279,-201.67 1279,-197.83 1282.83,-194 1286.67,-194 1286.67,-194 1563.33,-194 1563.33,-194 1567.17,-194 1571,-197.83 1571,-201.67 1571,-201.67 1571,-209.33 1571,-209.33 1571,-213.17 1567.17,-217 1563.33,-217"/>
<text text-anchor="middle" x="1425" y="-201.8" font-family="Arial" font-size="14.00" fill="#cfffac">src/components/directory/directory.styles.scss</text>
</g>
<!-- src/components/directory/directory.component.jsx&#45;&gt;src/components/directory/directory.styles.scss -->
<g id="edge8" class="edge">
<title>src/components/directory/directory.component.jsx&#45;&gt;src/components/directory/directory.styles.scss</title>
<path fill="none" stroke="#757575" d="M1131.09,-185.93C1175.7,-188.91 1224.29,-192.16 1268.84,-195.13"/>
<polygon fill="#757575" stroke="#757575" points="1268.66,-198.63 1278.87,-195.8 1269.13,-191.64 1268.66,-198.63"/>
</g>
<!-- src/components/menu&#45;item/menu&#45;item.component.jsx -->
<g id="node12" class="node">
<title>src/components/menu&#45;item/menu&#45;item.component.jsx</title>
<path fill="none" stroke="#c6c5fe" d="M1588.33,-176C1588.33,-176 1261.67,-176 1261.67,-176 1257.83,-176 1254,-172.17 1254,-168.33 1254,-168.33 1254,-160.67 1254,-160.67 1254,-156.83 1257.83,-153 1261.67,-153 1261.67,-153 1588.33,-153 1588.33,-153 1592.17,-153 1596,-156.83 1596,-160.67 1596,-160.67 1596,-168.33 1596,-168.33 1596,-172.17 1592.17,-176 1588.33,-176"/>
<text text-anchor="middle" x="1425" y="-160.8" font-family="Arial" font-size="14.00" fill="#c6c5fe">src/components/menu&#45;item/menu&#45;item.component.jsx</text>
</g>
<!-- src/components/directory/directory.component.jsx&#45;&gt;src/components/menu&#45;item/menu&#45;item.component.jsx -->
<g id="edge9" class="edge">
<title>src/components/directory/directory.component.jsx&#45;&gt;src/components/menu&#45;item/menu&#45;item.component.jsx</title>
<path fill="none" stroke="#757575" d="M1131.09,-171.68C1167.31,-170.79 1206.16,-169.84 1243.33,-168.93"/>
<polygon fill="#757575" stroke="#757575" points="1243.86,-172.41 1253.77,-168.67 1243.69,-165.42 1243.86,-172.41"/>
</g>
<!-- src/components/menu&#45;item/menu&#45;item.styles.scss -->
<g id="node13" class="node">
<title>src/components/menu&#45;item/menu&#45;item.styles.scss</title>
<path fill="none" stroke="#cfffac" d="M1996.83,-176C1996.83,-176 1692.17,-176 1692.17,-176 1688.33,-176 1684.5,-172.17 1684.5,-168.33 1684.5,-168.33 1684.5,-160.67 1684.5,-160.67 1684.5,-156.83 1688.33,-153 1692.17,-153 1692.17,-153 1996.83,-153 1996.83,-153 2000.67,-153 2004.5,-156.83 2004.5,-160.67 2004.5,-160.67 2004.5,-168.33 2004.5,-168.33 2004.5,-172.17 2000.67,-176 1996.83,-176"/>
<text text-anchor="middle" x="1844.5" y="-160.8" font-family="Arial" font-size="14.00" fill="#cfffac">src/components/menu&#45;item/menu&#45;item.styles.scss</text>
</g>
<!-- src/components/menu&#45;item/menu&#45;item.component.jsx&#45;&gt;src/components/menu&#45;item/menu&#45;item.styles.scss -->
<g id="edge10" class="edge">
<title>src/components/menu&#45;item/menu&#45;item.component.jsx&#45;&gt;src/components/menu&#45;item/menu&#45;item.styles.scss</title>
<path fill="none" stroke="#757575" d="M1596.11,-164.5C1621.81,-164.5 1648.31,-164.5 1673.99,-164.5"/>
<polygon fill="#757575" stroke="#757575" points="1674.17,-168 1684.17,-164.5 1674.17,-161 1674.17,-168"/>
</g>
<!-- src/index.css -->
<g id="node14" class="node">
<title>src/index.css</title>
<path fill="none" stroke="#cfffac" d="M320.83,-105C320.83,-105 241.17,-105 241.17,-105 237.33,-105 233.5,-101.17 233.5,-97.33 233.5,-97.33 233.5,-89.67 233.5,-89.67 233.5,-85.83 237.33,-82 241.17,-82 241.17,-82 320.83,-82 320.83,-82 324.67,-82 328.5,-85.83 328.5,-89.67 328.5,-89.67 328.5,-97.33 328.5,-97.33 328.5,-101.17 324.67,-105 320.83,-105"/>
<text text-anchor="middle" x="281" y="-89.8" font-family="Arial" font-size="14.00" fill="#cfffac">src/index.css</text>
</g>
<!-- src/index.js -->
<g id="node15" class="node">
<title>src/index.js</title>
<path fill="none" stroke="#c6c5fe" d="M104.33,-85C104.33,-85 35.67,-85 35.67,-85 31.83,-85 28,-81.17 28,-77.33 28,-77.33 28,-69.67 28,-69.67 28,-65.83 31.83,-62 35.67,-62 35.67,-62 104.33,-62 104.33,-62 108.17,-62 112,-65.83 112,-69.67 112,-69.67 112,-77.33 112,-77.33 112,-81.17 108.17,-85 104.33,-85"/>
<text text-anchor="middle" x="70" y="-69.8" font-family="Arial" font-size="14.00" fill="#c6c5fe">src/index.js</text>
</g>
<!-- src/index.js&#45;&gt;src/App.js -->
<g id="edge11" class="edge">
<title>src/index.js&#45;&gt;src/App.js</title>
<path fill="none" stroke="#757575" d="M96.86,-85.13C117.84,-94.18 148.36,-106.52 176,-114.5 194.25,-119.77 214.7,-124.04 232.61,-127.27"/>
<polygon fill="#757575" stroke="#757575" points="232.1,-130.73 242.55,-128.99 233.3,-123.83 232.1,-130.73"/>
</g>
<!-- src/index.js&#45;&gt;src/index.css -->
<g id="edge12" class="edge">
<title>src/index.js&#45;&gt;src/index.css</title>
<path fill="none" stroke="#757575" d="M112.29,-77.45C144.02,-80.49 188.19,-84.71 223.24,-88.07"/>
<polygon fill="#757575" stroke="#757575" points="223.04,-91.57 233.33,-89.03 223.71,-84.6 223.04,-91.57"/>
</g>
<!-- src/reportWebVitals.js -->
<g id="node16" class="node">
<title>src/reportWebVitals.js</title>
<path fill="none" stroke="#cfffac" d="M347.33,-64C347.33,-64 214.67,-64 214.67,-64 210.83,-64 207,-60.17 207,-56.33 207,-56.33 207,-48.67 207,-48.67 207,-44.83 210.83,-41 214.67,-41 214.67,-41 347.33,-41 347.33,-41 351.17,-41 355,-44.83 355,-48.67 355,-48.67 355,-56.33 355,-56.33 355,-60.17 351.17,-64 347.33,-64"/>
<text text-anchor="middle" x="281" y="-48.8" font-family="Arial" font-size="14.00" fill="#cfffac">src/reportWebVitals.js</text>
</g>
<!-- src/index.js&#45;&gt;src/reportWebVitals.js -->
<g id="edge13" class="edge">
<title>src/index.js&#45;&gt;src/reportWebVitals.js</title>
<path fill="none" stroke="#757575" d="M112.29,-69.35C136.34,-66.93 167.55,-63.8 196.51,-60.89"/>
<polygon fill="#757575" stroke="#757575" points="197.04,-64.35 206.64,-59.87 196.34,-57.39 197.04,-64.35"/>
</g>
<!-- src/serviceWorkerRegistration.js -->
<g id="node17" class="node">
<title>src/serviceWorkerRegistration.js</title>
<path fill="none" stroke="#cfffac" d="M378.33,-23C378.33,-23 183.67,-23 183.67,-23 179.83,-23 176,-19.17 176,-15.33 176,-15.33 176,-7.67 176,-7.67 176,-3.83 179.83,0 183.67,0 183.67,0 378.33,0 378.33,0 382.17,0 386,-3.83 386,-7.67 386,-7.67 386,-15.33 386,-15.33 386,-19.17 382.17,-23 378.33,-23"/>
<text text-anchor="middle" x="281" y="-7.8" font-family="Arial" font-size="14.00" fill="#cfffac">src/serviceWorkerRegistration.js</text>
</g>
<!-- src/index.js&#45;&gt;src/serviceWorkerRegistration.js -->
<g id="edge14" class="edge">
<title>src/index.js&#45;&gt;src/serviceWorkerRegistration.js</title>
<path fill="none" stroke="#757575" d="M95.98,-61.94C116.96,-52.61 147.93,-39.73 176,-31.5 183.78,-29.22 191.96,-27.13 200.18,-25.24"/>
<polygon fill="#757575" stroke="#757575" points="201.18,-28.6 210.19,-23.02 199.67,-21.76 201.18,-28.6"/>
</g>
<!-- src/service&#45;worker.js -->
<g id="node20" class="node">
<title>src/service&#45;worker.js</title>
<path fill="none" stroke="#cfffac" d="M132.33,-187C132.33,-187 7.67,-187 7.67,-187 3.83,-187 0,-183.17 0,-179.33 0,-179.33 0,-171.67 0,-171.67 0,-167.83 3.83,-164 7.67,-164 7.67,-164 132.33,-164 132.33,-164 136.17,-164 140,-167.83 140,-171.67 140,-171.67 140,-179.33 140,-179.33 140,-183.17 136.17,-187 132.33,-187"/>
<text text-anchor="middle" x="70" y="-171.8" font-family="Arial" font-size="14.00" fill="#cfffac">src/service&#45;worker.js</text>
</g>
<!-- src/setupTests.js -->
<g id="node21" class="node">
<title>src/setupTests.js</title>
<path fill="none" stroke="#cfffac" d="M120.33,-228C120.33,-228 19.67,-228 19.67,-228 15.83,-228 12,-224.17 12,-220.33 12,-220.33 12,-212.67 12,-212.67 12,-208.83 15.83,-205 19.67,-205 19.67,-205 120.33,-205 120.33,-205 124.17,-205 128,-208.83 128,-212.67 128,-212.67 128,-220.33 128,-220.33 128,-224.17 124.17,-228 120.33,-228"/>
<text text-anchor="middle" x="70" y="-212.8" font-family="Arial" font-size="14.00" fill="#cfffac">src/setupTests.js</text>
</g>
</g>
</svg>
